<svg width="16" height="16" viewBox="0 0 16 16" fill="none" xmlns="http://www.w3.org/2000/svg">
<path d="M8.01427 0.59375C3.92381 0.59375 0.59375 3.92381 0.59375 8.01427C0.59375 12.1047 3.92381 15.4086 8.01427 15.4086C12.1047 15.4086 15.4086 12.1047 15.4086 8.01427C15.4086 3.92381 12.1047 0.59375 8.01427 0.59375ZM7.8045 12.2096H7.77828C7.64717 11.9736 7.38497 11.7901 7.1752 11.659C7.14898 11.6065 7.09654 11.6065 7.04409 11.5803C7.01787 11.5541 6.93921 11.5541 6.91299 11.5541C6.72944 11.5541 6.51968 11.6065 6.36235 11.6852C6.25747 11.7376 6.15258 11.8163 6.07392 11.8687C6.02148 11.9212 5.96904 11.9474 5.94282 11.9998C5.89037 12.0523 5.83793 12.0785 5.78549 12.1309C5.60194 12.2621 5.36596 12.3669 5.15619 12.4456C4.9202 12.5243 4.81532 12.5505 4.57933 12.6029L4.422 12.6291C4.422 12.6029 4.422 12.5767 4.44822 12.5767C4.68421 12.5243 4.9202 12.4718 5.12997 12.3932C5.36596 12.3145 5.57572 12.2096 5.75927 12.0523C5.81171 12.0261 5.83793 11.9998 5.89037 11.9474C5.91659 11.9212 5.96904 11.8687 6.02148 11.8163C6.10014 11.7376 6.20502 11.659 6.30991 11.6065C6.41479 11.5541 6.5459 11.5016 6.65078 11.4754H6.677C6.677 11.4754 6.65078 11.4492 6.62456 11.4492C6.57212 11.4492 6.51968 11.423 6.46723 11.3968C6.25747 11.3443 6.0477 11.2657 5.86415 11.1608C5.81171 11.1608 5.75927 11.1346 5.73305 11.1346C5.62816 11.1608 5.52328 11.1346 5.4184 11.1346C5.26107 11.1346 5.12997 11.1083 4.99886 11.0821C4.86776 11.0297 4.73665 11.0035 4.60555 10.951C4.47444 10.9248 4.34334 10.8723 4.21224 10.8199C3.71404 10.6364 3.2945 10.5053 2.77009 10.3741C2.74386 10.3741 2.61276 10.3479 2.63898 10.3217C2.63898 10.2955 2.63898 10.2955 2.6652 10.2955C2.92741 10.3741 3.18962 10.4528 3.45183 10.5315C3.71404 10.6101 3.97625 10.6888 4.23846 10.7675C4.36956 10.8199 4.50067 10.8723 4.63177 10.8986C4.76287 10.951 4.89398 10.9772 5.02508 11.0035C5.15619 11.0297 5.28729 11.0559 5.4184 11.0559C5.47084 11.0559 5.52328 11.0559 5.57572 11.0559C5.60194 11.0559 5.60194 11.0297 5.57572 11.0297C5.39218 10.8986 5.23485 10.7937 5.07753 10.6364C5.0513 10.6101 5.0513 10.5839 5.02508 10.5839C4.99886 10.5577 4.94642 10.5053 4.9202 10.479C4.7891 10.3741 4.65799 10.2955 4.52689 10.2168C4.36956 10.1382 4.18601 10.0595 4.00247 10.0071C3.89758 9.98084 3.81892 9.95461 3.71404 9.92839C3.63538 9.90217 3.53049 9.87595 3.42561 9.82351C3.26828 9.77107 3.1634 9.71863 3.00607 9.61374C2.97985 9.58752 2.90119 9.53508 2.90119 9.50886C2.90119 9.50886 2.92741 9.50886 2.95363 9.50886C3.11096 9.61374 3.2945 9.69241 3.45183 9.77107C3.55671 9.79729 3.63538 9.82351 3.74026 9.84973C3.81892 9.90217 3.92381 9.90217 4.02869 9.92839C4.21224 9.98084 4.39578 10.0595 4.55311 10.1644C4.60555 10.1906 4.65799 10.2168 4.71043 10.243C4.73665 10.2693 4.76287 10.2693 4.73665 10.243L4.57933 10.0333C4.422 9.82351 4.23846 9.61374 4.08113 9.40398L4.05491 9.37775C4.02869 9.35153 4.00247 9.32531 4.00247 9.32531C3.92381 9.29909 3.81892 9.27287 3.74026 9.24665C3.63538 9.22043 3.55671 9.16799 3.47805 9.14177C3.2945 9.0631 3.18962 9.03688 3.03229 8.95822C3.00607 8.95822 2.92741 8.87956 2.95363 8.87956C2.95363 8.85334 2.97985 8.85334 2.97985 8.85334C3.13718 8.95822 3.32072 9.03688 3.47805 9.08932C3.60915 9.14177 3.74026 9.19421 3.87136 9.22043C3.92381 9.22043 3.92381 9.22043 3.89758 9.19421C3.63538 8.85334 3.42561 8.56491 3.1634 8.22403C3.13718 8.22403 3.08474 8.14537 3.08474 8.14537C3.11096 8.11915 3.13718 8.14537 3.13718 8.14537L4.13357 9.37775C4.2909 9.58752 4.47444 9.77107 4.63177 9.98084C4.71043 10.0857 4.7891 10.1906 4.86776 10.2955C4.86776 10.2955 4.86776 10.2955 4.89398 10.3217C4.89398 10.3217 4.89398 10.2955 4.9202 10.2693C4.9202 10.2168 4.9202 10.1382 4.89398 10.0857C4.89398 9.98084 4.86776 9.87595 4.84154 9.77107C4.76287 9.5613 4.65799 9.37775 4.55311 9.19421C4.422 9.01066 4.31712 8.80089 4.26468 8.59113C4.18601 8.38136 4.15979 8.17159 4.18601 7.9356C4.21224 7.9356 4.21224 7.9356 4.21224 7.9356C4.21224 8.17159 4.23846 8.38136 4.2909 8.59113C4.36956 8.80089 4.44822 8.98444 4.57933 9.16799C4.71043 9.35153 4.81532 9.53508 4.89398 9.74485C4.9202 9.84973 4.94642 9.98084 4.97264 10.0857C4.97264 10.1644 4.97264 10.243 4.97264 10.3217C4.97264 10.3479 4.97264 10.4004 4.99886 10.4266C5.0513 10.479 5.10375 10.5315 5.12997 10.5839C5.33973 10.7412 5.5495 10.8986 5.78549 11.0035C5.89037 11.0559 5.99526 11.1083 6.10014 11.1346C6.15258 11.1608 6.15258 11.1346 6.12636 11.1083C6.0477 10.9772 5.94282 10.8461 5.86415 10.715C5.73305 10.479 5.62816 10.2693 5.5495 10.0333C5.44462 9.79729 5.36596 9.5613 5.28729 9.32531C5.23485 9.08932 5.23485 8.90578 5.23485 8.66979C5.23485 8.64357 5.23485 8.53869 5.26107 8.56491C5.26107 8.56491 5.28729 8.56491 5.28729 8.59113C5.26107 8.82712 5.28729 9.0631 5.36596 9.29909C5.4184 9.5613 5.49706 9.77107 5.60194 10.0071C5.70683 10.243 5.81171 10.4528 5.94282 10.6626C6.0477 10.8461 6.1788 11.0035 6.30991 11.1608C6.30991 11.187 6.36235 11.2394 6.41479 11.2394C6.44101 11.2394 6.46723 11.2657 6.49345 11.2657C6.62456 11.2919 6.75566 11.3705 6.88677 11.3968C7.01787 11.423 7.14898 11.4754 7.25386 11.5541C7.48985 11.7376 7.72584 11.9212 7.83072 12.1834C7.83072 12.1834 7.83072 12.2096 7.8045 12.2096ZM8.06671 6.33613C8.06671 6.36235 8.06671 6.88677 8.06671 6.88677C8.06671 7.09654 8.09293 7.3063 8.04049 7.54229C8.04049 7.54229 8.04049 7.54229 8.01427 7.54229C8.01427 7.56851 8.01427 7.56851 8.01427 7.56851H7.98805C7.98805 7.54229 7.96183 7.54229 7.96183 7.54229C7.9356 7.3063 7.9356 7.09654 7.9356 6.88677C7.9356 6.88677 7.9356 6.36235 7.9356 6.33613C7.96183 6.15258 7.9356 5.91659 7.85694 5.75927C7.77828 5.57572 7.69962 5.36596 7.59473 5.20863C7.48985 5.02508 7.38497 4.84154 7.3063 4.65799C7.25386 4.57933 7.20142 4.47444 7.1752 4.36956C7.14898 4.2909 7.12276 4.21224 7.12276 4.10735C7.09654 4.10735 7.09654 4.05491 7.12276 4.02869L7.14898 4.05491C7.1752 4.26468 7.28008 4.44822 7.35874 4.63177C7.43741 4.81532 7.54229 4.99886 7.6734 5.15619C7.77828 5.31351 7.85694 5.47084 7.9356 5.65439C7.9356 5.68061 7.9356 5.68061 7.9356 5.65439L7.96183 5.07753C7.96183 5.0513 7.96183 4.97264 7.96183 4.94642C7.9356 4.84154 7.88316 4.73665 7.85694 4.63177C7.77828 4.47444 7.6734 4.34334 7.54229 4.21224C7.43741 4.08113 7.3063 3.97625 7.20142 3.81892C7.09654 3.68782 7.01787 3.58293 6.96543 3.39939C6.93921 3.39939 6.93921 3.34695 6.96543 3.34695H6.99165C7.04409 3.50427 7.14898 3.6616 7.25386 3.7927C7.35874 3.92381 7.46363 4.05491 7.59473 4.18601C7.69962 4.31712 7.83072 4.44822 7.90938 4.60555C7.90938 4.63177 7.9356 4.65799 7.9356 4.71043C7.96183 4.73665 7.96183 4.73665 7.96183 4.68421C7.96183 4.50067 7.96183 4.2909 7.96183 4.10735C7.98805 4.05491 7.96183 4.02869 7.96183 4.02869C7.96183 4.02869 7.96183 4.00247 7.96183 3.95003C7.9356 3.87136 7.90938 3.7927 7.88316 3.71404C7.83072 3.6616 7.8045 3.60915 7.77828 3.58293C7.72584 3.53049 7.6734 3.53049 7.62095 3.50427C7.51607 3.42561 7.43741 3.34695 7.38497 3.24206C7.3063 3.1634 7.28008 3.08474 7.22764 2.97985V2.92741H7.25386C7.28008 3.03229 7.33252 3.13718 7.41119 3.24206C7.46363 3.2945 7.51607 3.37317 7.59473 3.42561C7.62095 3.45183 7.6734 3.47805 7.69962 3.50427C7.77828 3.53049 7.85694 3.60915 7.90938 3.68782C7.9356 3.71404 7.9356 3.71404 7.9356 3.74026C7.96183 3.7927 7.98805 3.76648 7.98805 3.74026C7.98805 3.68782 7.98805 3.63538 7.98805 3.58293C7.98805 3.47805 7.98805 3.34695 7.98805 3.24206C7.98805 3.21584 7.96183 3.18962 7.9356 3.18962C7.90938 3.18962 7.90938 3.1634 7.88316 3.1634C7.83072 3.1634 7.8045 3.1634 7.75206 3.13718C7.6734 3.08474 7.64717 3.05852 7.62095 2.97985C7.62095 2.95363 7.59473 2.92741 7.62095 2.92741H7.64717C7.64717 2.95363 7.6734 3.00607 7.69962 3.03229C7.72584 3.05852 7.75206 3.08474 7.77828 3.11096C7.83072 3.11096 7.85694 3.13718 7.90938 3.13718C7.9356 3.13718 7.98805 3.11096 7.98805 3.08474C7.98805 2.79631 7.98805 2.58654 7.98805 2.32433C7.98805 2.29811 7.98805 2.21945 8.01427 2.21945C8.04049 2.21945 8.04049 2.24567 8.04049 2.27189C8.04049 2.5341 8.04049 2.79631 8.04049 3.08474C8.04049 3.11096 8.06671 3.13718 8.09293 3.13718C8.14537 3.13718 8.19781 3.11096 8.22403 3.11096C8.25026 3.08474 8.3027 3.05852 8.32892 3.03229C8.32892 3.00607 8.35514 2.95363 8.38136 2.92741C8.38136 2.92741 8.38136 2.92741 8.40758 2.92741V2.97985C8.35514 3.05852 8.32892 3.08474 8.25026 3.13718C8.22403 3.1634 8.17159 3.1634 8.11915 3.1634L8.09293 3.18962C8.06671 3.18962 8.04049 3.21584 8.04049 3.24206C8.04049 3.34695 8.04049 3.47805 8.04049 3.58293C8.04049 3.63538 8.04049 3.68782 8.04049 3.74026C8.04049 3.76648 8.04049 3.7927 8.06671 3.74026C8.06671 3.71404 8.09293 3.71404 8.09293 3.68782C8.14537 3.60915 8.22403 3.53049 8.3027 3.50427C8.32892 3.47805 8.40758 3.45183 8.4338 3.42561C8.48624 3.37317 8.56491 3.2945 8.61735 3.24206C8.66979 3.13718 8.72223 3.03229 8.77467 2.92741C8.80089 2.92741 8.77467 2.95363 8.77467 2.97985C8.72223 3.08474 8.69601 3.1634 8.64357 3.24206C8.56491 3.34695 8.48624 3.42561 8.38136 3.50427C8.32892 3.53049 8.27648 3.53049 8.25026 3.58293C8.19781 3.60915 8.17159 3.6616 8.14537 3.71404C8.09293 3.7927 8.04049 3.92381 8.04049 4.02869C8.04049 4.02869 8.04049 4.05491 8.04049 4.10735C8.04049 4.2909 8.04049 4.50067 8.04049 4.68421C8.04049 4.73665 8.06671 4.73665 8.06671 4.71043C8.09293 4.65799 8.09293 4.63177 8.11915 4.60555C8.19781 4.44822 8.3027 4.31712 8.4338 4.18601C8.53869 4.05491 8.66979 3.92381 8.77467 3.7927C8.87956 3.6616 8.95822 3.50427 9.03688 3.34695C9.03688 3.34695 9.03688 3.34695 9.0631 3.34695C9.0631 3.34695 9.03688 3.39939 9.03688 3.42561C8.98444 3.58293 8.90578 3.68782 8.80089 3.81892C8.69601 3.97625 8.59113 4.08113 8.46002 4.21224C8.35514 4.34334 8.25026 4.47444 8.17159 4.63177C8.11915 4.73665 8.09293 4.84154 8.06671 4.94642C8.06671 4.97264 8.04049 5.0513 8.04049 5.07753L8.06671 5.65439C8.06671 5.68061 8.06671 5.68061 8.09293 5.65439C8.14537 5.47084 8.25026 5.31351 8.35514 5.15619C8.46002 4.99886 8.56491 4.81532 8.64357 4.63177C8.74845 4.44822 8.82712 4.26468 8.85334 4.05491C8.85334 4.05491 8.87956 4.02869 8.90578 4.02869C8.90578 4.05491 8.90578 4.10735 8.90578 4.13357C8.87956 4.23846 8.87956 4.2909 8.82712 4.36956C8.80089 4.47444 8.74845 4.57933 8.72223 4.65799C8.61735 4.84154 8.53869 5.02508 8.40758 5.20863C8.3027 5.36596 8.25026 5.5495 8.14537 5.73305C8.06671 5.91659 8.06671 6.15258 8.06671 6.33613ZM7.04409 7.07031C6.99165 7.01787 6.93921 6.93921 6.91299 6.88677C6.83433 6.75566 6.75566 6.62456 6.70322 6.46723C6.70322 6.44101 6.65078 6.41479 6.62456 6.38857C6.5459 6.38857 6.49345 6.36235 6.41479 6.33613C6.33613 6.28369 6.25747 6.23125 6.1788 6.1788C6.10014 6.12636 6.02148 6.07392 5.96904 5.99526C5.89037 5.94282 5.81171 5.89037 5.73305 5.83793C5.60194 5.73305 5.4184 5.62816 5.26107 5.5495C5.10375 5.44462 4.99886 5.36596 4.81532 5.31351C4.81532 5.31351 4.73665 5.28729 4.73665 5.26107C4.73665 5.26107 4.76287 5.23485 4.76287 5.26107H4.7891C4.94642 5.33973 5.10375 5.4184 5.28729 5.52328C5.4184 5.57572 5.5495 5.65439 5.68061 5.73305C5.73305 5.75927 5.75927 5.75927 5.73305 5.70683C5.73305 5.65439 5.70683 5.57572 5.68061 5.52328C5.65439 5.49706 5.62816 5.44462 5.57572 5.4184L5.49706 5.28729C5.36596 5.10375 5.23485 4.94642 5.12997 4.7891C5.10375 4.76287 5.10375 4.76287 5.12997 4.76287C5.12997 4.73665 5.12997 4.73665 5.15619 4.76287C5.26107 4.9202 5.39218 5.10375 5.52328 5.26107L5.62816 5.39218C5.65439 5.4184 5.68061 5.47084 5.70683 5.52328C5.75927 5.57572 5.78549 5.65439 5.78549 5.75927C5.78549 5.78549 5.81171 5.83793 5.83793 5.86415C5.89037 5.89037 5.94282 5.91659 5.99526 5.96904C6.07392 6.02148 6.12636 6.07392 6.20502 6.12636C6.28369 6.1788 6.36235 6.23125 6.44101 6.25747C6.49345 6.28369 6.5459 6.30991 6.57212 6.30991C6.59834 6.30991 6.62456 6.30991 6.59834 6.25747C6.5459 6.15258 6.49345 6.0477 6.44101 5.91659C6.38857 5.86415 6.36235 5.78549 6.30991 5.70683C6.30991 5.68061 6.28369 5.65439 6.28369 5.65439C6.28369 5.65439 6.25747 5.62816 6.23125 5.60194C6.12636 5.39218 5.99526 5.20863 5.86415 5.02508C5.62816 4.76287 5.44462 4.52689 5.15619 4.2909C5.15619 4.2909 5.10375 4.23846 5.12997 4.21224H5.15619C5.4184 4.47444 5.68061 4.71043 5.89037 4.99886C6.02148 5.15619 6.12636 5.28729 6.23125 5.44462C6.25747 5.47084 6.28369 5.47084 6.28369 5.44462C6.28369 5.36596 6.28369 5.31351 6.30991 5.23485C6.33613 5.18241 6.36235 5.12997 6.38857 5.0513C6.41479 4.99886 6.44101 4.94642 6.46723 4.89398C6.51968 4.7891 6.5459 4.65799 6.57212 4.52689C6.57212 4.39578 6.57212 4.26468 6.51968 4.15979C6.51968 4.13357 6.51968 4.13357 6.5459 4.13357C6.5459 4.13357 6.5459 4.13357 6.57212 4.13357C6.59834 4.26468 6.62456 4.39578 6.59834 4.52689C6.59834 4.65799 6.57212 4.7891 6.49345 4.9202C6.46723 4.97264 6.44101 5.02508 6.41479 5.07753C6.38857 5.12997 6.36235 5.20863 6.36235 5.26107C6.33613 5.33973 6.33613 5.44462 6.33613 5.5495C6.33613 5.57572 6.36235 5.62816 6.36235 5.65439C6.41479 5.73305 6.46723 5.81171 6.51968 5.89037C6.59834 6.0477 6.677 6.20502 6.75566 6.36235C6.83433 6.51968 6.91299 6.677 6.99165 6.83433C7.1752 7.14898 7.41119 7.41119 7.6734 7.62095H7.69962C7.69962 7.62095 7.69962 7.64717 7.69962 7.6734C7.6734 7.6734 7.6734 7.6734 7.64717 7.6734C7.48985 7.59473 7.35874 7.46363 7.22764 7.33252C7.22764 7.3063 7.20142 7.3063 7.20142 7.3063C7.1752 7.28008 7.14898 7.25386 7.12276 7.22764C6.96543 7.14898 6.80811 7.09654 6.65078 7.09654C6.5459 7.07031 6.44101 7.09654 6.33613 7.09654C6.23125 7.12276 6.10014 7.14898 5.99526 7.14898C5.78549 7.12276 5.57572 7.07031 5.36596 7.01787C5.15619 6.96543 4.99886 6.88677 4.81532 6.80811C4.7891 6.78188 4.73665 6.75566 4.73665 6.72944C4.73665 6.72944 4.76287 6.72944 4.7891 6.72944C4.97264 6.83433 5.18241 6.91299 5.36596 6.96543C5.57572 7.04409 5.78549 7.09654 5.99526 7.09654C6.10014 7.09654 6.20502 7.09654 6.30991 7.07031C6.44101 7.04409 6.5459 7.04409 6.65078 7.04409C6.78188 7.04409 6.88677 7.07031 7.01787 7.09654C7.04409 7.12276 7.04409 7.09654 7.04409 7.07031ZM9.66618 5.26107C9.63996 5.20863 9.61374 5.12997 9.58752 5.07753C9.5613 5.02508 9.53508 4.97264 9.50886 4.9202C9.45642 4.7891 9.4302 4.65799 9.40398 4.52689C9.40398 4.39578 9.40398 4.31712 9.45642 4.21224C9.45642 4.18601 9.45642 4.13357 9.48264 4.13357C9.48264 4.13357 9.48264 4.13357 9.48264 4.15979C9.4302 4.26468 9.4302 4.39578 9.4302 4.52689C9.45642 4.65799 9.48264 4.7891 9.53508 4.89398C9.5613 4.94642 9.58752 4.99886 9.63996 5.0513C9.66618 5.12997 9.69241 5.18241 9.69241 5.23485C9.71863 5.31351 9.71863 5.36596 9.74485 5.44462C9.74485 5.47084 9.77107 5.47084 9.77107 5.44462C9.87595 5.28729 10.0071 5.15619 10.1119 4.99886C10.3479 4.71043 10.5839 4.47444 10.8461 4.21224C10.8723 4.21224 10.8723 4.21224 10.8986 4.21224C10.8986 4.23846 10.8461 4.2909 10.8199 4.2909C10.5577 4.52689 10.3741 4.76287 10.1644 5.02508C10.0071 5.20863 9.90217 5.39218 9.77107 5.60194C9.74485 5.62816 9.74485 5.65439 9.74485 5.65439C9.71863 5.65439 9.71863 5.68061 9.69241 5.70683C9.66618 5.78549 9.61374 5.86415 9.5613 5.91659C9.50886 6.0477 9.45642 6.15258 9.40398 6.25747C9.37775 6.30991 9.40398 6.30991 9.4302 6.30991C9.48264 6.30991 9.50886 6.28369 9.5613 6.25747C9.63996 6.23125 9.71863 6.1788 9.79729 6.12636C9.87595 6.07392 9.95461 6.02148 10.0071 5.96904C10.0595 5.91659 10.1119 5.89037 10.1644 5.86415C10.1906 5.83793 10.2168 5.78549 10.2168 5.75927C10.2168 5.65439 10.2693 5.57572 10.2955 5.52328C10.3217 5.47084 10.3741 5.4184 10.4004 5.39218L10.479 5.26107C10.6101 5.10375 10.6888 4.99886 10.8199 4.84154C10.8199 4.81532 10.8723 4.73665 10.8986 4.76287C10.8986 4.76287 10.8986 4.76287 10.8986 4.7891C10.7675 4.94642 10.6364 5.10375 10.5315 5.28729L10.4266 5.4184C10.4004 5.44462 10.3479 5.49706 10.3217 5.52328C10.2955 5.57572 10.2693 5.65439 10.2693 5.70683C10.2693 5.75927 10.2955 5.75927 10.3217 5.73305C10.4528 5.65439 10.5839 5.57572 10.7412 5.52328C10.8986 5.4184 11.0559 5.33973 11.2394 5.26107C11.2657 5.23485 11.2657 5.26107 11.2919 5.26107C11.2919 5.28729 11.2132 5.31351 11.187 5.31351C11.0035 5.39218 10.9248 5.44462 10.7412 5.5495C10.5839 5.62816 10.4266 5.73305 10.2693 5.83793C10.1906 5.89037 10.1119 5.94282 10.0595 5.99526C9.98084 6.07392 9.90217 6.12636 9.82351 6.1788C9.74485 6.23125 9.66618 6.28369 9.58752 6.33613C9.53508 6.36235 9.45642 6.38857 9.40398 6.38857C9.35153 6.41479 9.32531 6.44101 9.29909 6.46723C9.24665 6.62456 9.16799 6.75566 9.08932 6.88677C9.0631 6.93921 9.01066 7.01787 8.98444 7.07031C8.95822 7.09654 8.95822 7.12276 9.01066 7.09654C9.11555 7.07031 9.24665 7.04409 9.35153 7.04409C9.48264 7.04409 9.58752 7.04409 9.69241 7.07031C9.79729 7.09654 9.90217 7.09654 10.0071 7.09654C10.2168 7.09654 10.4266 7.04409 10.6364 6.96543C10.8461 6.91299 11.0297 6.83433 11.2394 6.72944H11.2657C11.2919 6.75566 11.2394 6.78188 11.2394 6.78188C11.0297 6.88677 10.8461 6.96543 10.6626 7.01787C10.4528 7.07031 10.2168 7.12276 10.0071 7.14898C9.90217 7.14898 9.79729 7.12276 9.69241 7.09654C9.58752 7.09654 9.48264 7.07031 9.37775 7.09654C9.19421 7.09654 9.03688 7.14898 8.90578 7.22764C8.85334 7.25386 8.82712 7.28008 8.80089 7.3063C8.80089 7.3063 8.80089 7.3063 8.77467 7.33252C8.66979 7.46363 8.53869 7.59473 8.35514 7.6734H8.32892C8.3027 7.64717 8.3027 7.62095 8.32892 7.62095C8.59113 7.41119 8.82712 7.14898 9.01066 6.83433C9.11555 6.677 9.16799 6.51968 9.24665 6.36235C9.32531 6.20502 9.40398 6.0477 9.50886 5.89037C9.53508 5.81171 9.58752 5.73305 9.63996 5.65439C9.66618 5.62816 9.69241 5.57572 9.69241 5.5495C9.69241 5.44462 9.66618 5.33973 9.66618 5.26107ZM8.19781 12.2096L8.17159 12.1834C8.27648 11.9212 8.51246 11.7376 8.74845 11.5541C8.85334 11.4754 8.98444 11.423 9.11555 11.3968C9.24665 11.3705 9.37775 11.2919 9.50886 11.2657C9.53508 11.2657 9.5613 11.2394 9.61374 11.2394C9.63996 11.2394 9.69241 11.187 9.71863 11.1608C9.84973 11.0035 9.95461 10.8461 10.0595 10.6626C10.1906 10.4528 10.3217 10.243 10.4004 10.0071C10.5053 9.77107 10.5839 9.5613 10.6626 9.29909C10.715 9.0631 10.7675 8.87956 10.7412 8.64357C10.7412 8.64357 10.7412 8.56491 10.7675 8.56491C10.7675 8.53869 10.7937 8.56491 10.7937 8.59113C10.7937 8.82712 10.7675 9.08932 10.715 9.32531C10.6626 9.5613 10.5839 9.79729 10.479 10.0333C10.3741 10.2693 10.2693 10.479 10.1382 10.715C10.0595 10.8461 9.98084 10.9772 9.87595 11.1083C9.84973 11.1346 9.87595 11.1608 9.90217 11.1346C10.0071 11.1083 10.1382 11.0559 10.243 11.0035C10.4528 10.8986 10.6888 10.7412 10.8723 10.5839C10.9248 10.5315 10.9772 10.479 11.0035 10.4266C11.0297 10.4004 11.0559 10.3479 11.0559 10.3217C11.0297 10.243 11.0297 10.1644 11.0559 10.0857C11.0559 9.98084 11.0821 9.84973 11.1346 9.74485C11.187 9.53508 11.2919 9.35153 11.423 9.16799C11.5541 8.98444 11.659 8.80089 11.7114 8.59113C11.7639 8.38136 11.8163 8.17159 11.7901 7.9356H11.8163H11.8425C11.8425 8.17159 11.8163 8.38136 11.7639 8.59113C11.6852 8.80089 11.6065 9.01066 11.4754 9.19421C11.3443 9.37775 11.2394 9.5613 11.187 9.77107C11.1346 9.87595 11.1083 9.98084 11.1083 10.0857C11.1083 10.1382 11.1083 10.2168 11.1083 10.2693C11.1083 10.2955 11.1083 10.3217 11.1346 10.3217C11.1346 10.2955 11.1346 10.2955 11.1346 10.2955C11.2132 10.1906 11.2919 10.0857 11.3968 9.98084C11.5541 9.77107 11.7114 9.58752 11.8687 9.37775L12.8651 8.14537C12.8914 8.14537 12.8914 8.11915 12.9176 8.14537C12.9176 8.14537 12.8914 8.19781 12.8651 8.22403C12.6029 8.53869 12.3669 8.85334 12.1047 9.19421C12.0785 9.22043 12.0785 9.22043 12.1309 9.22043C12.2621 9.19421 12.3932 9.14177 12.5243 9.08932C12.7078 9.03688 12.8651 8.95822 13.0225 8.85334C13.0487 8.85334 13.0749 8.85334 13.0749 8.87956C13.0749 8.87956 13.0225 8.932 12.9962 8.932C12.8127 9.01066 12.7078 9.0631 12.5505 9.14177C12.4456 9.16799 12.3669 9.22043 12.2883 9.24665C12.1834 9.27287 12.1047 9.29909 11.9998 9.32531C11.9998 9.32531 11.9736 9.35153 11.9474 9.37775C11.9474 9.37775 11.9474 9.40398 11.9212 9.40398C11.7639 9.61374 11.6065 9.82351 11.4492 10.0333L11.2919 10.243C11.2657 10.2693 11.2657 10.2693 11.2919 10.243C11.3443 10.2168 11.3968 10.1906 11.4492 10.1644C11.6328 10.0595 11.8163 9.98084 11.9998 9.92839C12.1047 9.90217 12.1834 9.90217 12.2883 9.84973C12.3669 9.82351 12.4718 9.79729 12.5505 9.77107C12.734 9.69241 12.9176 9.61374 13.0487 9.50886C13.0749 9.50886 13.1011 9.50886 13.1011 9.50886C13.1273 9.53508 13.0487 9.58752 13.0487 9.58752C12.8651 9.69241 12.7603 9.77107 12.5767 9.82351C12.4718 9.87595 12.3932 9.90217 12.2883 9.92839C12.2096 9.95461 12.1047 9.98084 12.0261 10.0071C11.8425 10.0595 11.659 10.1382 11.4754 10.2168C11.3443 10.2955 11.2132 10.3741 11.0821 10.479C11.0559 10.5053 11.0297 10.5577 11.0035 10.5839C10.9772 10.5839 10.951 10.6101 10.9248 10.6364C10.7675 10.7937 10.6101 10.8986 10.4266 11.0297C10.4004 11.0297 10.4004 11.0559 10.4528 11.0559C10.5053 11.0559 10.5577 11.0559 10.5839 11.0559C10.7412 11.0559 10.8723 11.0297 11.0035 11.0035C11.1346 10.9772 11.2657 10.951 11.3968 10.8986C11.5279 10.8723 11.6328 10.8199 11.7639 10.7675C12.0261 10.6888 12.2883 10.6101 12.5505 10.5315C12.8127 10.4528 13.0749 10.3741 13.3371 10.2955C13.3633 10.2955 13.3896 10.2955 13.3896 10.3217C13.3896 10.3479 13.3109 10.3479 13.2847 10.3741C12.7603 10.479 12.3145 10.6364 11.7901 10.8199C11.659 10.8723 11.5279 10.9248 11.3968 10.951C11.2657 11.0035 11.1346 11.0297 11.0035 11.0821C10.8723 11.1083 10.7412 11.1346 10.6101 11.1346C10.5053 11.1346 10.4004 11.1608 10.2955 11.1346C10.243 11.1346 10.1906 11.1608 10.1644 11.1608C9.95461 11.2657 9.74485 11.3443 9.53508 11.3968C9.48264 11.423 9.4302 11.4492 9.37775 11.4492C9.35153 11.4492 9.32531 11.4754 9.35153 11.4754C9.48264 11.5016 9.58752 11.5541 9.69241 11.6065C9.79729 11.659 9.90217 11.7376 10.0071 11.8163C10.0595 11.8687 10.0857 11.9212 10.1382 11.9474C10.1644 11.9998 10.2168 12.0261 10.2693 12.0523C10.4528 12.2096 10.6626 12.3145 10.8723 12.3932C11.1083 12.4718 11.3181 12.5243 11.5541 12.5767C11.5803 12.5767 11.5803 12.6029 11.5803 12.6291L11.5541 12.6554C11.3181 12.6029 11.0821 12.5243 10.8461 12.4456C10.6364 12.3669 10.4004 12.2621 10.2168 12.1309C10.1644 12.0785 10.1119 12.0523 10.0857 11.9998C10.0333 11.9474 10.0071 11.9212 9.95461 11.8687C9.87595 11.8163 9.77107 11.7376 9.66618 11.6852C9.48264 11.6065 9.29909 11.5541 9.08932 11.5541C9.0631 11.5541 9.01066 11.5541 8.95822 11.5803C8.932 11.6065 8.87956 11.6065 8.82712 11.659C8.61735 11.7901 8.38136 11.9736 8.25026 12.2096C8.22403 12.2096 8.22403 12.2096 8.19781 12.2096ZM9.61374 14.7793C8.87956 14.9628 8.27648 14.6219 8.25026 14.1762C8.25026 13.7304 8.25026 13.3633 8.25026 13.3633C8.25026 12.9962 8.25026 12.5243 8.3027 12.3669C8.38136 12.2096 8.48624 12.2096 8.56491 12.2358C8.61735 12.2358 8.61735 12.2621 8.59113 12.3145C8.40758 12.7078 8.77467 12.734 8.85334 12.7865C8.932 12.8389 9.08932 12.4456 9.08932 12.4456C9.11555 12.4456 9.11555 12.6029 9.08932 12.6816C9.0631 12.7865 9.08932 12.97 9.19421 13.0749C9.27287 13.1798 9.37775 13.1011 9.4302 13.0225C9.48264 12.9176 9.53508 12.9176 9.58752 13.1273C9.61374 13.3371 9.79729 13.3633 9.87595 13.3109C9.95461 13.2847 9.98084 13.1273 10.0333 13.1011C10.0595 13.0749 10.1119 13.1536 10.1382 13.1798C10.1906 13.2322 10.1906 13.2584 10.2168 13.4158C10.2693 13.5993 10.7412 13.7304 10.8986 13.6518C11.0297 13.5731 10.8723 13.3371 10.7937 13.2322C10.7937 13.206 10.7937 13.206 10.8199 13.2322C10.8986 13.3371 11.0559 13.4944 11.1608 13.3896C11.3443 13.2847 11.1346 13.1798 11.1083 13.1536C11.1083 13.1011 11.1608 13.1011 11.2394 13.1536C11.3443 13.206 11.6328 13.3633 11.8425 13.2847C12.0523 13.206 11.659 13.0749 11.8163 13.1011C11.9474 13.1011 12.1834 13.1798 12.3145 12.97C12.4194 12.8127 12.1572 12.7603 12.0261 12.734C11.9736 12.734 11.9736 12.7078 12.0261 12.7078C12.1309 12.6816 12.3145 12.6291 12.3407 12.5243C12.3669 12.4194 11.9998 12.3669 12.1309 12.3407C12.2621 12.2883 12.2096 12.1834 11.9736 11.9998C11.7639 11.8163 11.2919 11.5016 11.3705 11.5279C11.4492 11.5541 12.1309 11.6852 12.3407 11.7376C12.5505 11.7901 12.9962 11.7376 13.0749 11.5803C13.1798 11.4492 12.9438 11.3181 12.9962 11.2394C13.0749 11.1608 12.8914 11.0559 12.9438 11.0821C12.9962 11.0821 13.3109 11.2919 13.3896 11.2132C13.4944 11.1083 13.2847 11.0035 13.3371 11.0035C13.3896 11.0297 13.7566 11.0297 13.7566 10.8723C13.7566 10.7412 13.4158 10.6888 13.2584 10.6888C13.2322 10.6888 13.2322 10.6888 13.2584 10.6888C13.3371 10.6626 13.442 10.6626 13.5207 10.6888C13.6255 10.6888 13.8615 10.6626 13.914 10.5839C13.9664 10.5577 13.8878 10.5053 13.8353 10.5053C13.7829 10.479 13.7829 10.479 13.8353 10.4528C13.8878 10.4266 13.9664 10.3741 14.0189 10.2693C14.0713 10.1644 13.9926 10.1119 13.914 10.0857C13.8615 10.0857 13.8615 10.0595 13.8878 10.0071C13.914 9.95461 13.9402 9.87595 13.914 9.77107C13.914 9.74485 13.8878 9.69241 13.8615 9.66618C13.7042 9.53508 13.2584 9.74485 13.4158 9.61374C13.5993 9.45642 13.3109 9.4302 13.3896 9.35153C13.4682 9.29909 13.6518 9.27287 13.7042 9.19421C13.7042 9.14177 13.678 9.08932 13.6518 9.0631C13.5731 8.98444 13.3896 8.95822 13.4682 8.87956C13.5207 8.82712 13.8091 8.56491 13.7042 8.35514C13.5993 8.22403 13.3633 8.32892 13.2322 8.38136C13.206 8.38136 13.206 8.38136 13.2322 8.35514C13.3633 8.22403 13.7566 7.85694 13.7042 7.75206C13.6518 7.64717 13.4944 7.69962 13.4158 7.72584C13.3896 7.72584 13.3633 7.72584 13.3896 7.69962C13.442 7.59473 13.5207 7.38497 13.442 7.28008C13.3633 7.20142 13.206 7.28008 13.1273 7.3063C13.1011 7.33252 13.0749 7.33252 13.1011 7.28008C13.1011 7.22764 13.0749 7.12276 13.0225 7.07031C12.9438 7.01787 12.734 7.41119 12.6291 7.54229C12.6029 7.59473 12.6029 7.56851 12.5767 7.54229C12.5767 7.38497 12.5243 7.04409 12.3932 6.99165C12.2358 6.96543 12.1047 7.33252 12.0785 7.48985C12.0523 7.51607 12.0523 7.51607 12.0523 7.48985C12.0523 7.35874 12.0523 7.1752 11.895 7.14898C11.7376 7.12276 11.6852 7.6734 11.6328 7.88316C11.6065 7.9356 11.5803 7.98805 11.5541 8.01427C11.423 8.14537 11.1346 8.25026 11.1608 7.96183C11.187 7.64717 10.9772 7.64717 10.8723 7.62095C10.7675 7.59473 10.7412 7.85694 10.6626 7.88316C10.6101 7.88316 10.5577 7.72584 10.4528 7.77828C10.3741 7.8045 10.3741 7.96183 10.3479 8.09293C10.3479 8.11915 10.3479 8.11915 10.3479 8.09293C10.3217 7.96183 10.243 7.88316 10.1906 7.9356C10.0857 7.98805 10.0857 8.22403 10.0857 8.22403C10.0857 8.19781 10.0333 8.11915 10.0071 8.14537C9.95461 8.17159 9.87595 8.46002 9.87595 8.46002C9.87595 8.4338 9.77107 8.17159 9.63996 8.25026C9.5613 8.3027 9.63996 8.48624 9.66618 8.64357C9.66618 8.66979 9.69241 8.72223 9.69241 8.77467C9.66618 8.87956 9.63996 8.98444 9.61374 9.0631C9.61374 9.08932 9.58752 9.08932 9.5613 9.0631C9.50886 8.95822 9.35153 8.72223 9.22043 8.74845C8.98444 8.80089 9.0631 9.19421 9.08932 9.32531C9.11555 9.37775 9.08932 9.37775 9.0631 9.35153C8.98444 9.29909 8.85334 9.22043 8.74845 9.32531C8.66979 9.4302 8.85334 9.63996 8.932 9.74485C8.95822 9.77107 8.95822 9.77107 8.932 9.74485C8.85334 9.69241 8.69601 9.58752 8.64357 9.66618C8.59113 9.77107 8.69601 9.90217 8.74845 9.98084C8.77467 10.0071 8.74845 10.0333 8.72223 10.0071C8.64357 9.98084 8.53869 9.92839 8.51246 10.0595C8.51246 10.1644 8.69601 10.2693 8.80089 10.3217C8.82712 10.3479 8.82712 10.3479 8.80089 10.3479C8.72223 10.3217 8.59113 10.3217 8.59113 10.3741C8.59113 10.479 8.82712 10.5577 8.98444 10.6364C9.16799 10.6888 9.29909 10.8199 9.29909 10.951C9.29909 11.0821 8.85334 11.0559 8.59113 11.3181C8.53869 11.3968 8.3027 11.5016 8.25026 11.5279C8.17159 11.5803 8.17159 10.4004 8.17159 9.35153C8.17159 8.3027 8.17159 8.11915 8.19781 8.09293C8.19781 8.04049 8.32892 7.83072 8.35514 7.83072C8.38136 7.8045 8.40758 7.8045 8.4338 7.8045C8.69601 7.6734 9.11555 7.90938 9.4302 8.06671C9.4302 8.09293 9.45642 8.09293 9.48264 8.11915C9.53508 8.11915 9.58752 8.11915 9.58752 8.11915C9.61374 8.11915 9.61374 8.11915 9.63996 8.11915C9.63996 8.11915 9.63996 8.09293 9.66618 8.09293C9.69241 8.09293 9.71863 8.11915 9.71863 8.11915C9.77107 8.14537 9.79729 8.17159 9.82351 8.17159C9.82351 8.17159 9.84973 8.11915 9.87595 8.09293C9.87595 8.06671 9.90217 8.04049 9.92839 8.04049C9.92839 8.01427 9.95461 8.01427 9.95461 8.01427C9.98084 8.01427 10.0071 7.96183 10.0333 7.90938C10.0595 7.88316 10.0857 7.85694 10.1119 7.83072C10.1382 7.8045 10.1906 7.77828 10.2168 7.77828C10.243 7.77828 10.243 7.77828 10.243 7.77828C10.2693 7.8045 10.2693 7.77828 10.2955 7.75206C10.2955 7.72584 10.2955 7.6734 10.2693 7.64717C10.243 7.62095 10.2693 7.62095 10.3217 7.62095C10.3479 7.64717 10.4004 7.64717 10.4004 7.64717C10.4266 7.64717 10.4528 7.62095 10.479 7.62095C10.5053 7.62095 10.5315 7.64717 10.5577 7.64717C10.6101 7.6734 10.6626 7.62095 10.715 7.54229C10.7412 7.51607 10.7937 7.48985 10.8723 7.48985C10.8723 7.48985 10.8986 7.48985 10.9248 7.48985C10.9248 7.48985 10.951 7.48985 10.951 7.51607C11.0035 7.51607 11.1083 7.54229 11.187 7.62095C11.2394 7.6734 11.2919 7.75206 11.3443 7.8045C11.3705 7.83072 11.423 7.8045 11.4492 7.8045C11.5016 7.77828 11.5279 7.72584 11.5279 7.69962C11.5279 7.6734 11.5279 7.64717 11.5541 7.62095C11.5541 7.62095 11.5541 7.59473 11.5541 7.56851C11.5541 7.54229 11.5541 7.48985 11.5541 7.43741C11.5279 7.38497 11.5279 7.35874 11.5541 7.35874C11.6328 7.33252 11.5541 7.1752 11.5803 7.04409C11.6065 6.88677 11.9474 6.88677 11.9474 6.677C11.9474 6.51968 11.6852 6.49345 11.5541 6.49345C11.5279 6.49345 11.5279 6.49345 11.5541 6.49345C11.6328 6.44101 11.7376 6.38857 11.7114 6.33613C11.7114 6.25747 11.5803 6.28369 11.1608 6.28369C10.7937 6.28369 10.1644 6.59834 9.98084 6.677C9.92839 6.70322 9.92839 6.70322 9.95461 6.677C10.3741 6.36235 11.0821 6.10014 11.3181 6.02148C11.5803 5.91659 11.7639 5.75927 11.7639 5.65439C11.7639 5.52328 11.5016 5.73305 11.5541 5.5495C11.6065 5.36596 11.9474 5.15619 11.7639 4.9202C11.6065 4.73665 11.2132 4.97264 11.0821 5.07753C11.0559 5.10375 11.0297 5.10375 11.0559 5.0513C11.187 4.81532 11.5279 4.39578 11.4754 4.2909C11.4492 4.18601 11.3181 4.23846 11.2394 4.26468C11.2132 4.2909 11.187 4.26468 11.2132 4.23846C11.2657 4.10735 11.3443 3.81892 11.2657 3.71404C11.1608 3.6616 11.0035 3.76648 10.9248 3.84514C10.8723 3.87136 10.8723 3.87136 10.8723 3.81892C10.8986 3.74026 10.9248 3.63538 10.8986 3.58293C10.8723 3.55671 10.7937 3.55671 10.7675 3.58293C10.6626 3.6616 10.5315 3.89758 10.479 4.00247C10.479 4.05491 10.4528 4.05491 10.4528 4.00247C10.4528 3.81892 10.4004 3.55671 10.2955 3.55671C10.1644 3.53049 10.0857 3.71404 9.98084 3.97625C9.87595 4.15979 9.79729 4.13357 9.69241 4.21224C9.66618 4.23846 9.63996 4.21224 9.63996 4.18601C9.66618 4.00247 9.79729 3.89758 9.74485 3.76648C9.74485 3.74026 9.69241 3.68782 9.66618 3.68782C9.53508 3.6616 9.37775 4.05491 9.19421 4.36956C8.98444 4.73665 8.85334 5.78549 8.82712 6.25747C8.80089 6.57212 8.61735 6.93921 8.46002 7.1752C8.4338 7.22764 8.4338 7.20142 8.4338 7.1752C8.4338 6.91299 8.40758 6.41479 8.53869 5.86415C8.61735 5.47084 8.72223 5.31351 8.87956 5.07753C8.90578 5.02508 8.932 4.97264 8.932 4.94642C9.01066 4.68421 9.0631 4.44822 9.14177 4.31712C9.19421 4.26468 9.22043 4.18601 9.27287 4.10735C9.45642 3.76648 9.50886 3.58293 9.66618 3.58293C9.69241 3.58293 9.71863 3.53049 9.71863 3.45183C9.71863 3.39939 9.79729 3.32072 9.69241 3.32072C9.61374 3.32072 9.37775 3.55671 9.27287 3.68782C9.27287 3.71404 9.24665 3.71404 9.27287 3.6616C9.4302 3.39939 9.58752 2.90119 9.4302 2.79631C9.27287 2.71764 8.95822 3.11096 8.85334 3.2945C8.82712 3.32072 8.82712 3.32072 8.85334 3.26828C8.95822 2.95363 9.11555 2.77009 9.0631 2.69142C8.95822 2.56032 8.74845 2.74386 8.66979 2.82253C8.66979 2.84875 8.64357 2.84875 8.66979 2.82253C8.69601 2.69142 8.80089 2.45543 8.72223 2.37677C8.64357 2.27189 8.46002 2.48166 8.38136 2.6652C8.35514 2.69142 8.35514 2.69142 8.38136 2.6652C8.4338 2.5341 8.48624 2.35055 8.40758 2.27189C8.32892 2.21945 8.25026 2.35055 8.22403 2.42921C8.19781 2.48166 8.19781 2.48166 8.19781 2.42921C8.22403 2.167 8.14537 1.93102 8.01427 1.95724C7.90938 1.98346 7.8045 2.167 7.8045 2.42921C7.83072 2.48166 7.8045 2.48166 7.8045 2.42921C7.75206 2.35055 7.6734 2.21945 7.59473 2.27189C7.54229 2.35055 7.59473 2.5341 7.62095 2.6652C7.64717 2.69142 7.64717 2.69142 7.62095 2.6652C7.54229 2.48166 7.41119 2.21945 7.3063 2.32433C7.22764 2.40299 7.3063 2.69142 7.35874 2.82253C7.35874 2.84875 7.35874 2.84875 7.33252 2.82253C7.25386 2.74386 7.09654 2.58654 6.99165 2.69142C6.93921 2.79631 7.04409 2.95363 7.1752 3.26828C7.1752 3.32072 7.1752 3.32072 7.14898 3.2945C7.04409 3.11096 6.72944 2.61276 6.59834 2.74386C6.44101 2.87497 6.59834 3.39939 6.72944 3.6616C6.75566 3.71404 6.75566 3.71404 6.72944 3.6616C6.65078 3.53049 6.41479 3.21584 6.33613 3.26828C6.25747 3.32072 6.28369 3.39939 6.28369 3.45183C6.28369 3.53049 6.30991 3.58293 6.33613 3.58293C6.33613 3.58293 6.33613 3.58293 6.36235 3.58293C6.49345 3.58293 6.5459 3.76648 6.72944 4.10735C6.78188 4.18601 6.80811 4.26468 6.86055 4.31712C6.93921 4.44822 7.01787 4.68421 7.07031 4.94642C7.07031 4.97264 7.09654 5.02508 7.12276 5.07753C7.28008 5.31351 7.38497 5.47084 7.46363 5.86415C7.59473 6.41479 7.56851 6.91299 7.59473 7.1752C7.59473 7.20142 7.56851 7.22764 7.54229 7.1752C7.41119 6.93921 7.20142 6.57212 7.1752 6.25747C7.1752 5.78549 7.01787 4.73665 6.83433 4.36956C6.65078 4.05491 6.46723 3.6616 6.33613 3.68782C6.30991 3.68782 6.25747 3.74026 6.25747 3.76648C6.20502 3.89758 6.33613 4.00247 6.36235 4.18601C6.36235 4.21224 6.33613 4.23846 6.30991 4.21224C6.23125 4.13357 6.0477 3.97625 5.94282 3.7927C5.83793 3.53049 5.83793 3.50427 5.73305 3.55671C5.62816 3.58293 5.5495 3.81892 5.5495 4.00247C5.5495 4.05491 5.5495 4.05491 5.52328 4.00247C5.44462 3.87136 5.26107 3.50427 5.18241 3.55671C5.07753 3.58293 5.10375 3.74026 5.12997 3.81892C5.12997 3.87136 5.12997 3.87136 5.10375 3.84514C5.02508 3.76648 4.84154 3.6616 4.76287 3.71404C4.65799 3.81892 4.76287 4.10735 4.7891 4.23846C4.81532 4.26468 4.7891 4.26468 4.76287 4.26468C4.71043 4.21224 4.60555 4.15979 4.55311 4.21224C4.52689 4.23846 4.52689 4.31712 4.52689 4.34334C4.57933 4.52689 4.84154 4.84154 4.94642 5.0513C4.97264 5.10375 4.94642 5.10375 4.9202 5.07753C4.7891 4.97264 4.39578 4.73665 4.23846 4.9202C4.05491 5.15619 4.422 5.36596 4.44822 5.5495C4.50067 5.68061 4.34334 5.5495 4.26468 5.57572C4.23846 5.60194 4.23846 5.68061 4.23846 5.70683C4.26468 5.86415 4.47444 5.94282 4.68421 6.02148C4.9202 6.10014 5.62816 6.36235 6.0477 6.677C6.07392 6.70322 6.07392 6.70322 6.0477 6.677C5.83793 6.59834 5.23485 6.28369 4.86776 6.28369C4.422 6.28369 4.31712 6.20502 4.2909 6.33613C4.26468 6.41479 4.36956 6.46723 4.44822 6.49345C4.47444 6.49345 4.47444 6.49345 4.44822 6.49345C4.31712 6.49345 4.05491 6.51968 4.05491 6.677C4.05491 6.88677 4.39578 6.88677 4.422 7.04409C4.44822 7.1752 4.36956 7.33252 4.44822 7.35874C4.47444 7.35874 4.47444 7.38497 4.47444 7.43741C4.44822 7.48985 4.44822 7.54229 4.44822 7.56851C4.44822 7.59473 4.44822 7.62095 4.47444 7.62095C4.47444 7.64717 4.47444 7.6734 4.47444 7.69962C4.47444 7.72584 4.50067 7.77828 4.55311 7.8045C4.57933 7.8045 4.63177 7.83072 4.65799 7.8045C4.71043 7.75206 4.76287 7.6734 4.84154 7.62095C4.89398 7.54229 4.99886 7.51607 5.0513 7.51607C5.0513 7.48985 5.07753 7.48985 5.07753 7.48985C5.10375 7.48985 5.12997 7.48985 5.15619 7.48985C5.20863 7.48985 5.26107 7.51607 5.28729 7.54229C5.33973 7.62095 5.39218 7.6734 5.44462 7.64717C5.47084 7.64717 5.49706 7.62095 5.52328 7.62095C5.5495 7.62095 5.57572 7.64717 5.60194 7.64717C5.60194 7.64717 5.65439 7.64717 5.70683 7.62095C5.73305 7.62095 5.75927 7.62095 5.73305 7.64717C5.70683 7.6734 5.70683 7.72584 5.70683 7.75206C5.73305 7.77828 5.75927 7.8045 5.75927 7.77828H5.78549C5.83793 7.77828 5.86415 7.8045 5.89037 7.83072C5.94282 7.85694 5.96904 7.88316 5.96904 7.90938C5.99526 7.96183 6.0477 8.01427 6.0477 8.01427C6.07392 8.01427 6.07392 8.01427 6.10014 8.04049C6.10014 8.04049 6.12636 8.06671 6.15258 8.09293C6.15258 8.11915 6.1788 8.17159 6.20502 8.17159C6.20502 8.17159 6.23125 8.14537 6.28369 8.11915C6.30991 8.11915 6.33613 8.09293 6.36235 8.09293C6.36235 8.09293 6.36235 8.11915 6.38857 8.11915H6.41479C6.44101 8.11915 6.46723 8.11915 6.51968 8.11915C6.5459 8.09293 6.57212 8.09293 6.59834 8.06671C6.88677 7.90938 7.3063 7.6734 7.56851 7.8045C7.59473 7.8045 7.62095 7.8045 7.64717 7.83072C7.69962 7.83072 7.8045 8.04049 7.83072 8.09293C7.83072 8.11915 7.83072 8.4338 7.83072 9.35153C7.83072 10.2693 7.85694 11.5803 7.75206 11.5279C7.69962 11.5016 7.46363 11.3968 7.41119 11.3181C7.14898 11.0559 6.70322 11.0821 6.70322 10.951C6.70322 10.8199 6.83433 10.6888 7.01787 10.6364C7.20142 10.5577 7.41119 10.5315 7.41119 10.3741C7.41119 10.2955 7.3063 10.3217 7.22764 10.3479C7.1752 10.3479 7.1752 10.3479 7.22764 10.3217C7.3063 10.2955 7.51607 10.1906 7.51607 10.0857C7.48985 9.98084 7.35874 9.98084 7.28008 10.0071C7.25386 10.0333 7.25386 10.0333 7.28008 10.0071C7.33252 9.92839 7.43741 9.79729 7.35874 9.66618C7.3063 9.58752 7.14898 9.69241 7.07031 9.74485C7.04409 9.77107 7.04409 9.77107 7.07031 9.74485C7.14898 9.63996 7.28008 9.4302 7.20142 9.29909C7.12276 9.19421 6.99165 9.29909 6.93921 9.35153C6.91299 9.37775 6.88677 9.37775 6.91299 9.32531C6.91299 9.19421 6.96543 8.82712 6.78188 8.74845C6.5459 8.66979 6.49345 8.98444 6.49345 9.14177C6.49345 9.16799 6.46723 9.16799 6.44101 9.14177C6.41479 9.0631 6.33613 8.87956 6.33613 8.77467C6.33613 8.72223 6.33613 8.66979 6.33613 8.64357C6.38857 8.48624 6.51968 8.25026 6.36235 8.25026C6.20502 8.22403 6.15258 8.4338 6.12636 8.46002C6.12636 8.46002 6.0477 8.17159 6.02148 8.14537C5.96904 8.11915 5.91659 8.19781 5.91659 8.22403C5.91659 8.22403 5.91659 7.98805 5.83793 7.9356C5.75927 7.88316 5.68061 7.96183 5.65439 8.09293C5.65439 8.11915 5.65439 8.11915 5.65439 8.09293C5.65439 7.96183 5.62816 7.8045 5.5495 7.77828C5.47084 7.72584 5.39218 7.88316 5.33973 7.88316C5.26107 7.85694 5.23485 7.59473 5.12997 7.62095C5.02508 7.64717 4.84154 7.64717 4.84154 7.96183C4.86776 8.25026 4.57933 8.14537 4.44822 8.01427C4.422 7.98805 4.39578 7.9356 4.39578 7.88316C4.31712 7.6734 4.26468 7.12276 4.10735 7.14898C3.97625 7.1752 3.95003 7.35874 3.95003 7.48985C3.95003 7.51607 3.95003 7.51607 3.95003 7.48985C3.92381 7.33252 3.81892 6.93921 3.63538 6.99165C3.42561 7.04409 3.39939 7.38497 3.39939 7.54229C3.39939 7.56851 3.39939 7.59473 3.37317 7.54229C3.2945 7.43741 3.1634 7.20142 3.03229 7.09654C3.00607 7.09654 2.95363 7.07031 2.92741 7.09654C2.90119 7.14898 2.90119 7.22764 2.90119 7.28008C2.92741 7.33252 2.90119 7.33252 2.87497 7.3063C2.82253 7.22764 2.69142 7.14898 2.58654 7.28008C2.48166 7.43741 2.56032 7.62095 2.61276 7.69962C2.63898 7.72584 2.63898 7.72584 2.58654 7.72584C2.50788 7.6734 2.35055 7.59473 2.29811 7.75206C2.24567 7.90938 2.63898 8.25026 2.77009 8.35514C2.79631 8.38136 2.79631 8.38136 2.77009 8.38136C2.6652 8.3027 2.40299 8.17159 2.32433 8.35514C2.21945 8.61735 2.48166 8.82712 2.56032 8.87956C2.61276 8.95822 2.40299 8.932 2.32433 9.0631C2.32433 9.08932 2.29811 9.14177 2.32433 9.19421C2.35055 9.32531 2.5341 9.29909 2.61276 9.35153C2.71764 9.4302 2.40299 9.45642 2.58654 9.61374C2.74386 9.74485 2.32433 9.53508 2.14078 9.66618C2.11456 9.69241 2.08834 9.74485 2.08834 9.77107C2.06212 9.87595 2.08834 9.95461 2.11456 10.0071C2.14078 10.0595 2.14078 10.0857 2.08834 10.0857C2.0359 10.1119 1.93102 10.1644 1.98346 10.2693C2.0359 10.3741 2.14078 10.4266 2.19323 10.4528C2.21945 10.479 2.21945 10.479 2.19323 10.5053C2.11456 10.5053 2.06212 10.5577 2.08834 10.5839C2.14078 10.6626 2.37677 10.6888 2.48166 10.6888C2.56032 10.6626 2.6652 10.6626 2.74386 10.6888C2.77009 10.6888 2.77009 10.6888 2.74386 10.6888C2.58654 10.6888 2.24567 10.7412 2.24567 10.8723C2.24567 11.0297 2.63898 11.0297 2.6652 11.0035C2.71764 11.0035 2.50788 11.1083 2.61276 11.2132C2.71764 11.2919 3.00607 11.0821 3.05852 11.0821C3.11096 11.0559 2.92741 11.1608 3.00607 11.2394C3.08474 11.3181 2.82253 11.4492 2.92741 11.5803C3.03229 11.7376 3.47805 11.7639 3.68782 11.6852C3.89758 11.6328 4.57933 11.5541 4.63177 11.5279C4.71043 11.5016 4.31712 11.8687 4.02869 11.9736C3.68782 12.0785 3.74026 12.2883 3.87136 12.3407C4.02869 12.3669 3.63538 12.4194 3.68782 12.5243C3.71404 12.6291 3.89758 12.6816 3.97625 12.7078C4.02869 12.7078 4.02869 12.734 3.97625 12.734C3.84514 12.7603 3.58293 12.8127 3.68782 12.97C3.81892 13.1798 4.05491 13.1011 4.21224 13.1011C4.36956 13.0749 3.95003 13.206 4.15979 13.2847C4.36956 13.3633 4.68421 13.206 4.76287 13.1536C4.86776 13.1011 4.89398 13.1011 4.89398 13.1536C4.89398 13.1798 4.65799 13.2847 4.84154 13.3896C4.97264 13.4944 5.12997 13.3371 5.20863 13.2322C5.23485 13.206 5.23485 13.206 5.20863 13.2322C5.12997 13.3371 4.97264 13.5731 5.10375 13.6518C5.26107 13.7304 5.73305 13.5993 5.78549 13.4158C5.81171 13.2584 5.83793 13.2322 5.89037 13.1798C5.91659 13.1536 5.94282 13.0749 5.96904 13.1011C6.02148 13.1273 6.0477 13.2847 6.12636 13.3109C6.23125 13.3633 6.38857 13.3371 6.44101 13.1273C6.46723 12.9176 6.5459 12.9176 6.59834 13.0225C6.65078 13.1011 6.72944 13.1798 6.80811 13.0749C6.91299 12.97 6.93921 12.7865 6.91299 12.6816C6.91299 12.6029 6.91299 12.4456 6.91299 12.4456C6.93921 12.4456 7.07031 12.8389 7.14898 12.7865C7.25386 12.734 7.59473 12.7078 7.41119 12.3145C7.38497 12.2621 7.41119 12.2358 7.43741 12.2358C7.51607 12.2096 7.64717 12.2096 7.69962 12.3669C7.77828 12.5243 7.77828 12.9962 7.75206 13.3633V14.1762C7.75206 14.6219 7.12276 14.9628 6.38857 14.7793C3.32072 14.0713 1.03951 11.2919 1.03951 8.01427C1.03951 4.15979 4.15979 1.03951 8.01427 1.03951C11.8425 1.03951 14.989 4.15979 14.989 8.01427C14.989 11.2919 12.6816 14.0713 9.61374 14.7793Z" fill="#21A73F"/>
<path d="M15.8669 7.55427C16.0793 7.31655 16.0262 6.97317 15.7873 6.78828C15.5483 6.60338 15.4687 6.20718 15.6014 5.94305C15.7607 5.67891 15.6545 5.33553 15.3625 5.20347C15.0969 5.0714 14.9376 4.70161 15.0173 4.41106C15.0969 4.12051 14.9111 3.80355 14.619 3.75072C14.327 3.67148 14.088 3.35452 14.1145 3.03756C14.1411 2.74701 13.9021 2.48287 13.5835 2.45646C13.2914 2.45646 12.9994 2.19232 12.9463 1.87536C12.8932 1.58481 12.6011 1.3735 12.309 1.42633C12.017 1.47916 11.6718 1.29426 11.5656 1.00371C11.4594 0.713166 11.1408 0.554684 10.8487 0.686752C10.5567 0.792406 10.1849 0.660338 10.0256 0.422617C9.86632 0.158481 9.52116 0.0792406 9.25564 0.237722C8.99013 0.422617 8.61841 0.36979 8.37945 0.158481C8.16704 -0.0528271 7.82187 -0.0528271 7.60946 0.158481C7.39705 0.36979 6.99878 0.422617 6.73326 0.237722C6.4943 0.0792406 6.14913 0.158481 5.96327 0.422617C5.80396 0.660338 5.43224 0.792406 5.16673 0.686752C4.87467 0.554684 4.55605 0.713166 4.42329 1.00371C4.31709 1.29426 3.99847 1.47916 3.67985 1.42633C3.38779 1.3735 3.09572 1.58481 3.04262 1.87536C3.01607 2.19232 2.724 2.45646 2.40539 2.45646C2.11332 2.48287 1.87436 2.74701 1.87436 3.03756C1.90091 3.35452 1.66195 3.67148 1.36988 3.75072C1.07782 3.80355 0.89196 4.12051 0.971614 4.41106C1.05127 4.70161 0.89196 5.0714 0.626446 5.20347C0.360933 5.33553 0.254727 5.67891 0.387484 5.94305C0.520241 6.20718 0.440587 6.60338 0.201624 6.78828C-0.0373379 6.97317 -0.0638892 7.31655 0.12197 7.55427C0.30783 7.79199 0.30783 8.1882 0.12197 8.42592C-0.0638892 8.66364 -0.0373379 9.00702 0.201624 9.19191C0.440587 9.40322 0.520241 9.77301 0.387484 10.0371C0.254727 10.3277 0.360933 10.6447 0.626446 10.7767C0.89196 10.9352 1.05127 11.2786 0.971614 11.5691C0.89196 11.8597 1.07782 12.1766 1.36988 12.2559C1.66195 12.3351 1.90091 12.6521 1.87436 12.9426C1.87436 13.2596 2.11332 13.5237 2.40539 13.5237C2.724 13.5501 3.01607 13.7879 3.04262 14.1048C3.09572 14.3954 3.38779 14.6067 3.67985 14.5539C3.99847 14.501 4.31709 14.7123 4.42329 15.0029C4.55605 15.267 4.87467 15.4255 5.16673 15.3199C5.43224 15.1878 5.80396 15.3199 5.96327 15.584C6.14913 15.8217 6.4943 15.9009 6.73326 15.7425C6.99878 15.5576 7.39705 15.6104 7.60946 15.8217C7.82187 16.0594 8.16704 16.0594 8.37945 15.8217C8.61841 15.6104 8.99013 15.5576 9.25564 15.7425C9.52116 15.9009 9.86632 15.8217 10.0256 15.584C10.1849 15.3199 10.5567 15.1878 10.8487 15.3199C11.1408 15.4255 11.4594 15.267 11.5656 15.0029C11.6718 14.7123 12.017 14.501 12.309 14.5539C12.6011 14.6067 12.8932 14.3954 12.9463 14.1048C12.9994 13.7879 13.2914 13.5501 13.5835 13.5237C13.9021 13.5237 14.1411 13.2596 14.1145 12.9426C14.088 12.6521 14.327 12.3351 14.619 12.2559C14.9111 12.1766 15.0969 11.8597 15.0173 11.5691C14.9376 11.2786 15.0969 10.9352 15.3625 10.7767C15.6545 10.6447 15.7607 10.3277 15.6014 10.0371C15.4687 9.77301 15.5483 9.40322 15.7873 9.19191C16.0262 9.00702 16.0793 8.66364 15.8669 8.42592C15.6811 8.1882 15.6811 7.79199 15.8669 7.55427ZM8.00773 15.6104C3.78606 15.6104 0.360933 12.2031 0.360933 8.0033C0.360933 3.80355 3.78606 0.396203 8.00773 0.396203C12.2294 0.396203 15.6545 3.80355 15.6545 8.0033C15.6545 12.2031 12.2294 15.6104 8.00773 15.6104Z" fill="#E85222"/>
</svg>
