<svg width="32" height="32" viewBox="0 0 32 32" fill="none" xmlns="http://www.w3.org/2000/svg">
<path d="M16.0285 1.1875C7.84761 1.1875 1.1875 7.84761 1.1875 16.0285C1.1875 24.2095 7.84761 30.8171 16.0285 30.8171C24.2095 30.8171 30.8171 24.2095 30.8171 16.0285C30.8171 7.84761 24.2095 1.1875 16.0285 1.1875ZM15.609 24.4192H15.5566C15.2943 23.9472 14.7699 23.5802 14.3504 23.3179C14.298 23.2131 14.1931 23.2131 14.0882 23.1606C14.0357 23.1082 13.8784 23.1082 13.826 23.1082C13.4589 23.1082 13.0394 23.2131 12.7247 23.3704C12.5149 23.4753 12.3052 23.6326 12.1478 23.7375C12.043 23.8424 11.9381 23.8948 11.8856 23.9997C11.7807 24.1046 11.6759 24.157 11.571 24.2619C11.2039 24.5241 10.7319 24.7339 10.3124 24.8912C9.8404 25.0485 9.63063 25.101 9.15866 25.2059L8.84401 25.2583C8.84401 25.2059 8.84401 25.1534 8.89645 25.1534C9.36842 25.0485 9.8404 24.9436 10.2599 24.7863C10.7319 24.629 11.1514 24.4192 11.5185 24.1046C11.6234 24.0521 11.6759 23.9997 11.7807 23.8948C11.8332 23.8424 11.9381 23.7375 12.043 23.6326C12.2003 23.4753 12.41 23.3179 12.6198 23.2131C12.8296 23.1082 13.0918 23.0033 13.3016 22.9509H13.354C13.354 22.9509 13.3016 22.8984 13.2491 22.8984C13.1442 22.8984 13.0394 22.846 12.9345 22.7935C12.5149 22.6886 12.0954 22.5313 11.7283 22.3216C11.6234 22.3216 11.5185 22.2691 11.4661 22.2691C11.2563 22.3216 11.0466 22.2691 10.8368 22.2691C10.5221 22.2691 10.2599 22.2167 9.99773 22.1642C9.73552 22.0593 9.47331 22.0069 9.2111 21.902C8.94889 21.8496 8.68668 21.7447 8.42447 21.6398C7.42808 21.2727 6.58901 21.0105 5.54017 20.7483C5.48773 20.7483 5.22552 20.6959 5.27796 20.6434C5.27796 20.591 5.27796 20.591 5.3304 20.591C5.85482 20.7483 6.37924 20.9056 6.90366 21.0629C7.42808 21.2203 7.95249 21.3776 8.47691 21.5349C8.73912 21.6398 9.00133 21.7447 9.26354 21.7971C9.52575 21.902 9.78796 21.9545 10.0502 22.0069C10.3124 22.0593 10.5746 22.1118 10.8368 22.1118C10.9417 22.1118 11.0466 22.1118 11.1514 22.1118C11.2039 22.1118 11.2039 22.0593 11.1514 22.0593C10.7844 21.7971 10.4697 21.5874 10.1551 21.2727C10.1026 21.2203 10.1026 21.1678 10.0502 21.1678C9.99773 21.1154 9.89284 21.0105 9.8404 20.9581C9.57819 20.7483 9.31598 20.591 9.05377 20.4336C8.73912 20.2763 8.37203 20.119 8.00494 20.0141C7.79517 19.9617 7.63784 19.9092 7.42808 19.8568C7.27075 19.8043 7.06098 19.7519 6.85122 19.647C6.53657 19.5421 6.3268 19.4373 6.01215 19.2275C5.95971 19.175 5.80238 19.0702 5.80238 19.0177C5.80238 19.0177 5.85482 19.0177 5.90726 19.0177C6.22191 19.2275 6.58901 19.3848 6.90366 19.5421C7.11343 19.5946 7.27075 19.647 7.48052 19.6995C7.63784 19.8043 7.84761 19.8043 8.05738 19.8568C8.42447 19.9617 8.79156 20.119 9.10621 20.3288C9.2111 20.3812 9.31598 20.4336 9.42087 20.4861C9.47331 20.5385 9.52575 20.5385 9.47331 20.4861L9.15866 20.0666C8.84401 19.647 8.47691 19.2275 8.16226 18.808L8.10982 18.7555C8.05738 18.7031 8.00494 18.6506 8.00494 18.6506C7.84761 18.5982 7.63784 18.5457 7.48052 18.4933C7.27075 18.4409 7.11343 18.336 6.9561 18.2835C6.58901 18.1262 6.37924 18.0738 6.06459 17.9164C6.01215 17.9164 5.85482 17.7591 5.90726 17.7591C5.90726 17.7067 5.95971 17.7067 5.95971 17.7067C6.27436 17.9164 6.64145 18.0738 6.9561 18.1786C7.21831 18.2835 7.48052 18.3884 7.74273 18.4409C7.84761 18.4409 7.84761 18.4409 7.79517 18.3884C7.27075 17.7067 6.85122 17.1298 6.3268 16.4481C6.27436 16.4481 6.16947 16.2907 6.16947 16.2907C6.22191 16.2383 6.27436 16.2907 6.27436 16.2907L8.26715 18.7555C8.5818 19.175 8.94889 19.5421 9.26354 19.9617C9.42087 20.1714 9.57819 20.3812 9.73552 20.591C9.73552 20.591 9.73552 20.591 9.78796 20.6434C9.78796 20.6434 9.78796 20.591 9.8404 20.5385C9.8404 20.4336 9.8404 20.2763 9.78796 20.1714C9.78796 19.9617 9.73552 19.7519 9.68307 19.5421C9.52575 19.1226 9.31598 18.7555 9.10621 18.3884C8.84401 18.0213 8.63424 17.6018 8.52935 17.1823C8.37203 16.7627 8.31959 16.3432 8.37203 15.8712C8.42447 15.8712 8.42447 15.8712 8.42447 15.8712C8.42447 16.3432 8.47691 16.7627 8.5818 17.1823C8.73912 17.6018 8.89645 17.9689 9.15866 18.336C9.42087 18.7031 9.63063 19.0702 9.78796 19.4897C9.8404 19.6995 9.89284 19.9617 9.94528 20.1714C9.94528 20.3288 9.94528 20.4861 9.94528 20.6434C9.94528 20.6959 9.94528 20.8007 9.99773 20.8532C10.1026 20.9581 10.2075 21.0629 10.2599 21.1678C10.6795 21.4825 11.099 21.7971 11.571 22.0069C11.7807 22.1118 11.9905 22.2167 12.2003 22.2691C12.3052 22.3216 12.3052 22.2691 12.2527 22.2167C12.0954 21.9545 11.8856 21.6923 11.7283 21.43C11.4661 20.9581 11.2563 20.5385 11.099 20.0666C10.8892 19.5946 10.7319 19.1226 10.5746 18.6506C10.4697 18.1786 10.4697 17.8116 10.4697 17.3396C10.4697 17.2871 10.4697 17.0774 10.5221 17.1298C10.5221 17.1298 10.5746 17.1298 10.5746 17.1823C10.5221 17.6542 10.5746 18.1262 10.7319 18.5982C10.8368 19.1226 10.9941 19.5421 11.2039 20.0141C11.4137 20.4861 11.6234 20.9056 11.8856 21.3252C12.0954 21.6923 12.3576 22.0069 12.6198 22.3216C12.6198 22.374 12.7247 22.4789 12.8296 22.4789C12.882 22.4789 12.9345 22.5313 12.9869 22.5313C13.2491 22.5838 13.5113 22.7411 13.7735 22.7935C14.0357 22.846 14.298 22.9509 14.5077 23.1082C14.9797 23.4753 15.4517 23.8424 15.6614 24.3668C15.6614 24.3668 15.6614 24.4192 15.609 24.4192ZM16.1334 12.6723C16.1334 12.7247 16.1334 13.7735 16.1334 13.7735C16.1334 14.1931 16.1859 14.6126 16.081 15.0846C16.081 15.0846 16.081 15.0846 16.0285 15.0846C16.0285 15.137 16.0285 15.137 16.0285 15.137H15.9761C15.9761 15.0846 15.9237 15.0846 15.9237 15.0846C15.8712 14.6126 15.8712 14.1931 15.8712 13.7735C15.8712 13.7735 15.8712 12.7247 15.8712 12.6723C15.9237 12.3052 15.8712 11.8332 15.7139 11.5185C15.5566 11.1514 15.3992 10.7319 15.1895 10.4173C14.9797 10.0502 14.7699 9.68307 14.6126 9.31598C14.5077 9.15866 14.4028 8.94889 14.3504 8.73912C14.298 8.5818 14.2455 8.42447 14.2455 8.2147C14.1931 8.2147 14.1931 8.10982 14.2455 8.05738L14.298 8.10982C14.3504 8.52935 14.5602 8.89645 14.7175 9.26354C14.8748 9.63063 15.0846 9.99773 15.3468 10.3124C15.5566 10.627 15.7139 10.9417 15.8712 11.3088C15.8712 11.3612 15.8712 11.3612 15.8712 11.3088L15.9237 10.1551C15.9237 10.1026 15.9237 9.94528 15.9237 9.89284C15.8712 9.68307 15.7663 9.47331 15.7139 9.26354C15.5566 8.94889 15.3468 8.68668 15.0846 8.42447C14.8748 8.16226 14.6126 7.95249 14.4028 7.63784C14.1931 7.37563 14.0357 7.16587 13.9309 6.79877C13.8784 6.79877 13.8784 6.69389 13.9309 6.69389H13.9833C14.0882 7.00854 14.298 7.32319 14.5077 7.5854C14.7175 7.84761 14.9273 8.10982 15.1895 8.37203C15.3992 8.63424 15.6614 8.89645 15.8188 9.2111C15.8188 9.26354 15.8712 9.31598 15.8712 9.42087C15.9237 9.47331 15.9237 9.47331 15.9237 9.36842C15.9237 9.00133 15.9237 8.5818 15.9237 8.2147C15.9761 8.10982 15.9237 8.05738 15.9237 8.05738C15.9237 8.05738 15.9237 8.00494 15.9237 7.90005C15.8712 7.74273 15.8188 7.5854 15.7663 7.42808C15.6614 7.32319 15.609 7.21831 15.5566 7.16587C15.4517 7.06098 15.3468 7.06098 15.2419 7.00854C15.0321 6.85122 14.8748 6.69389 14.7699 6.48412C14.6126 6.3268 14.5602 6.16947 14.4553 5.95971V5.85482H14.5077C14.5602 6.06459 14.665 6.27436 14.8224 6.48412C14.9273 6.58901 15.0321 6.74633 15.1895 6.85122C15.2419 6.90366 15.3468 6.9561 15.3992 7.00854C15.5566 7.06098 15.7139 7.21831 15.8188 7.37563C15.8712 7.42808 15.8712 7.42808 15.8712 7.48052C15.9237 7.5854 15.9761 7.53296 15.9761 7.48052C15.9761 7.37563 15.9761 7.27075 15.9761 7.16587C15.9761 6.9561 15.9761 6.69389 15.9761 6.48412C15.9761 6.43168 15.9237 6.37924 15.8712 6.37924C15.8188 6.37924 15.8188 6.3268 15.7663 6.3268C15.6614 6.3268 15.609 6.3268 15.5041 6.27436C15.3468 6.16947 15.2943 6.11703 15.2419 5.95971C15.2419 5.90726 15.1895 5.85482 15.2419 5.85482H15.2943C15.2943 5.90726 15.3468 6.01215 15.3992 6.06459C15.4517 6.11703 15.5041 6.16947 15.5566 6.22191C15.6614 6.22191 15.7139 6.27436 15.8188 6.27436C15.8712 6.27436 15.9761 6.22191 15.9761 6.16947C15.9761 5.59261 15.9761 5.17308 15.9761 4.64866C15.9761 4.59622 15.9761 4.43889 16.0285 4.43889C16.081 4.43889 16.081 4.49133 16.081 4.54378C16.081 5.06819 16.081 5.59261 16.081 6.16947C16.081 6.22191 16.1334 6.27436 16.1859 6.27436C16.2907 6.27436 16.3956 6.22191 16.4481 6.22191C16.5005 6.16947 16.6054 6.11703 16.6578 6.06459C16.6578 6.01215 16.7103 5.90726 16.7627 5.85482C16.7627 5.85482 16.7627 5.85482 16.8152 5.85482V5.95971C16.7103 6.11703 16.6578 6.16947 16.5005 6.27436C16.4481 6.3268 16.3432 6.3268 16.2383 6.3268L16.1859 6.37924C16.1334 6.37924 16.081 6.43168 16.081 6.48412C16.081 6.69389 16.081 6.9561 16.081 7.16587C16.081 7.27075 16.081 7.37563 16.081 7.48052C16.081 7.53296 16.081 7.5854 16.1334 7.48052C16.1334 7.42808 16.1859 7.42808 16.1859 7.37563C16.2907 7.21831 16.4481 7.06098 16.6054 7.00854C16.6578 6.9561 16.8152 6.90366 16.8676 6.85122C16.9725 6.74633 17.1298 6.58901 17.2347 6.48412C17.3396 6.27436 17.4445 6.06459 17.5493 5.85482C17.6018 5.85482 17.5493 5.90726 17.5493 5.95971C17.4445 6.16947 17.392 6.3268 17.2871 6.48412C17.1298 6.69389 16.9725 6.85122 16.7627 7.00854C16.6578 7.06098 16.553 7.06098 16.5005 7.16587C16.3956 7.21831 16.3432 7.32319 16.2907 7.42808C16.1859 7.5854 16.081 7.84761 16.081 8.05738C16.081 8.05738 16.081 8.10982 16.081 8.2147C16.081 8.5818 16.081 9.00133 16.081 9.36842C16.081 9.47331 16.1334 9.47331 16.1334 9.42087C16.1859 9.31598 16.1859 9.26354 16.2383 9.2111C16.3956 8.89645 16.6054 8.63424 16.8676 8.37203C17.0774 8.10982 17.3396 7.84761 17.5493 7.5854C17.7591 7.32319 17.9164 7.00854 18.0738 6.69389C18.0738 6.69389 18.0738 6.69389 18.1262 6.69389C18.1262 6.69389 18.0738 6.79877 18.0738 6.85122C17.9689 7.16587 17.8116 7.37563 17.6018 7.63784C17.392 7.95249 17.1823 8.16226 16.92 8.42447C16.7103 8.68668 16.5005 8.94889 16.3432 9.26354C16.2383 9.47331 16.1859 9.68307 16.1334 9.89284C16.1334 9.94528 16.081 10.1026 16.081 10.1551L16.1334 11.3088C16.1334 11.3612 16.1334 11.3612 16.1859 11.3088C16.2907 10.9417 16.5005 10.627 16.7103 10.3124C16.92 9.99773 17.1298 9.63063 17.2871 9.26354C17.4969 8.89645 17.6542 8.52935 17.7067 8.10982C17.7067 8.10982 17.7591 8.05738 17.8116 8.05738C17.8116 8.10982 17.8116 8.2147 17.8116 8.26715C17.7591 8.47691 17.7591 8.5818 17.6542 8.73912C17.6018 8.94889 17.4969 9.15866 17.4445 9.31598C17.2347 9.68307 17.0774 10.0502 16.8152 10.4173C16.6054 10.7319 16.5005 11.099 16.2907 11.4661C16.1334 11.8332 16.1334 12.3052 16.1334 12.6723ZM14.0882 14.1406C13.9833 14.0357 13.8784 13.8784 13.826 13.7735C13.6687 13.5113 13.5113 13.2491 13.4064 12.9345C13.4064 12.882 13.3016 12.8296 13.2491 12.7771C13.0918 12.7771 12.9869 12.7247 12.8296 12.6723C12.6723 12.5674 12.5149 12.4625 12.3576 12.3576C12.2003 12.2527 12.043 12.1478 11.9381 11.9905C11.7807 11.8856 11.6234 11.7807 11.4661 11.6759C11.2039 11.4661 10.8368 11.2563 10.5221 11.099C10.2075 10.8892 9.99773 10.7319 9.63063 10.627C9.63063 10.627 9.47331 10.5746 9.47331 10.5221C9.47331 10.5221 9.52575 10.4697 9.52575 10.5221H9.57819C9.89284 10.6795 10.2075 10.8368 10.5746 11.0466C10.8368 11.1514 11.099 11.3088 11.3612 11.4661C11.4661 11.5185 11.5185 11.5185 11.4661 11.4137C11.4661 11.3088 11.4137 11.1514 11.3612 11.0466C11.3088 10.9941 11.2563 10.8892 11.1514 10.8368L10.9941 10.5746C10.7319 10.2075 10.4697 9.89284 10.2599 9.57819C10.2075 9.52575 10.2075 9.52575 10.2599 9.52575C10.2599 9.47331 10.2599 9.47331 10.3124 9.52575C10.5221 9.8404 10.7844 10.2075 11.0466 10.5221L11.2563 10.7844C11.3088 10.8368 11.3612 10.9417 11.4137 11.0466C11.5185 11.1514 11.571 11.3088 11.571 11.5185C11.571 11.571 11.6234 11.6759 11.6759 11.7283C11.7807 11.7807 11.8856 11.8332 11.9905 11.9381C12.1478 12.043 12.2527 12.1478 12.41 12.2527C12.5674 12.3576 12.7247 12.4625 12.882 12.5149C12.9869 12.5674 13.0918 12.6198 13.1442 12.6198C13.1967 12.6198 13.2491 12.6198 13.1967 12.5149C13.0918 12.3052 12.9869 12.0954 12.882 11.8332C12.7771 11.7283 12.7247 11.571 12.6198 11.4137C12.6198 11.3612 12.5674 11.3088 12.5674 11.3088C12.5674 11.3088 12.5149 11.2563 12.4625 11.2039C12.2527 10.7844 11.9905 10.4173 11.7283 10.0502C11.2563 9.52575 10.8892 9.05377 10.3124 8.5818C10.3124 8.5818 10.2075 8.47691 10.2599 8.42447H10.3124C10.8368 8.94889 11.3612 9.42087 11.7807 9.99773C12.043 10.3124 12.2527 10.5746 12.4625 10.8892C12.5149 10.9417 12.5674 10.9417 12.5674 10.8892C12.5674 10.7319 12.5674 10.627 12.6198 10.4697C12.6723 10.3648 12.7247 10.2599 12.7771 10.1026C12.8296 9.99773 12.882 9.89284 12.9345 9.78796C13.0394 9.57819 13.0918 9.31598 13.1442 9.05377C13.1442 8.79156 13.1442 8.52935 13.0394 8.31959C13.0394 8.26715 13.0394 8.26715 13.0918 8.26715C13.0918 8.26715 13.0918 8.26715 13.1442 8.26715C13.1967 8.52935 13.2491 8.79156 13.1967 9.05377C13.1967 9.31598 13.1442 9.57819 12.9869 9.8404C12.9345 9.94528 12.882 10.0502 12.8296 10.1551C12.7771 10.2599 12.7247 10.4173 12.7247 10.5221C12.6723 10.6795 12.6723 10.8892 12.6723 11.099C12.6723 11.1514 12.7247 11.2563 12.7247 11.3088C12.8296 11.4661 12.9345 11.6234 13.0394 11.7807C13.1967 12.0954 13.354 12.41 13.5113 12.7247C13.6687 13.0394 13.826 13.354 13.9833 13.6687C14.3504 14.298 14.8224 14.8224 15.3468 15.2419H15.3992C15.3992 15.2419 15.3992 15.2943 15.3992 15.3468C15.3468 15.3468 15.3468 15.3468 15.2943 15.3468C14.9797 15.1895 14.7175 14.9273 14.4553 14.665C14.4553 14.6126 14.4028 14.6126 14.4028 14.6126C14.3504 14.5602 14.298 14.5077 14.2455 14.4553C13.9309 14.298 13.6162 14.1931 13.3016 14.1931C13.0918 14.1406 12.882 14.1931 12.6723 14.1931C12.4625 14.2455 12.2003 14.298 11.9905 14.298C11.571 14.2455 11.1514 14.1406 10.7319 14.0357C10.3124 13.9309 9.99773 13.7735 9.63063 13.6162C9.57819 13.5638 9.47331 13.5113 9.47331 13.4589C9.47331 13.4589 9.52575 13.4589 9.57819 13.4589C9.94528 13.6687 10.3648 13.826 10.7319 13.9309C11.1514 14.0882 11.571 14.1931 11.9905 14.1931C12.2003 14.1931 12.41 14.1931 12.6198 14.1406C12.882 14.0882 13.0918 14.0882 13.3016 14.0882C13.5638 14.0882 13.7735 14.1406 14.0357 14.1931C14.0882 14.2455 14.0882 14.1931 14.0882 14.1406ZM19.3324 10.5221C19.2799 10.4173 19.2275 10.2599 19.175 10.1551C19.1226 10.0502 19.0702 9.94528 19.0177 9.8404C18.9128 9.57819 18.8604 9.31598 18.808 9.05377C18.808 8.79156 18.808 8.63424 18.9128 8.42447C18.9128 8.37203 18.9128 8.26715 18.9653 8.26715C18.9653 8.26715 18.9653 8.26715 18.9653 8.31959C18.8604 8.52935 18.8604 8.79156 18.8604 9.05377C18.9128 9.31598 18.9653 9.57819 19.0702 9.78796C19.1226 9.89284 19.175 9.99773 19.2799 10.1026C19.3324 10.2599 19.3848 10.3648 19.3848 10.4697C19.4373 10.627 19.4373 10.7319 19.4897 10.8892C19.4897 10.9417 19.5421 10.9417 19.5421 10.8892C19.7519 10.5746 20.0141 10.3124 20.2239 9.99773C20.6959 9.42087 21.1678 8.94889 21.6923 8.42447C21.7447 8.42447 21.7447 8.42447 21.7971 8.42447C21.7971 8.47691 21.6923 8.5818 21.6398 8.5818C21.1154 9.05377 20.7483 9.52575 20.3288 10.0502C20.0141 10.4173 19.8043 10.7844 19.5421 11.2039C19.4897 11.2563 19.4897 11.3088 19.4897 11.3088C19.4373 11.3088 19.4373 11.3612 19.3848 11.4137C19.3324 11.571 19.2275 11.7283 19.1226 11.8332C19.0177 12.0954 18.9128 12.3052 18.808 12.5149C18.7555 12.6198 18.808 12.6198 18.8604 12.6198C18.9653 12.6198 19.0177 12.5674 19.1226 12.5149C19.2799 12.4625 19.4373 12.3576 19.5946 12.2527C19.7519 12.1478 19.9092 12.043 20.0141 11.9381C20.119 11.8332 20.2239 11.7807 20.3288 11.7283C20.3812 11.6759 20.4336 11.571 20.4336 11.5185C20.4336 11.3088 20.5385 11.1514 20.591 11.0466C20.6434 10.9417 20.7483 10.8368 20.8007 10.7844L20.9581 10.5221C21.2203 10.2075 21.3776 9.99773 21.6398 9.68307C21.6398 9.63063 21.7447 9.47331 21.7971 9.52575C21.7971 9.52575 21.7971 9.52575 21.7971 9.57819C21.5349 9.89284 21.2727 10.2075 21.0629 10.5746L20.8532 10.8368C20.8007 10.8892 20.6959 10.9941 20.6434 11.0466C20.591 11.1514 20.5385 11.3088 20.5385 11.4137C20.5385 11.5185 20.591 11.5185 20.6434 11.4661C20.9056 11.3088 21.1678 11.1514 21.4825 11.0466C21.7971 10.8368 22.1118 10.6795 22.4789 10.5221C22.5313 10.4697 22.5313 10.5221 22.5838 10.5221C22.5838 10.5746 22.4264 10.627 22.374 10.627C22.0069 10.7844 21.8496 10.8892 21.4825 11.099C21.1678 11.2563 20.8532 11.4661 20.5385 11.6759C20.3812 11.7807 20.2239 11.8856 20.119 11.9905C19.9617 12.1478 19.8043 12.2527 19.647 12.3576C19.4897 12.4625 19.3324 12.5674 19.175 12.6723C19.0702 12.7247 18.9128 12.7771 18.808 12.7771C18.7031 12.8296 18.6506 12.882 18.5982 12.9345C18.4933 13.2491 18.336 13.5113 18.1786 13.7735C18.1262 13.8784 18.0213 14.0357 17.9689 14.1406C17.9164 14.1931 17.9164 14.2455 18.0213 14.1931C18.2311 14.1406 18.4933 14.0882 18.7031 14.0882C18.9653 14.0882 19.175 14.0882 19.3848 14.1406C19.5946 14.1931 19.8043 14.1931 20.0141 14.1931C20.4336 14.1931 20.8532 14.0882 21.2727 13.9309C21.6923 13.826 22.0593 13.6687 22.4789 13.4589H22.5313C22.5838 13.5113 22.4789 13.5638 22.4789 13.5638C22.0593 13.7735 21.6923 13.9309 21.3252 14.0357C20.9056 14.1406 20.4336 14.2455 20.0141 14.298C19.8043 14.298 19.5946 14.2455 19.3848 14.1931C19.175 14.1931 18.9653 14.1406 18.7555 14.1931C18.3884 14.1931 18.0738 14.298 17.8116 14.4553C17.7067 14.5077 17.6542 14.5602 17.6018 14.6126C17.6018 14.6126 17.6018 14.6126 17.5493 14.665C17.3396 14.9273 17.0774 15.1895 16.7103 15.3468H16.6578C16.6054 15.2943 16.6054 15.2419 16.6578 15.2419C17.1823 14.8224 17.6542 14.298 18.0213 13.6687C18.2311 13.354 18.336 13.0394 18.4933 12.7247C18.6506 12.41 18.808 12.0954 19.0177 11.7807C19.0702 11.6234 19.175 11.4661 19.2799 11.3088C19.3324 11.2563 19.3848 11.1514 19.3848 11.099C19.3848 10.8892 19.3324 10.6795 19.3324 10.5221ZM16.3956 24.4192L16.3432 24.3668C16.553 23.8424 17.0249 23.4753 17.4969 23.1082C17.7067 22.9509 17.9689 22.846 18.2311 22.7935C18.4933 22.7411 18.7555 22.5838 19.0177 22.5313C19.0702 22.5313 19.1226 22.4789 19.2275 22.4789C19.2799 22.4789 19.3848 22.374 19.4373 22.3216C19.6995 22.0069 19.9092 21.6923 20.119 21.3252C20.3812 20.9056 20.6434 20.4861 20.8007 20.0141C21.0105 19.5421 21.1678 19.1226 21.3252 18.5982C21.43 18.1262 21.5349 17.7591 21.4825 17.2871C21.4825 17.2871 21.4825 17.1298 21.5349 17.1298C21.5349 17.0774 21.5874 17.1298 21.5874 17.1823C21.5874 17.6542 21.5349 18.1786 21.43 18.6506C21.3252 19.1226 21.1678 19.5946 20.9581 20.0666C20.7483 20.5385 20.5385 20.9581 20.2763 21.43C20.119 21.6923 19.9617 21.9545 19.7519 22.2167C19.6995 22.2691 19.7519 22.3216 19.8043 22.2691C20.0141 22.2167 20.2763 22.1118 20.4861 22.0069C20.9056 21.7971 21.3776 21.4825 21.7447 21.1678C21.8496 21.0629 21.9545 20.9581 22.0069 20.8532C22.0593 20.8007 22.1118 20.6959 22.1118 20.6434C22.0593 20.4861 22.0593 20.3288 22.1118 20.1714C22.1118 19.9617 22.1642 19.6995 22.2691 19.4897C22.374 19.0702 22.5838 18.7031 22.846 18.336C23.1082 17.9689 23.3179 17.6018 23.4228 17.1823C23.5277 16.7627 23.6326 16.3432 23.5802 15.8712H23.6326H23.685C23.685 16.3432 23.6326 16.7627 23.5277 17.1823C23.3704 17.6018 23.2131 18.0213 22.9509 18.3884C22.6886 18.7555 22.4789 19.1226 22.374 19.5421C22.2691 19.7519 22.2167 19.9617 22.2167 20.1714C22.2167 20.2763 22.2167 20.4336 22.2167 20.5385C22.2167 20.591 22.2167 20.6434 22.2691 20.6434C22.2691 20.591 22.2691 20.591 22.2691 20.591C22.4264 20.3812 22.5838 20.1714 22.7935 19.9617C23.1082 19.5421 23.4228 19.175 23.7375 18.7555L25.7303 16.2907C25.7827 16.2907 25.7827 16.2383 25.8352 16.2907C25.8352 16.2907 25.7827 16.3956 25.7303 16.4481C25.2059 17.0774 24.7339 17.7067 24.2095 18.3884C24.157 18.4409 24.157 18.4409 24.2619 18.4409C24.5241 18.3884 24.7863 18.2835 25.0485 18.1786C25.4156 18.0738 25.7303 17.9164 26.0449 17.7067C26.0974 17.7067 26.1498 17.7067 26.1498 17.7591C26.1498 17.7591 26.0449 17.864 25.9925 17.864C25.6254 18.0213 25.4156 18.1262 25.101 18.2835C24.8912 18.336 24.7339 18.4409 24.5766 18.4933C24.3668 18.5457 24.2095 18.5982 23.9997 18.6506C23.9997 18.6506 23.9472 18.7031 23.8948 18.7555C23.8948 18.7555 23.8948 18.808 23.8424 18.808C23.5277 19.2275 23.2131 19.647 22.8984 20.0666L22.5838 20.4861C22.5313 20.5385 22.5313 20.5385 22.5838 20.4861C22.6886 20.4336 22.7935 20.3812 22.8984 20.3288C23.2655 20.119 23.6326 19.9617 23.9997 19.8568C24.2095 19.8043 24.3668 19.8043 24.5766 19.6995C24.7339 19.647 24.9436 19.5946 25.101 19.5421C25.4681 19.3848 25.8352 19.2275 26.0974 19.0177C26.1498 19.0177 26.2022 19.0177 26.2022 19.0177C26.2547 19.0702 26.0974 19.175 26.0974 19.175C25.7303 19.3848 25.5205 19.5421 25.1534 19.647C24.9436 19.7519 24.7863 19.8043 24.5766 19.8568C24.4192 19.9092 24.2095 19.9617 24.0521 20.0141C23.685 20.119 23.3179 20.2763 22.9509 20.4336C22.6886 20.591 22.4264 20.7483 22.1642 20.9581C22.1118 21.0105 22.0593 21.1154 22.0069 21.1678C21.9545 21.1678 21.902 21.2203 21.8496 21.2727C21.5349 21.5874 21.2203 21.7971 20.8532 22.0593C20.8007 22.0593 20.8007 22.1118 20.9056 22.1118C21.0105 22.1118 21.1154 22.1118 21.1678 22.1118C21.4825 22.1118 21.7447 22.0593 22.0069 22.0069C22.2691 21.9545 22.5313 21.902 22.7935 21.7971C23.0557 21.7447 23.2655 21.6398 23.5277 21.5349C24.0521 21.3776 24.5766 21.2203 25.101 21.0629C25.6254 20.9056 26.1498 20.7483 26.6742 20.591C26.7267 20.591 26.7791 20.591 26.7791 20.6434C26.7791 20.6959 26.6218 20.6959 26.5693 20.7483C25.5205 20.9581 24.629 21.2727 23.5802 21.6398C23.3179 21.7447 23.0557 21.8496 22.7935 21.902C22.5313 22.0069 22.2691 22.0593 22.0069 22.1642C21.7447 22.2167 21.4825 22.2691 21.2203 22.2691C21.0105 22.2691 20.8007 22.3216 20.591 22.2691C20.4861 22.2691 20.3812 22.3216 20.3288 22.3216C19.9092 22.5313 19.4897 22.6886 19.0702 22.7935C18.9653 22.846 18.8604 22.8984 18.7555 22.8984C18.7031 22.8984 18.6506 22.9509 18.7031 22.9509C18.9653 23.0033 19.175 23.1082 19.3848 23.2131C19.5946 23.3179 19.8043 23.4753 20.0141 23.6326C20.119 23.7375 20.1714 23.8424 20.2763 23.8948C20.3288 23.9997 20.4336 24.0521 20.5385 24.1046C20.9056 24.4192 21.3252 24.629 21.7447 24.7863C22.2167 24.9436 22.6362 25.0485 23.1082 25.1534C23.1606 25.1534 23.1606 25.2059 23.1606 25.2583L23.1082 25.3107C22.6362 25.2059 22.1642 25.0485 21.6923 24.8912C21.2727 24.7339 20.8007 24.5241 20.4336 24.2619C20.3288 24.157 20.2239 24.1046 20.1714 23.9997C20.0666 23.8948 20.0141 23.8424 19.9092 23.7375C19.7519 23.6326 19.5421 23.4753 19.3324 23.3704C18.9653 23.2131 18.5982 23.1082 18.1786 23.1082C18.1262 23.1082 18.0213 23.1082 17.9164 23.1606C17.864 23.2131 17.7591 23.2131 17.6542 23.3179C17.2347 23.5802 16.7627 23.9472 16.5005 24.4192C16.4481 24.4192 16.4481 24.4192 16.3956 24.4192ZM19.2275 29.5585C17.7591 29.9256 16.553 29.2439 16.5005 28.3524C16.5005 27.4609 16.5005 26.7267 16.5005 26.7267C16.5005 25.9925 16.5005 25.0485 16.6054 24.7339C16.7627 24.4192 16.9725 24.4192 17.1298 24.4717C17.2347 24.4717 17.2347 24.5241 17.1823 24.629C16.8152 25.4156 17.5493 25.4681 17.7067 25.5729C17.864 25.6778 18.1786 24.8912 18.1786 24.8912C18.2311 24.8912 18.2311 25.2059 18.1786 25.3632C18.1262 25.5729 18.1786 25.94 18.3884 26.1498C18.5457 26.3596 18.7555 26.2022 18.8604 26.0449C18.9653 25.8352 19.0702 25.8352 19.175 26.2547C19.2275 26.6742 19.5946 26.7267 19.7519 26.6218C19.9092 26.5693 19.9617 26.2547 20.0666 26.2022C20.119 26.1498 20.2239 26.3071 20.2763 26.3596C20.3812 26.4645 20.3812 26.5169 20.4336 26.8315C20.5385 27.1986 21.4825 27.4609 21.7971 27.3035C22.0593 27.1462 21.7447 26.6742 21.5874 26.4645C21.5874 26.412 21.5874 26.412 21.6398 26.4645C21.7971 26.6742 22.1118 26.9889 22.3216 26.7791C22.6886 26.5693 22.2691 26.3596 22.2167 26.3071C22.2167 26.2022 22.3216 26.2022 22.4789 26.3071C22.6886 26.412 23.2655 26.7267 23.685 26.5693C24.1046 26.412 23.3179 26.1498 23.6326 26.2022C23.8948 26.2022 24.3668 26.3596 24.629 25.94C24.8388 25.6254 24.3143 25.5205 24.0521 25.4681C23.9472 25.4681 23.9472 25.4156 24.0521 25.4156C24.2619 25.3632 24.629 25.2583 24.6814 25.0485C24.7339 24.8388 23.9997 24.7339 24.2619 24.6814C24.5241 24.5766 24.4192 24.3668 23.9472 23.9997C23.5277 23.6326 22.5838 23.0033 22.7411 23.0557C22.8984 23.1082 24.2619 23.3704 24.6814 23.4753C25.101 23.5802 25.9925 23.4753 26.1498 23.1606C26.3596 22.8984 25.8876 22.6362 25.9925 22.4789C26.1498 22.3216 25.7827 22.1118 25.8876 22.1642C25.9925 22.1642 26.6218 22.5838 26.7791 22.4264C26.9889 22.2167 26.5693 22.0069 26.6742 22.0069C26.7791 22.0593 27.5133 22.0593 27.5133 21.7447C27.5133 21.4825 26.8315 21.3776 26.5169 21.3776C26.4645 21.3776 26.4645 21.3776 26.5169 21.3776C26.6742 21.3252 26.884 21.3252 27.0413 21.3776C27.2511 21.3776 27.7231 21.3252 27.8279 21.1678C27.9328 21.1154 27.7755 21.0105 27.6706 21.0105C27.5657 20.9581 27.5657 20.9581 27.6706 20.9056C27.7755 20.8532 27.9328 20.7483 28.0377 20.5385C28.1426 20.3288 27.9853 20.2239 27.8279 20.1714C27.7231 20.1714 27.7231 20.119 27.7755 20.0141C27.8279 19.9092 27.8804 19.7519 27.8279 19.5421C27.8279 19.4897 27.7755 19.3848 27.7231 19.3324C27.4084 19.0702 26.5169 19.4897 26.8315 19.2275C27.1986 18.9128 26.6218 18.8604 26.7791 18.7031C26.9364 18.5982 27.3035 18.5457 27.4084 18.3884C27.4084 18.2835 27.356 18.1786 27.3035 18.1262C27.1462 17.9689 26.7791 17.9164 26.9364 17.7591C27.0413 17.6542 27.6182 17.1298 27.4084 16.7103C27.1986 16.4481 26.7267 16.6578 26.4645 16.7627C26.412 16.7627 26.412 16.7627 26.4645 16.7103C26.7267 16.4481 27.5133 15.7139 27.4084 15.5041C27.3035 15.2943 26.9889 15.3992 26.8315 15.4517C26.7791 15.4517 26.7267 15.4517 26.7791 15.3992C26.884 15.1895 27.0413 14.7699 26.884 14.5602C26.7267 14.4028 26.412 14.5602 26.2547 14.6126C26.2022 14.665 26.1498 14.665 26.2022 14.5602C26.2022 14.4553 26.1498 14.2455 26.0449 14.1406C25.8876 14.0357 25.4681 14.8224 25.2583 15.0846C25.2059 15.1895 25.2059 15.137 25.1534 15.0846C25.1534 14.7699 25.0485 14.0882 24.7863 13.9833C24.4717 13.9309 24.2095 14.665 24.157 14.9797C24.1046 15.0321 24.1046 15.0321 24.1046 14.9797C24.1046 14.7175 24.1046 14.3504 23.7899 14.298C23.4753 14.2455 23.3704 15.3468 23.2655 15.7663C23.2131 15.8712 23.1606 15.9761 23.1082 16.0285C22.846 16.2907 22.2691 16.5005 22.3216 15.9237C22.374 15.2943 21.9545 15.2943 21.7447 15.2419C21.5349 15.1895 21.4825 15.7139 21.3252 15.7663C21.2203 15.7663 21.1154 15.4517 20.9056 15.5566C20.7483 15.609 20.7483 15.9237 20.6959 16.1859C20.6959 16.2383 20.6959 16.2383 20.6959 16.1859C20.6434 15.9237 20.4861 15.7663 20.3812 15.8712C20.1714 15.9761 20.1714 16.4481 20.1714 16.4481C20.1714 16.3956 20.0666 16.2383 20.0141 16.2907C19.9092 16.3432 19.7519 16.92 19.7519 16.92C19.7519 16.8676 19.5421 16.3432 19.2799 16.5005C19.1226 16.6054 19.2799 16.9725 19.3324 17.2871C19.3324 17.3396 19.3848 17.4445 19.3848 17.5493C19.3324 17.7591 19.2799 17.9689 19.2275 18.1262C19.2275 18.1786 19.175 18.1786 19.1226 18.1262C19.0177 17.9164 18.7031 17.4445 18.4409 17.4969C17.9689 17.6018 18.1262 18.3884 18.1786 18.6506C18.2311 18.7555 18.1786 18.7555 18.1262 18.7031C17.9689 18.5982 17.7067 18.4409 17.4969 18.6506C17.3396 18.8604 17.7067 19.2799 17.864 19.4897C17.9164 19.5421 17.9164 19.5421 17.864 19.4897C17.7067 19.3848 17.392 19.175 17.2871 19.3324C17.1823 19.5421 17.392 19.8043 17.4969 19.9617C17.5493 20.0141 17.4969 20.0666 17.4445 20.0141C17.2871 19.9617 17.0774 19.8568 17.0249 20.119C17.0249 20.3288 17.392 20.5385 17.6018 20.6434C17.6542 20.6959 17.6542 20.6959 17.6018 20.6959C17.4445 20.6434 17.1823 20.6434 17.1823 20.7483C17.1823 20.9581 17.6542 21.1154 17.9689 21.2727C18.336 21.3776 18.5982 21.6398 18.5982 21.902C18.5982 22.1642 17.7067 22.1118 17.1823 22.6362C17.0774 22.7935 16.6054 23.0033 16.5005 23.0557C16.3432 23.1606 16.3432 20.8007 16.3432 18.7031C16.3432 16.6054 16.3432 16.2383 16.3956 16.1859C16.3956 16.081 16.6578 15.6614 16.7103 15.6614C16.7627 15.609 16.8152 15.609 16.8676 15.609C17.392 15.3468 18.2311 15.8188 18.8604 16.1334C18.8604 16.1859 18.9128 16.1859 18.9653 16.2383C19.0702 16.2383 19.175 16.2383 19.175 16.2383C19.2275 16.2383 19.2275 16.2383 19.2799 16.2383C19.2799 16.2383 19.2799 16.1859 19.3324 16.1859C19.3848 16.1859 19.4373 16.2383 19.4373 16.2383C19.5421 16.2907 19.5946 16.3432 19.647 16.3432C19.647 16.3432 19.6995 16.2383 19.7519 16.1859C19.7519 16.1334 19.8043 16.081 19.8568 16.081C19.8568 16.0285 19.9092 16.0285 19.9092 16.0285C19.9617 16.0285 20.0141 15.9237 20.0666 15.8188C20.119 15.7663 20.1714 15.7139 20.2239 15.6614C20.2763 15.609 20.3812 15.5566 20.4336 15.5566C20.4861 15.5566 20.4861 15.5566 20.4861 15.5566C20.5385 15.609 20.5385 15.5566 20.591 15.5041C20.591 15.4517 20.591 15.3468 20.5385 15.2943C20.4861 15.2419 20.5385 15.2419 20.6434 15.2419C20.6959 15.2943 20.8007 15.2943 20.8007 15.2943C20.8532 15.2943 20.9056 15.2419 20.9581 15.2419C21.0105 15.2419 21.0629 15.2943 21.1154 15.2943C21.2203 15.3468 21.3252 15.2419 21.43 15.0846C21.4825 15.0321 21.5874 14.9797 21.7447 14.9797C21.7447 14.9797 21.7971 14.9797 21.8496 14.9797C21.8496 14.9797 21.902 14.9797 21.902 15.0321C22.0069 15.0321 22.2167 15.0846 22.374 15.2419C22.4789 15.3468 22.5838 15.5041 22.6886 15.609C22.7411 15.6614 22.846 15.609 22.8984 15.609C23.0033 15.5566 23.0557 15.4517 23.0557 15.3992C23.0557 15.3468 23.0557 15.2943 23.1082 15.2419C23.1082 15.2419 23.1082 15.1895 23.1082 15.137C23.1082 15.0846 23.1082 14.9797 23.1082 14.8748C23.0557 14.7699 23.0557 14.7175 23.1082 14.7175C23.2655 14.665 23.1082 14.3504 23.1606 14.0882C23.2131 13.7735 23.8948 13.7735 23.8948 13.354C23.8948 13.0394 23.3704 12.9869 23.1082 12.9869C23.0557 12.9869 23.0557 12.9869 23.1082 12.9869C23.2655 12.882 23.4753 12.7771 23.4228 12.6723C23.4228 12.5149 23.1606 12.5674 22.3216 12.5674C21.5874 12.5674 20.3288 13.1967 19.9617 13.354C19.8568 13.4064 19.8568 13.4064 19.9092 13.354C20.7483 12.7247 22.1642 12.2003 22.6362 12.043C23.1606 11.8332 23.5277 11.5185 23.5277 11.3088C23.5277 11.0466 23.0033 11.4661 23.1082 11.099C23.2131 10.7319 23.8948 10.3124 23.5277 9.8404C23.2131 9.47331 22.4264 9.94528 22.1642 10.1551C22.1118 10.2075 22.0593 10.2075 22.1118 10.1026C22.374 9.63063 23.0557 8.79156 22.9509 8.5818C22.8984 8.37203 22.6362 8.47691 22.4789 8.52935C22.4264 8.5818 22.374 8.52935 22.4264 8.47691C22.5313 8.2147 22.6886 7.63784 22.5313 7.42808C22.3216 7.32319 22.0069 7.53296 21.8496 7.69029C21.7447 7.74273 21.7447 7.74273 21.7447 7.63784C21.7971 7.48052 21.8496 7.27075 21.7971 7.16587C21.7447 7.11343 21.5874 7.11343 21.5349 7.16587C21.3252 7.32319 21.0629 7.79517 20.9581 8.00494C20.9581 8.10982 20.9056 8.10982 20.9056 8.00494C20.9056 7.63784 20.8007 7.11343 20.591 7.11343C20.3288 7.06098 20.1714 7.42808 19.9617 7.95249C19.7519 8.31959 19.5946 8.26715 19.3848 8.42447C19.3324 8.47691 19.2799 8.42447 19.2799 8.37203C19.3324 8.00494 19.5946 7.79517 19.4897 7.53296C19.4897 7.48052 19.3848 7.37563 19.3324 7.37563C19.0702 7.32319 18.7555 8.10982 18.3884 8.73912C17.9689 9.47331 17.7067 11.571 17.6542 12.5149C17.6018 13.1442 17.2347 13.8784 16.92 14.3504C16.8676 14.4553 16.8676 14.4028 16.8676 14.3504C16.8676 13.826 16.8152 12.8296 17.0774 11.7283C17.2347 10.9417 17.4445 10.627 17.7591 10.1551C17.8116 10.0502 17.864 9.94528 17.864 9.89284C18.0213 9.36842 18.1262 8.89645 18.2835 8.63424C18.3884 8.52935 18.4409 8.37203 18.5457 8.2147C18.9128 7.53296 19.0177 7.16587 19.3324 7.16587C19.3848 7.16587 19.4373 7.06098 19.4373 6.90366C19.4373 6.79877 19.5946 6.64145 19.3848 6.64145C19.2275 6.64145 18.7555 7.11343 18.5457 7.37563C18.5457 7.42808 18.4933 7.42808 18.5457 7.32319C18.8604 6.79877 19.175 5.80238 18.8604 5.59261C18.5457 5.43529 17.9164 6.22191 17.7067 6.58901C17.6542 6.64145 17.6542 6.64145 17.7067 6.53657C17.9164 5.90726 18.2311 5.54017 18.1262 5.38285C17.9164 5.12064 17.4969 5.48773 17.3396 5.64505C17.3396 5.6975 17.2871 5.6975 17.3396 5.64505C17.392 5.38285 17.6018 4.91087 17.4445 4.75354C17.2871 4.54378 16.92 4.96331 16.7627 5.3304C16.7103 5.38285 16.7103 5.38285 16.7627 5.3304C16.8676 5.06819 16.9725 4.7011 16.8152 4.54378C16.6578 4.43889 16.5005 4.7011 16.4481 4.85843C16.3956 4.96331 16.3956 4.96331 16.3956 4.85843C16.4481 4.33401 16.2907 3.86203 16.0285 3.91447C15.8188 3.96692 15.609 4.33401 15.609 4.85843C15.6614 4.96331 15.609 4.96331 15.609 4.85843C15.5041 4.7011 15.3468 4.43889 15.1895 4.54378C15.0846 4.7011 15.1895 5.06819 15.2419 5.3304C15.2943 5.38285 15.2943 5.38285 15.2419 5.3304C15.0846 4.96331 14.8224 4.43889 14.6126 4.64866C14.4553 4.80599 14.6126 5.38285 14.7175 5.64505C14.7175 5.6975 14.7175 5.6975 14.665 5.64505C14.5077 5.48773 14.1931 5.17308 13.9833 5.38285C13.8784 5.59261 14.0882 5.90726 14.3504 6.53657C14.3504 6.64145 14.3504 6.64145 14.298 6.58901C14.0882 6.22191 13.4589 5.22552 13.1967 5.48773C12.882 5.74994 13.1967 6.79877 13.4589 7.32319C13.5113 7.42808 13.5113 7.42808 13.4589 7.32319C13.3016 7.06098 12.8296 6.43168 12.6723 6.53657C12.5149 6.64145 12.5674 6.79877 12.5674 6.90366C12.5674 7.06098 12.6198 7.16587 12.6723 7.16587C12.6723 7.16587 12.6723 7.16587 12.7247 7.16587C12.9869 7.16587 13.0918 7.53296 13.4589 8.2147C13.5638 8.37203 13.6162 8.52935 13.7211 8.63424C13.8784 8.89645 14.0357 9.36842 14.1406 9.89284C14.1406 9.94528 14.1931 10.0502 14.2455 10.1551C14.5602 10.627 14.7699 10.9417 14.9273 11.7283C15.1895 12.8296 15.137 13.826 15.1895 14.3504C15.1895 14.4028 15.137 14.4553 15.0846 14.3504C14.8224 13.8784 14.4028 13.1442 14.3504 12.5149C14.3504 11.571 14.0357 9.47331 13.6687 8.73912C13.3016 8.10982 12.9345 7.32319 12.6723 7.37563C12.6198 7.37563 12.5149 7.48052 12.5149 7.53296C12.41 7.79517 12.6723 8.00494 12.7247 8.37203C12.7247 8.42447 12.6723 8.47691 12.6198 8.42447C12.4625 8.26715 12.0954 7.95249 11.8856 7.5854C11.6759 7.06098 11.6759 7.00854 11.4661 7.11343C11.2563 7.16587 11.099 7.63784 11.099 8.00494C11.099 8.10982 11.099 8.10982 11.0466 8.00494C10.8892 7.74273 10.5221 7.00854 10.3648 7.11343C10.1551 7.16587 10.2075 7.48052 10.2599 7.63784C10.2599 7.74273 10.2599 7.74273 10.2075 7.69029C10.0502 7.53296 9.68307 7.32319 9.52575 7.42808C9.31598 7.63784 9.52575 8.2147 9.57819 8.47691C9.63063 8.52935 9.57819 8.52935 9.52575 8.52935C9.42087 8.42447 9.2111 8.31959 9.10621 8.42447C9.05377 8.47691 9.05377 8.63424 9.05377 8.68668C9.15866 9.05377 9.68307 9.68307 9.89284 10.1026C9.94528 10.2075 9.89284 10.2075 9.8404 10.1551C9.57819 9.94528 8.79156 9.47331 8.47691 9.8404C8.10982 10.3124 8.84401 10.7319 8.89645 11.099C9.00133 11.3612 8.68668 11.099 8.52935 11.1514C8.47691 11.2039 8.47691 11.3612 8.47691 11.4137C8.52935 11.7283 8.94889 11.8856 9.36842 12.043C9.8404 12.2003 11.2563 12.7247 12.0954 13.354C12.1478 13.4064 12.1478 13.4064 12.0954 13.354C11.6759 13.1967 10.4697 12.5674 9.73552 12.5674C8.84401 12.5674 8.63424 12.41 8.5818 12.6723C8.52935 12.8296 8.73912 12.9345 8.89645 12.9869C8.94889 12.9869 8.94889 12.9869 8.89645 12.9869C8.63424 12.9869 8.10982 13.0394 8.10982 13.354C8.10982 13.7735 8.79156 13.7735 8.84401 14.0882C8.89645 14.3504 8.73912 14.665 8.89645 14.7175C8.94889 14.7175 8.94889 14.7699 8.94889 14.8748C8.89645 14.9797 8.89645 15.0846 8.89645 15.137C8.89645 15.1895 8.89645 15.2419 8.94889 15.2419C8.94889 15.2943 8.94889 15.3468 8.94889 15.3992C8.94889 15.4517 9.00133 15.5566 9.10621 15.609C9.15866 15.609 9.26354 15.6614 9.31598 15.609C9.42087 15.5041 9.52575 15.3468 9.68307 15.2419C9.78796 15.0846 9.99773 15.0321 10.1026 15.0321C10.1026 14.9797 10.1551 14.9797 10.1551 14.9797C10.2075 14.9797 10.2599 14.9797 10.3124 14.9797C10.4173 14.9797 10.5221 15.0321 10.5746 15.0846C10.6795 15.2419 10.7844 15.3468 10.8892 15.2943C10.9417 15.2943 10.9941 15.2419 11.0466 15.2419C11.099 15.2419 11.1514 15.2943 11.2039 15.2943C11.2039 15.2943 11.3088 15.2943 11.4137 15.2419C11.4661 15.2419 11.5185 15.2419 11.4661 15.2943C11.4137 15.3468 11.4137 15.4517 11.4137 15.5041C11.4661 15.5566 11.5185 15.609 11.5185 15.5566H11.571C11.6759 15.5566 11.7283 15.609 11.7807 15.6614C11.8856 15.7139 11.9381 15.7663 11.9381 15.8188C11.9905 15.9237 12.0954 16.0285 12.0954 16.0285C12.1478 16.0285 12.1478 16.0285 12.2003 16.081C12.2003 16.081 12.2527 16.1334 12.3052 16.1859C12.3052 16.2383 12.3576 16.3432 12.41 16.3432C12.41 16.3432 12.4625 16.2907 12.5674 16.2383C12.6198 16.2383 12.6723 16.1859 12.7247 16.1859C12.7247 16.1859 12.7247 16.2383 12.7771 16.2383H12.8296C12.882 16.2383 12.9345 16.2383 13.0394 16.2383C13.0918 16.1859 13.1442 16.1859 13.1967 16.1334C13.7735 15.8188 14.6126 15.3468 15.137 15.609C15.1895 15.609 15.2419 15.609 15.2943 15.6614C15.3992 15.6614 15.609 16.081 15.6614 16.1859C15.6614 16.2383 15.6614 16.8676 15.6614 18.7031C15.6614 20.5385 15.7139 23.1606 15.5041 23.0557C15.3992 23.0033 14.9273 22.7935 14.8224 22.6362C14.298 22.1118 13.4064 22.1642 13.4064 21.902C13.4064 21.6398 13.6687 21.3776 14.0357 21.2727C14.4028 21.1154 14.8224 21.0629 14.8224 20.7483C14.8224 20.591 14.6126 20.6434 14.4553 20.6959C14.3504 20.6959 14.3504 20.6959 14.4553 20.6434C14.6126 20.591 15.0321 20.3812 15.0321 20.1714C14.9797 19.9617 14.7175 19.9617 14.5602 20.0141C14.5077 20.0666 14.5077 20.0666 14.5602 20.0141C14.665 19.8568 14.8748 19.5946 14.7175 19.3324C14.6126 19.175 14.298 19.3848 14.1406 19.4897C14.0882 19.5421 14.0882 19.5421 14.1406 19.4897C14.298 19.2799 14.5602 18.8604 14.4028 18.5982C14.2455 18.3884 13.9833 18.5982 13.8784 18.7031C13.826 18.7555 13.7735 18.7555 13.826 18.6506C13.826 18.3884 13.9309 17.6542 13.5638 17.4969C13.0918 17.3396 12.9869 17.9689 12.9869 18.2835C12.9869 18.336 12.9345 18.336 12.882 18.2835C12.8296 18.1262 12.6723 17.7591 12.6723 17.5493C12.6723 17.4445 12.6723 17.3396 12.6723 17.2871C12.7771 16.9725 13.0394 16.5005 12.7247 16.5005C12.41 16.4481 12.3052 16.8676 12.2527 16.92C12.2527 16.92 12.0954 16.3432 12.043 16.2907C11.9381 16.2383 11.8332 16.3956 11.8332 16.4481C11.8332 16.4481 11.8332 15.9761 11.6759 15.8712C11.5185 15.7663 11.3612 15.9237 11.3088 16.1859C11.3088 16.2383 11.3088 16.2383 11.3088 16.1859C11.3088 15.9237 11.2563 15.609 11.099 15.5566C10.9417 15.4517 10.7844 15.7663 10.6795 15.7663C10.5221 15.7139 10.4697 15.1895 10.2599 15.2419C10.0502 15.2943 9.68307 15.2943 9.68307 15.9237C9.73552 16.5005 9.15866 16.2907 8.89645 16.0285C8.84401 15.9761 8.79156 15.8712 8.79156 15.7663C8.63424 15.3468 8.52935 14.2455 8.2147 14.298C7.95249 14.3504 7.90005 14.7175 7.90005 14.9797C7.90005 15.0321 7.90005 15.0321 7.90005 14.9797C7.84761 14.665 7.63784 13.8784 7.27075 13.9833C6.85122 14.0882 6.79877 14.7699 6.79877 15.0846C6.79877 15.137 6.79877 15.1895 6.74633 15.0846C6.58901 14.8748 6.3268 14.4028 6.06459 14.1931C6.01215 14.1931 5.90726 14.1406 5.85482 14.1931C5.80238 14.298 5.80238 14.4553 5.80238 14.5602C5.85482 14.665 5.80238 14.665 5.74994 14.6126C5.64505 14.4553 5.38285 14.298 5.17308 14.5602C4.96331 14.8748 5.12064 15.2419 5.22552 15.3992C5.27796 15.4517 5.27796 15.4517 5.17308 15.4517C5.01575 15.3468 4.7011 15.1895 4.59622 15.5041C4.49133 15.8188 5.27796 16.5005 5.54017 16.7103C5.59261 16.7627 5.59261 16.7627 5.54017 16.7627C5.3304 16.6054 4.80599 16.3432 4.64866 16.7103C4.43889 17.2347 4.96331 17.6542 5.12064 17.7591C5.22552 17.9164 4.80599 17.864 4.64866 18.1262C4.64866 18.1786 4.59622 18.2835 4.64866 18.3884C4.7011 18.6506 5.06819 18.5982 5.22552 18.7031C5.43529 18.8604 4.80599 18.9128 5.17308 19.2275C5.48773 19.4897 4.64866 19.0702 4.28157 19.3324C4.22913 19.3848 4.17668 19.4897 4.17668 19.5421C4.12424 19.7519 4.17668 19.9092 4.22913 20.0141C4.28157 20.119 4.28157 20.1714 4.17668 20.1714C4.0718 20.2239 3.86203 20.3288 3.96692 20.5385C4.0718 20.7483 4.28157 20.8532 4.38645 20.9056C4.43889 20.9581 4.43889 20.9581 4.38645 21.0105C4.22913 21.0105 4.12424 21.1154 4.17668 21.1678C4.28157 21.3252 4.75354 21.3776 4.96331 21.3776C5.12064 21.3252 5.3304 21.3252 5.48773 21.3776C5.54017 21.3776 5.54017 21.3776 5.48773 21.3776C5.17308 21.3776 4.49133 21.4825 4.49133 21.7447C4.49133 22.0593 5.27796 22.0593 5.3304 22.0069C5.43529 22.0069 5.01575 22.2167 5.22552 22.4264C5.43529 22.5838 6.01215 22.1642 6.11703 22.1642C6.22191 22.1118 5.85482 22.3216 6.01215 22.4789C6.16947 22.6362 5.64505 22.8984 5.85482 23.1606C6.06459 23.4753 6.9561 23.5277 7.37563 23.3704C7.79517 23.2655 9.15866 23.1082 9.26354 23.0557C9.42087 23.0033 8.63424 23.7375 8.05738 23.9472C7.37563 24.157 7.48052 24.5766 7.74273 24.6814C8.05738 24.7339 7.27075 24.8388 7.37563 25.0485C7.42808 25.2583 7.79517 25.3632 7.95249 25.4156C8.05738 25.4156 8.05738 25.4681 7.95249 25.4681C7.69029 25.5205 7.16587 25.6254 7.37563 25.94C7.63784 26.3596 8.10982 26.2022 8.42447 26.2022C8.73912 26.1498 7.90005 26.412 8.31959 26.5693C8.73912 26.7267 9.36842 26.412 9.52575 26.3071C9.73552 26.2022 9.78796 26.2022 9.78796 26.3071C9.78796 26.3596 9.31598 26.5693 9.68307 26.7791C9.94528 26.9889 10.2599 26.6742 10.4173 26.4645C10.4697 26.412 10.4697 26.412 10.4173 26.4645C10.2599 26.6742 9.94528 27.1462 10.2075 27.3035C10.5221 27.4609 11.4661 27.1986 11.571 26.8315C11.6234 26.5169 11.6759 26.4645 11.7807 26.3596C11.8332 26.3071 11.8856 26.1498 11.9381 26.2022C12.043 26.2547 12.0954 26.5693 12.2527 26.6218C12.4625 26.7267 12.7771 26.6742 12.882 26.2547C12.9345 25.8352 13.0918 25.8352 13.1967 26.0449C13.3016 26.2022 13.4589 26.3596 13.6162 26.1498C13.826 25.94 13.8784 25.5729 13.826 25.3632C13.826 25.2059 13.826 24.8912 13.826 24.8912C13.8784 24.8912 14.1406 25.6778 14.298 25.5729C14.5077 25.4681 15.1895 25.4156 14.8224 24.629C14.7699 24.5241 14.8224 24.4717 14.8748 24.4717C15.0321 24.4192 15.2943 24.4192 15.3992 24.7339C15.5566 25.0485 15.5566 25.9925 15.5041 26.7267V28.3524C15.5041 29.2439 14.2455 29.9256 12.7771 29.5585C6.64145 28.1426 2.07901 22.5838 2.07901 16.0285C2.07901 8.31959 8.31959 2.07901 16.0285 2.07901C23.685 2.07901 29.9781 8.31959 29.9781 16.0285C29.9781 22.5838 25.3632 28.1426 19.2275 29.5585Z" fill="#21A73F"/>
<path d="M31.7339 15.1085C32.1587 14.6331 32.0525 13.9463 31.5746 13.5766C31.0966 13.2068 30.9373 12.4144 31.2028 11.8861C31.5215 11.3578 31.309 10.6711 30.7249 10.4069C30.1939 10.1428 29.8753 9.40322 30.0346 8.82212C30.1939 8.24102 29.8222 7.6071 29.238 7.50144C28.6539 7.34296 28.176 6.70904 28.2291 6.07511C28.2822 5.49402 27.8043 4.96575 27.167 4.91292C26.5829 4.91292 25.9988 4.38465 25.8926 3.75072C25.7864 3.16962 25.2022 2.74701 24.6181 2.85266C24.034 2.95832 23.3436 2.58853 23.1312 2.00743C22.9188 1.42633 22.2816 1.10937 21.6974 1.3735C21.1133 1.58481 20.3699 1.32068 20.0513 0.845233C19.7326 0.316962 19.0423 0.158481 18.5113 0.475444C17.9803 0.845233 17.2368 0.739579 16.7589 0.316962C16.3341 -0.105654 15.6437 -0.105654 15.2189 0.316962C14.7941 0.739579 13.9976 0.845233 13.4665 0.475444C12.9886 0.158481 12.2983 0.316962 11.9265 0.845233C11.6079 1.32068 10.8645 1.58481 10.3335 1.3735C9.74933 1.10937 9.1121 1.42633 8.84658 2.00743C8.63417 2.58853 7.99694 2.95832 7.35971 2.85266C6.77558 2.74701 6.19145 3.16962 6.08524 3.75072C6.03214 4.38465 5.44801 4.91292 4.81078 4.91292C4.22665 4.96575 3.74872 5.49402 3.74872 6.07511C3.80182 6.70904 3.3239 7.34296 2.73977 7.50144C2.15564 7.6071 1.78392 8.24102 1.94323 8.82212C2.10254 9.40322 1.78392 10.1428 1.25289 10.4069C0.721865 10.6711 0.509454 11.3578 0.774968 11.8861C1.04048 12.4144 0.881174 13.2068 0.403249 13.5766C-0.0746757 13.9463 -0.127778 14.6331 0.243941 15.1085C0.61566 15.584 0.61566 16.3764 0.243941 16.8518C-0.127778 17.3273 -0.0746757 18.014 0.403249 18.3838C0.881174 18.8064 1.04048 19.546 0.774968 20.0743C0.509454 20.6554 0.721865 21.2893 1.25289 21.5534C1.78392 21.8704 2.10254 22.5572 1.94323 23.1383C1.78392 23.7194 2.15564 24.3533 2.73977 24.5118C3.3239 24.6702 3.80182 25.3042 3.74872 25.8853C3.74872 26.5192 4.22665 27.0475 4.81078 27.0475C5.44801 27.1003 6.03214 27.5757 6.08524 28.2097C6.19145 28.7908 6.77558 29.2134 7.35971 29.1077C7.99694 29.0021 8.63417 29.4247 8.84658 30.0058C9.1121 30.534 9.74933 30.851 10.3335 30.6397C10.8645 30.3756 11.6079 30.6397 11.9265 31.168C12.2983 31.6434 12.9886 31.8019 13.4665 31.4849C13.9976 31.1151 14.7941 31.2208 15.2189 31.6434C15.6437 32.1189 16.3341 32.1189 16.7589 31.6434C17.2368 31.2208 17.9803 31.1151 18.5113 31.4849C19.0423 31.8019 19.7326 31.6434 20.0513 31.168C20.3699 30.6397 21.1133 30.3756 21.6974 30.6397C22.2816 30.851 22.9188 30.534 23.1312 30.0058C23.3436 29.4247 24.034 29.0021 24.6181 29.1077C25.2022 29.2134 25.7864 28.7908 25.8926 28.2097C25.9988 27.5757 26.5829 27.1003 27.167 27.0475C27.8043 27.0475 28.2822 26.5192 28.2291 25.8853C28.176 25.3042 28.6539 24.6702 29.238 24.5118C29.8222 24.3533 30.1939 23.7194 30.0346 23.1383C29.8753 22.5572 30.1939 21.8704 30.7249 21.5534C31.309 21.2893 31.5215 20.6554 31.2028 20.0743C30.9373 19.546 31.0966 18.8064 31.5746 18.3838C32.0525 18.014 32.1587 17.3273 31.7339 16.8518C31.3621 16.3764 31.3621 15.584 31.7339 15.1085ZM16.0155 31.2208C7.57212 31.2208 0.721865 24.4061 0.721865 16.0066C0.721865 7.6071 7.57212 0.792406 16.0155 0.792406C24.4588 0.792406 31.309 7.6071 31.309 16.0066C31.309 24.4061 24.4588 31.2208 16.0155 31.2208Z" fill="#E85222"/>
</svg>
