<svg width="64" height="64" viewBox="0 0 64 64" fill="none" xmlns="http://www.w3.org/2000/svg">
<path d="M32.0571 2.375C15.6952 2.375 2.375 15.6952 2.375 32.0571C2.375 48.4189 15.6952 61.6343 32.0571 61.6343C48.4189 61.6343 61.6343 48.4189 61.6343 32.0571C61.6343 15.6952 48.4189 2.375 32.0571 2.375ZM31.218 48.8384H31.1131C30.5887 47.8945 29.5399 47.1603 28.7008 46.6359C28.5959 46.4261 28.3861 46.4261 28.1764 46.3212C28.0715 46.2164 27.7568 46.2164 27.652 46.2164C26.9178 46.2164 26.0787 46.4261 25.4494 46.7408C25.0299 46.9505 24.6103 47.2652 24.2957 47.475C24.0859 47.6847 23.8761 47.7896 23.7713 47.9994C23.5615 48.2091 23.3517 48.314 23.142 48.5238C22.4078 49.0482 21.4638 49.4678 20.6248 49.7824C19.6808 50.0971 19.2613 50.2019 18.3173 50.4117L17.688 50.5166C17.688 50.4117 17.688 50.3068 17.7929 50.3068C18.7368 50.0971 19.6808 49.8873 20.5199 49.5726C21.4638 49.258 22.3029 48.8384 23.0371 48.2091C23.2468 48.1043 23.3517 47.9994 23.5615 47.7896C23.6664 47.6847 23.8761 47.475 24.0859 47.2652C24.4006 46.9505 24.8201 46.6359 25.2396 46.4261C25.6592 46.2164 26.1836 46.0066 26.6031 45.9017H26.708C26.708 45.9017 26.6031 45.7968 26.4982 45.7968C26.2885 45.7968 26.0787 45.6919 25.8689 45.5871C25.0299 45.3773 24.1908 45.0626 23.4566 44.6431C23.2468 44.6431 23.0371 44.5382 22.9322 44.5382C22.5127 44.6431 22.0931 44.5382 21.6736 44.5382C21.0443 44.5382 20.5199 44.4333 19.9955 44.3285C19.471 44.1187 18.9466 44.0138 18.4222 43.804C17.8978 43.6992 17.3734 43.4894 16.8489 43.2796C14.8562 42.5454 13.178 42.021 11.0803 41.4966C10.9755 41.4966 10.451 41.3917 10.5559 41.2868C10.5559 41.1819 10.5559 41.1819 10.6608 41.1819C11.7096 41.4966 12.7585 41.8112 13.8073 42.1259C14.8562 42.4405 15.905 42.7552 16.9538 43.0698C17.4782 43.2796 18.0027 43.4894 18.5271 43.5943C19.0515 43.804 19.5759 43.9089 20.1003 44.0138C20.6248 44.1187 21.1492 44.2236 21.6736 44.2236C21.8834 44.2236 22.0931 44.2236 22.3029 44.2236C22.4078 44.2236 22.4078 44.1187 22.3029 44.1187C21.5687 43.5943 20.9394 43.1747 20.3101 42.5454C20.2052 42.4405 20.2052 42.3357 20.1003 42.3357C19.9955 42.2308 19.7857 42.021 19.6808 41.9161C19.1564 41.4966 18.632 41.1819 18.1075 40.8673C17.4782 40.5526 16.7441 40.238 16.0099 40.0282C15.5903 39.9233 15.2757 39.8185 14.8562 39.7136C14.5415 39.6087 14.122 39.5038 13.7024 39.294C13.0731 39.0843 12.6536 38.8745 12.0243 38.455C11.9194 38.3501 11.6048 38.1403 11.6048 38.0354C11.6048 38.0354 11.7096 38.0354 11.8145 38.0354C12.4438 38.455 13.178 38.7696 13.8073 39.0843C14.2269 39.1892 14.5415 39.294 14.961 39.3989C15.2757 39.6087 15.6952 39.6087 16.1148 39.7136C16.8489 39.9233 17.5831 40.238 18.2124 40.6575C18.4222 40.7624 18.632 40.8673 18.8417 40.9722C18.9466 41.0771 19.0515 41.0771 18.9466 40.9722L18.3173 40.1331C17.688 39.294 16.9538 38.455 16.3245 37.6159L16.2196 37.511C16.1148 37.4061 16.0099 37.3012 16.0099 37.3012C15.6952 37.1964 15.2757 37.0915 14.961 36.9866C14.5415 36.8817 14.2269 36.6719 13.9122 36.5671C13.178 36.2524 12.7585 36.1475 12.1292 35.8329C12.0243 35.8329 11.7096 35.5182 11.8145 35.5182C11.8145 35.4133 11.9194 35.4133 11.9194 35.4133C12.5487 35.8329 13.2829 36.1475 13.9122 36.3573C14.4366 36.5671 14.961 36.7768 15.4855 36.8817C15.6952 36.8817 15.6952 36.8817 15.5903 36.7768C14.5415 35.4133 13.7024 34.2596 12.6536 32.8961C12.5487 32.8961 12.3389 32.5815 12.3389 32.5815C12.4438 32.4766 12.5487 32.5815 12.5487 32.5815L16.5343 37.511C17.1636 38.3501 17.8978 39.0843 18.5271 39.9233C18.8417 40.3429 19.1564 40.7624 19.471 41.1819C19.471 41.1819 19.471 41.1819 19.5759 41.2868C19.5759 41.2868 19.5759 41.1819 19.6808 41.0771C19.6808 40.8673 19.6808 40.5526 19.5759 40.3429C19.5759 39.9233 19.471 39.5038 19.3661 39.0843C19.0515 38.2452 18.632 37.511 18.2124 36.7768C17.688 36.0426 17.2685 35.2036 17.0587 34.3645C16.7441 33.5254 16.6392 32.6864 16.7441 31.7424C16.8489 31.7424 16.8489 31.7424 16.8489 31.7424C16.8489 32.6864 16.9538 33.5254 17.1636 34.3645C17.4782 35.2036 17.7929 35.9378 18.3173 36.6719C18.8417 37.4061 19.2613 38.1403 19.5759 38.9794C19.6808 39.3989 19.7857 39.9233 19.8906 40.3429C19.8906 40.6575 19.8906 40.9722 19.8906 41.2868C19.8906 41.3917 19.8906 41.6015 19.9955 41.7064C20.2052 41.9161 20.415 42.1259 20.5199 42.3357C21.3589 42.965 22.198 43.5943 23.142 44.0138C23.5615 44.2236 23.981 44.4333 24.4006 44.5382C24.6103 44.6431 24.6103 44.5382 24.5054 44.4333C24.1908 43.9089 23.7713 43.3845 23.4566 42.8601C22.9322 41.9161 22.5127 41.0771 22.198 40.1331C21.7785 39.1892 21.4638 38.2452 21.1492 37.3012C20.9394 36.3573 20.9394 35.6231 20.9394 34.6792C20.9394 34.5743 20.9394 34.1547 21.0443 34.2596C21.0443 34.2596 21.1492 34.2596 21.1492 34.3645C21.0443 35.3085 21.1492 36.2524 21.4638 37.1964C21.6736 38.2452 21.9882 39.0843 22.4078 40.0282C22.8273 40.9722 23.2468 41.8112 23.7713 42.6503C24.1908 43.3845 24.7152 44.0138 25.2396 44.6431C25.2396 44.748 25.4494 44.9578 25.6592 44.9578C25.7641 44.9578 25.8689 45.0626 25.9738 45.0626C26.4982 45.1675 27.0227 45.4822 27.5471 45.5871C28.0715 45.6919 28.5959 45.9017 29.0154 46.2164C29.9594 46.9505 30.9033 47.6847 31.3229 48.7336C31.3229 48.7336 31.3229 48.8384 31.218 48.8384ZM32.2668 25.3445C32.2668 25.4494 32.2668 27.5471 32.2668 27.5471C32.2668 28.3861 32.3717 29.2252 32.162 30.1692C32.162 30.1692 32.162 30.1692 32.0571 30.1692C32.0571 30.274 32.0571 30.274 32.0571 30.274H31.9522C31.9522 30.1692 31.8473 30.1692 31.8473 30.1692C31.7424 29.2252 31.7424 28.3861 31.7424 27.5471C31.7424 27.5471 31.7424 25.4494 31.7424 25.3445C31.8473 24.6103 31.7424 23.6664 31.4278 23.0371C31.1131 22.3029 30.7985 21.4638 30.3789 20.8345C29.9594 20.1003 29.5399 19.3661 29.2252 18.632C29.0154 18.3173 28.8057 17.8978 28.7008 17.4782C28.5959 17.1636 28.491 16.8489 28.491 16.4294C28.3861 16.4294 28.3861 16.2196 28.491 16.1148L28.5959 16.2196C28.7008 17.0587 29.1203 17.7929 29.435 18.5271C29.7496 19.2613 30.1692 19.9955 30.6936 20.6248C31.1131 21.2541 31.4278 21.8834 31.7424 22.6175C31.7424 22.7224 31.7424 22.7224 31.7424 22.6175L31.8473 20.3101C31.8473 20.2052 31.8473 19.8906 31.8473 19.7857C31.7424 19.3661 31.5327 18.9466 31.4278 18.5271C31.1131 17.8978 30.6936 17.3734 30.1692 16.8489C29.7496 16.3245 29.2252 15.905 28.8057 15.2757C28.3861 14.7513 28.0715 14.3317 27.8617 13.5975C27.7568 13.5975 27.7568 13.3878 27.8617 13.3878H27.9666C28.1764 14.0171 28.5959 14.6464 29.0154 15.1708C29.435 15.6952 29.8545 16.2196 30.3789 16.7441C30.7985 17.2685 31.3229 17.7929 31.6375 18.4222C31.6375 18.5271 31.7424 18.632 31.7424 18.8417C31.8473 18.9466 31.8473 18.9466 31.8473 18.7368C31.8473 18.0027 31.8473 17.1636 31.8473 16.4294C31.9522 16.2196 31.8473 16.1148 31.8473 16.1148C31.8473 16.1148 31.8473 16.0099 31.8473 15.8001C31.7424 15.4855 31.6375 15.1708 31.5327 14.8562C31.3229 14.6464 31.218 14.4366 31.1131 14.3317C30.9033 14.122 30.6936 14.122 30.4838 14.0171C30.0643 13.7024 29.7496 13.3878 29.5399 12.9682C29.2252 12.6536 29.1203 12.3389 28.9106 11.9194V11.7096H29.0154C29.1203 12.1292 29.3301 12.5487 29.6447 12.9682C29.8545 13.178 30.0643 13.4927 30.3789 13.7024C30.4838 13.8073 30.6936 13.9122 30.7985 14.0171C31.1131 14.122 31.4278 14.4366 31.6375 14.7513C31.7424 14.8562 31.7424 14.8562 31.7424 14.961C31.8473 15.1708 31.9522 15.0659 31.9522 14.961C31.9522 14.7513 31.9522 14.5415 31.9522 14.3317C31.9522 13.9122 31.9522 13.3878 31.9522 12.9682C31.9522 12.8634 31.8473 12.7585 31.7424 12.7585C31.6375 12.7585 31.6375 12.6536 31.5327 12.6536C31.3229 12.6536 31.218 12.6536 31.0082 12.5487C30.6936 12.3389 30.5887 12.2341 30.4838 11.9194C30.4838 11.8145 30.3789 11.7096 30.4838 11.7096H30.5887C30.5887 11.8145 30.6936 12.0243 30.7985 12.1292C30.9033 12.2341 31.0082 12.3389 31.1131 12.4438C31.3229 12.4438 31.4278 12.5487 31.6375 12.5487C31.7424 12.5487 31.9522 12.4438 31.9522 12.3389C31.9522 11.1852 31.9522 10.3462 31.9522 9.29732C31.9522 9.19244 31.9522 8.87779 32.0571 8.87779C32.162 8.87779 32.162 8.98267 32.162 9.08755C32.162 10.1364 32.162 11.1852 32.162 12.3389C32.162 12.4438 32.2668 12.5487 32.3717 12.5487C32.5815 12.5487 32.7913 12.4438 32.8961 12.4438C33.001 12.3389 33.2108 12.2341 33.3157 12.1292C33.3157 12.0243 33.4206 11.8145 33.5254 11.7096C33.5254 11.7096 33.5254 11.7096 33.6303 11.7096V11.9194C33.4206 12.2341 33.3157 12.3389 33.001 12.5487C32.8961 12.6536 32.6864 12.6536 32.4766 12.6536L32.3717 12.7585C32.2668 12.7585 32.162 12.8634 32.162 12.9682C32.162 13.3878 32.162 13.9122 32.162 14.3317C32.162 14.5415 32.162 14.7513 32.162 14.961C32.162 15.0659 32.162 15.1708 32.2668 14.961C32.2668 14.8562 32.3717 14.8562 32.3717 14.7513C32.5815 14.4366 32.8961 14.122 33.2108 14.0171C33.3157 13.9122 33.6303 13.8073 33.7352 13.7024C33.945 13.4927 34.2596 13.178 34.4694 12.9682C34.6792 12.5487 34.8889 12.1292 35.0987 11.7096C35.2036 11.7096 35.0987 11.8145 35.0987 11.9194C34.8889 12.3389 34.784 12.6536 34.5743 12.9682C34.2596 13.3878 33.945 13.7024 33.5254 14.0171C33.3157 14.122 33.1059 14.122 33.001 14.3317C32.7913 14.4366 32.6864 14.6464 32.5815 14.8562C32.3717 15.1708 32.162 15.6952 32.162 16.1148C32.162 16.1148 32.162 16.2196 32.162 16.4294C32.162 17.1636 32.162 18.0027 32.162 18.7368C32.162 18.9466 32.2668 18.9466 32.2668 18.8417C32.3717 18.632 32.3717 18.5271 32.4766 18.4222C32.7913 17.7929 33.2108 17.2685 33.7352 16.7441C34.1547 16.2196 34.6792 15.6952 35.0987 15.1708C35.5182 14.6464 35.8329 14.0171 36.1475 13.3878C36.1475 13.3878 36.1475 13.3878 36.2524 13.3878C36.2524 13.3878 36.1475 13.5975 36.1475 13.7024C35.9378 14.3317 35.6231 14.7513 35.2036 15.2757C34.784 15.905 34.3645 16.3245 33.8401 16.8489C33.4206 17.3734 33.001 17.8978 32.6864 18.5271C32.4766 18.9466 32.3717 19.3661 32.2668 19.7857C32.2668 19.8906 32.162 20.2052 32.162 20.3101L32.2668 22.6175C32.2668 22.7224 32.2668 22.7224 32.3717 22.6175C32.5815 21.8834 33.001 21.2541 33.4206 20.6248C33.8401 19.9955 34.2596 19.2613 34.5743 18.5271C34.9938 17.7929 35.3085 17.0587 35.4133 16.2196C35.4133 16.2196 35.5182 16.1148 35.6231 16.1148C35.6231 16.2196 35.6231 16.4294 35.6231 16.5343C35.5182 16.9538 35.5182 17.1636 35.3085 17.4782C35.2036 17.8978 34.9938 18.3173 34.8889 18.632C34.4694 19.3661 34.1547 20.1003 33.6303 20.8345C33.2108 21.4638 33.001 22.198 32.5815 22.9322C32.2668 23.6664 32.2668 24.6103 32.2668 25.3445ZM28.1764 28.2813C27.9666 28.0715 27.7568 27.7568 27.652 27.5471C27.3373 27.0227 27.0227 26.4982 26.8129 25.8689C26.8129 25.7641 26.6031 25.6592 26.4982 25.5543C26.1836 25.5543 25.9738 25.4494 25.6592 25.3445C25.3445 25.1347 25.0299 24.925 24.7152 24.7152C24.4006 24.5054 24.0859 24.2957 23.8761 23.981C23.5615 23.7713 23.2468 23.5615 22.9322 23.3517C22.4078 22.9322 21.6736 22.5127 21.0443 22.198C20.415 21.7785 19.9955 21.4638 19.2613 21.2541C19.2613 21.2541 18.9466 21.1492 18.9466 21.0443C18.9466 21.0443 19.0515 20.9394 19.0515 21.0443H19.1564C19.7857 21.3589 20.415 21.6736 21.1492 22.0931C21.6736 22.3029 22.198 22.6175 22.7224 22.9322C22.9322 23.0371 23.0371 23.0371 22.9322 22.8273C22.9322 22.6175 22.8273 22.3029 22.7224 22.0931C22.6175 21.9882 22.5127 21.7785 22.3029 21.6736L21.9882 21.1492C21.4638 20.415 20.9394 19.7857 20.5199 19.1564C20.415 19.0515 20.415 19.0515 20.5199 19.0515C20.5199 18.9466 20.5199 18.9466 20.6248 19.0515C21.0443 19.6808 21.5687 20.415 22.0931 21.0443L22.5127 21.5687C22.6175 21.6736 22.7224 21.8834 22.8273 22.0931C23.0371 22.3029 23.142 22.6175 23.142 23.0371C23.142 23.142 23.2468 23.3517 23.3517 23.4566C23.5615 23.5615 23.7713 23.6664 23.981 23.8761C24.2957 24.0859 24.5054 24.2957 24.8201 24.5054C25.1347 24.7152 25.4494 24.925 25.7641 25.0299C25.9738 25.1347 26.1836 25.2396 26.2885 25.2396C26.3934 25.2396 26.4982 25.2396 26.3934 25.0299C26.1836 24.6103 25.9738 24.1908 25.7641 23.6664C25.5543 23.4566 25.4494 23.142 25.2396 22.8273C25.2396 22.7224 25.1347 22.6175 25.1347 22.6175C25.1347 22.6175 25.0299 22.5127 24.925 22.4078C24.5054 21.5687 23.981 20.8345 23.4566 20.1003C22.5127 19.0515 21.7785 18.1075 20.6248 17.1636C20.6248 17.1636 20.415 16.9538 20.5199 16.8489H20.6248C21.6736 17.8978 22.7224 18.8417 23.5615 19.9955C24.0859 20.6248 24.5054 21.1492 24.925 21.7785C25.0299 21.8834 25.1347 21.8834 25.1347 21.7785C25.1347 21.4638 25.1347 21.2541 25.2396 20.9394C25.3445 20.7296 25.4494 20.5199 25.5543 20.2052C25.6592 19.9955 25.7641 19.7857 25.8689 19.5759C26.0787 19.1564 26.1836 18.632 26.2885 18.1075C26.2885 17.5831 26.2885 17.0587 26.0787 16.6392C26.0787 16.5343 26.0787 16.5343 26.1836 16.5343C26.1836 16.5343 26.1836 16.5343 26.2885 16.5343C26.3934 17.0587 26.4982 17.5831 26.3934 18.1075C26.3934 18.632 26.2885 19.1564 25.9738 19.6808C25.8689 19.8906 25.7641 20.1003 25.6592 20.3101C25.5543 20.5199 25.4494 20.8345 25.4494 21.0443C25.3445 21.3589 25.3445 21.7785 25.3445 22.198C25.3445 22.3029 25.4494 22.5127 25.4494 22.6175C25.6592 22.9322 25.8689 23.2468 26.0787 23.5615C26.3934 24.1908 26.708 24.8201 27.0227 25.4494C27.3373 26.0787 27.652 26.708 27.9666 27.3373C28.7008 28.5959 29.6447 29.6447 30.6936 30.4838H30.7985C30.7985 30.4838 30.7985 30.5887 30.7985 30.6936C30.6936 30.6936 30.6936 30.6936 30.5887 30.6936C29.9594 30.3789 29.435 29.8545 28.9106 29.3301C28.9106 29.2252 28.8057 29.2252 28.8057 29.2252C28.7008 29.1203 28.5959 29.0154 28.491 28.9106C27.8617 28.5959 27.2324 28.3861 26.6031 28.3861C26.1836 28.2813 25.7641 28.3861 25.3445 28.3861C24.925 28.491 24.4006 28.5959 23.981 28.5959C23.142 28.491 22.3029 28.2813 21.4638 28.0715C20.6248 27.8617 19.9955 27.5471 19.2613 27.2324C19.1564 27.1275 18.9466 27.0227 18.9466 26.9178C18.9466 26.9178 19.0515 26.9178 19.1564 26.9178C19.8906 27.3373 20.7296 27.652 21.4638 27.8617C22.3029 28.1764 23.142 28.3861 23.981 28.3861C24.4006 28.3861 24.8201 28.3861 25.2396 28.2813C25.7641 28.1764 26.1836 28.1764 26.6031 28.1764C27.1275 28.1764 27.5471 28.2813 28.0715 28.3861C28.1764 28.491 28.1764 28.3861 28.1764 28.2813ZM38.6647 21.0443C38.5599 20.8345 38.455 20.5199 38.3501 20.3101C38.2452 20.1003 38.1403 19.8906 38.0354 19.6808C37.8257 19.1564 37.7208 18.632 37.6159 18.1075C37.6159 17.5831 37.6159 17.2685 37.8257 16.8489C37.8257 16.7441 37.8257 16.5343 37.9306 16.5343C37.9306 16.5343 37.9306 16.5343 37.9306 16.6392C37.7208 17.0587 37.7208 17.5831 37.7208 18.1075C37.8257 18.632 37.9306 19.1564 38.1403 19.5759C38.2452 19.7857 38.3501 19.9955 38.5599 20.2052C38.6647 20.5199 38.7696 20.7296 38.7696 20.9394C38.8745 21.2541 38.8745 21.4638 38.9794 21.7785C38.9794 21.8834 39.0843 21.8834 39.0843 21.7785C39.5038 21.1492 40.0282 20.6248 40.4478 19.9955C41.3917 18.8417 42.3357 17.8978 43.3845 16.8489C43.4894 16.8489 43.4894 16.8489 43.5943 16.8489C43.5943 16.9538 43.3845 17.1636 43.2796 17.1636C42.2308 18.1075 41.4966 19.0515 40.6575 20.1003C40.0282 20.8345 39.6087 21.5687 39.0843 22.4078C38.9794 22.5127 38.9794 22.6175 38.9794 22.6175C38.8745 22.6175 38.8745 22.7224 38.7696 22.8273C38.6647 23.142 38.455 23.4566 38.2452 23.6664C38.0354 24.1908 37.8257 24.6103 37.6159 25.0299C37.511 25.2396 37.6159 25.2396 37.7208 25.2396C37.9306 25.2396 38.0354 25.1347 38.2452 25.0299C38.5599 24.925 38.8745 24.7152 39.1892 24.5054C39.5038 24.2957 39.8185 24.0859 40.0282 23.8761C40.238 23.6664 40.4478 23.5615 40.6575 23.4566C40.7624 23.3517 40.8673 23.142 40.8673 23.0371C40.8673 22.6175 41.0771 22.3029 41.1819 22.0931C41.2868 21.8834 41.4966 21.6736 41.6015 21.5687L41.9161 21.0443C42.4405 20.415 42.7552 19.9955 43.2796 19.3661C43.2796 19.2613 43.4894 18.9466 43.5943 19.0515C43.5943 19.0515 43.5943 19.0515 43.5943 19.1564C43.0698 19.7857 42.5454 20.415 42.1259 21.1492L41.7064 21.6736C41.6015 21.7785 41.3917 21.9882 41.2868 22.0931C41.1819 22.3029 41.0771 22.6175 41.0771 22.8273C41.0771 23.0371 41.1819 23.0371 41.2868 22.9322C41.8112 22.6175 42.3357 22.3029 42.965 22.0931C43.5943 21.6736 44.2236 21.3589 44.9578 21.0443C45.0626 20.9394 45.0626 21.0443 45.1675 21.0443C45.1675 21.1492 44.8529 21.2541 44.748 21.2541C44.0138 21.5687 43.6992 21.7785 42.965 22.198C42.3357 22.5127 41.7064 22.9322 41.0771 23.3517C40.7624 23.5615 40.4478 23.7713 40.238 23.981C39.9233 24.2957 39.6087 24.5054 39.294 24.7152C38.9794 24.925 38.6647 25.1347 38.3501 25.3445C38.1403 25.4494 37.8257 25.5543 37.6159 25.5543C37.4061 25.6592 37.3012 25.7641 37.1964 25.8689C36.9866 26.4982 36.6719 27.0227 36.3573 27.5471C36.2524 27.7568 36.0426 28.0715 35.9378 28.2813C35.8329 28.3861 35.8329 28.491 36.0426 28.3861C36.4622 28.2813 36.9866 28.1764 37.4061 28.1764C37.9306 28.1764 38.3501 28.1764 38.7696 28.2813C39.1892 28.3861 39.6087 28.3861 40.0282 28.3861C40.8673 28.3861 41.7064 28.1764 42.5454 27.8617C43.3845 27.652 44.1187 27.3373 44.9578 26.9178H45.0626C45.1675 27.0227 44.9578 27.1275 44.9578 27.1275C44.1187 27.5471 43.3845 27.8617 42.6503 28.0715C41.8112 28.2813 40.8673 28.491 40.0282 28.5959C39.6087 28.5959 39.1892 28.491 38.7696 28.3861C38.3501 28.3861 37.9306 28.2813 37.511 28.3861C36.7768 28.3861 36.1475 28.5959 35.6231 28.9106C35.4133 29.0154 35.3085 29.1203 35.2036 29.2252C35.2036 29.2252 35.2036 29.2252 35.0987 29.3301C34.6792 29.8545 34.1547 30.3789 33.4206 30.6936H33.3157C33.2108 30.5887 33.2108 30.4838 33.3157 30.4838C34.3645 29.6447 35.3085 28.5959 36.0426 27.3373C36.4622 26.708 36.6719 26.0787 36.9866 25.4494C37.3012 24.8201 37.6159 24.1908 38.0354 23.5615C38.1403 23.2468 38.3501 22.9322 38.5599 22.6175C38.6647 22.5127 38.7696 22.3029 38.7696 22.198C38.7696 21.7785 38.6647 21.3589 38.6647 21.0443ZM32.7913 48.8384L32.6864 48.7336C33.1059 47.6847 34.0499 46.9505 34.9938 46.2164C35.4133 45.9017 35.9378 45.6919 36.4622 45.5871C36.9866 45.4822 37.511 45.1675 38.0354 45.0626C38.1403 45.0626 38.2452 44.9578 38.455 44.9578C38.5599 44.9578 38.7696 44.748 38.8745 44.6431C39.3989 44.0138 39.8185 43.3845 40.238 42.6503C40.7624 41.8112 41.2868 40.9722 41.6015 40.0282C42.021 39.0843 42.3357 38.2452 42.6503 37.1964C42.8601 36.2524 43.0698 35.5182 42.965 34.5743C42.965 34.5743 42.965 34.2596 43.0698 34.2596C43.0698 34.1547 43.1747 34.2596 43.1747 34.3645C43.1747 35.3085 43.0698 36.3573 42.8601 37.3012C42.6503 38.2452 42.3357 39.1892 41.9161 40.1331C41.4966 41.0771 41.0771 41.9161 40.5526 42.8601C40.238 43.3845 39.9233 43.9089 39.5038 44.4333C39.3989 44.5382 39.5038 44.6431 39.6087 44.5382C40.0282 44.4333 40.5526 44.2236 40.9722 44.0138C41.8112 43.5943 42.7552 42.965 43.4894 42.3357C43.6992 42.1259 43.9089 41.9161 44.0138 41.7064C44.1187 41.6015 44.2236 41.3917 44.2236 41.2868C44.1187 40.9722 44.1187 40.6575 44.2236 40.3429C44.2236 39.9233 44.3285 39.3989 44.5382 38.9794C44.748 38.1403 45.1675 37.4061 45.6919 36.6719C46.2164 35.9378 46.6359 35.2036 46.8457 34.3645C47.0554 33.5254 47.2652 32.6864 47.1603 31.7424H47.2652H47.3701C47.3701 32.6864 47.2652 33.5254 47.0554 34.3645C46.7408 35.2036 46.4261 36.0426 45.9017 36.7768C45.3773 37.511 44.9578 38.2452 44.748 39.0843C44.5382 39.5038 44.4333 39.9233 44.4333 40.3429C44.4333 40.5526 44.4333 40.8673 44.4333 41.0771C44.4333 41.1819 44.4333 41.2868 44.5382 41.2868C44.5382 41.1819 44.5382 41.1819 44.5382 41.1819C44.8529 40.7624 45.1675 40.3429 45.5871 39.9233C46.2164 39.0843 46.8457 38.3501 47.475 37.511L51.4605 32.5815C51.5654 32.5815 51.5654 32.4766 51.6703 32.5815C51.6703 32.5815 51.5654 32.7913 51.4605 32.8961C50.4117 34.1547 49.4678 35.4133 48.4189 36.7768C48.314 36.8817 48.314 36.8817 48.5238 36.8817C49.0482 36.7768 49.5726 36.5671 50.0971 36.3573C50.8312 36.1475 51.4605 35.8329 52.0898 35.4133C52.1947 35.4133 52.2996 35.4133 52.2996 35.5182C52.2996 35.5182 52.0898 35.728 51.985 35.728C51.2508 36.0426 50.8312 36.2524 50.2019 36.5671C49.7824 36.6719 49.4678 36.8817 49.1531 36.9866C48.7336 37.0915 48.4189 37.1964 47.9994 37.3012C47.9994 37.3012 47.8945 37.4061 47.7896 37.511C47.7896 37.511 47.7896 37.6159 47.6847 37.6159C47.0554 38.455 46.4261 39.294 45.7968 40.1331L45.1675 40.9722C45.0626 41.0771 45.0626 41.0771 45.1675 40.9722C45.3773 40.8673 45.5871 40.7624 45.7968 40.6575C46.531 40.238 47.2652 39.9233 47.9994 39.7136C48.4189 39.6087 48.7336 39.6087 49.1531 39.3989C49.4678 39.294 49.8873 39.1892 50.2019 39.0843C50.9361 38.7696 51.6703 38.455 52.1947 38.0354C52.2996 38.0354 52.4045 38.0354 52.4045 38.0354C52.5094 38.1403 52.1947 38.3501 52.1947 38.3501C51.4605 38.7696 51.041 39.0843 50.3068 39.294C49.8873 39.5038 49.5726 39.6087 49.1531 39.7136C48.8384 39.8185 48.4189 39.9233 48.1043 40.0282C47.3701 40.238 46.6359 40.5526 45.9017 40.8673C45.3773 41.1819 44.8529 41.4966 44.3285 41.9161C44.2236 42.021 44.1187 42.2308 44.0138 42.3357C43.9089 42.3357 43.804 42.4405 43.6992 42.5454C43.0698 43.1747 42.4405 43.5943 41.7064 44.1187C41.6015 44.1187 41.6015 44.2236 41.8112 44.2236C42.021 44.2236 42.2308 44.2236 42.3357 44.2236C42.965 44.2236 43.4894 44.1187 44.0138 44.0138C44.5382 43.9089 45.0626 43.804 45.5871 43.5943C46.1115 43.4894 46.531 43.2796 47.0554 43.0698C48.1043 42.7552 49.1531 42.4405 50.2019 42.1259C51.2508 41.8112 52.2996 41.4966 53.3484 41.1819C53.4533 41.1819 53.5582 41.1819 53.5582 41.2868C53.5582 41.3917 53.2436 41.3917 53.1387 41.4966C51.041 41.9161 49.258 42.5454 47.1603 43.2796C46.6359 43.4894 46.1115 43.6992 45.5871 43.804C45.0626 44.0138 44.5382 44.1187 44.0138 44.3285C43.4894 44.4333 42.965 44.5382 42.4405 44.5382C42.021 44.5382 41.6015 44.6431 41.1819 44.5382C40.9722 44.5382 40.7624 44.6431 40.6575 44.6431C39.8185 45.0626 38.9794 45.3773 38.1403 45.5871C37.9306 45.6919 37.7208 45.7968 37.511 45.7968C37.4061 45.7968 37.3012 45.9017 37.4061 45.9017C37.9306 46.0066 38.3501 46.2164 38.7696 46.4261C39.1892 46.6359 39.6087 46.9505 40.0282 47.2652C40.238 47.475 40.3429 47.6847 40.5526 47.7896C40.6575 47.9994 40.8673 48.1043 41.0771 48.2091C41.8112 48.8384 42.6503 49.258 43.4894 49.5726C44.4333 49.8873 45.2724 50.0971 46.2164 50.3068C46.3212 50.3068 46.3212 50.4117 46.3212 50.5166L46.2164 50.6215C45.2724 50.4117 44.3285 50.0971 43.3845 49.7824C42.5454 49.4678 41.6015 49.0482 40.8673 48.5238C40.6575 48.314 40.4478 48.2091 40.3429 47.9994C40.1331 47.7896 40.0282 47.6847 39.8185 47.475C39.5038 47.2652 39.0843 46.9505 38.6647 46.7408C37.9306 46.4261 37.1964 46.2164 36.3573 46.2164C36.2524 46.2164 36.0426 46.2164 35.8329 46.3212C35.728 46.4261 35.5182 46.4261 35.3085 46.6359C34.4694 47.1603 33.5254 47.8945 33.001 48.8384C32.8961 48.8384 32.8961 48.8384 32.7913 48.8384ZM38.455 59.117C35.5182 59.8512 33.1059 58.4877 33.001 56.7047C33.001 54.9217 33.001 53.4533 33.001 53.4533C33.001 51.985 33.001 50.0971 33.2108 49.4678C33.5254 48.8384 33.945 48.8384 34.2596 48.9433C34.4694 48.9433 34.4694 49.0482 34.3645 49.258C33.6303 50.8312 35.0987 50.9361 35.4133 51.1459C35.728 51.3557 36.3573 49.7824 36.3573 49.7824C36.4622 49.7824 36.4622 50.4117 36.3573 50.7264C36.2524 51.1459 36.3573 51.8801 36.7768 52.2996C37.0915 52.7191 37.511 52.4045 37.7208 52.0898C37.9306 51.6703 38.1403 51.6703 38.3501 52.5094C38.455 53.3484 39.1892 53.4533 39.5038 53.2436C39.8185 53.1387 39.9233 52.5094 40.1331 52.4045C40.238 52.2996 40.4478 52.6143 40.5526 52.7191C40.7624 52.9289 40.7624 53.0338 40.8673 53.6631C41.0771 54.3973 42.965 54.9217 43.5943 54.607C44.1187 54.2924 43.4894 53.3484 43.1747 52.9289C43.1747 52.824 43.1747 52.824 43.2796 52.9289C43.5943 53.3484 44.2236 53.9777 44.6431 53.5582C45.3773 53.1387 44.5382 52.7191 44.4333 52.6143C44.4333 52.4045 44.6431 52.4045 44.9578 52.6143C45.3773 52.824 46.531 53.4533 47.3701 53.1387C48.2091 52.824 46.6359 52.2996 47.2652 52.4045C47.7896 52.4045 48.7336 52.7191 49.258 51.8801C49.6775 51.2508 48.6287 51.041 48.1043 50.9361C47.8945 50.9361 47.8945 50.8312 48.1043 50.8312C48.5238 50.7264 49.258 50.5166 49.3629 50.0971C49.4678 49.6775 47.9994 49.4678 48.5238 49.3629C49.0482 49.1531 48.8384 48.7336 47.8945 47.9994C47.0554 47.2652 45.1675 46.0066 45.4822 46.1115C45.7968 46.2164 48.5238 46.7408 49.3629 46.9505C50.2019 47.1603 51.985 46.9505 52.2996 46.3212C52.7191 45.7968 51.7752 45.2724 51.985 44.9578C52.2996 44.6431 51.5654 44.2236 51.7752 44.3285C51.985 44.3285 53.2436 45.1675 53.5582 44.8529C53.9777 44.4333 53.1387 44.0138 53.3484 44.0138C53.5582 44.1187 55.0266 44.1187 55.0266 43.4894C55.0266 42.965 53.6631 42.7552 53.0338 42.7552C52.9289 42.7552 52.9289 42.7552 53.0338 42.7552C53.3484 42.6503 53.768 42.6503 54.0826 42.7552C54.5022 42.7552 55.4461 42.6503 55.6559 42.3357C55.8657 42.2308 55.551 42.021 55.3412 42.021C55.1315 41.9161 55.1315 41.9161 55.3412 41.8112C55.551 41.7064 55.8657 41.4966 56.0754 41.0771C56.2852 40.6575 55.9705 40.4478 55.6559 40.3429C55.4461 40.3429 55.4461 40.238 55.551 40.0282C55.6559 39.8185 55.7608 39.5038 55.6559 39.0843C55.6559 38.9794 55.551 38.7696 55.4461 38.6647C54.8168 38.1403 53.0338 38.9794 53.6631 38.455C54.3973 37.8257 53.2436 37.7208 53.5582 37.4061C53.8729 37.1964 54.607 37.0915 54.8168 36.7768C54.8168 36.5671 54.7119 36.3573 54.607 36.2524C54.2924 35.9378 53.5582 35.8329 53.8729 35.5182C54.0826 35.3085 55.2364 34.2596 54.8168 33.4206C54.3973 32.8961 53.4533 33.3157 52.9289 33.5254C52.824 33.5254 52.824 33.5254 52.9289 33.4206C53.4533 32.8961 55.0266 31.4278 54.8168 31.0082C54.607 30.5887 53.9777 30.7985 53.6631 30.9033C53.5582 30.9033 53.4533 30.9033 53.5582 30.7985C53.768 30.3789 54.0826 29.5399 53.768 29.1203C53.4533 28.8057 52.824 29.1203 52.5094 29.2252C52.4045 29.3301 52.2996 29.3301 52.4045 29.1203C52.4045 28.9106 52.2996 28.491 52.0898 28.2813C51.7752 28.0715 50.9361 29.6447 50.5166 30.1692C50.4117 30.3789 50.4117 30.274 50.3068 30.1692C50.3068 29.5399 50.0971 28.1764 49.5726 27.9666C48.9433 27.8617 48.4189 29.3301 48.314 29.9594C48.2091 30.0643 48.2091 30.0643 48.2091 29.9594C48.2091 29.435 48.2091 28.7008 47.5798 28.5959C46.9505 28.491 46.7408 30.6936 46.531 31.5327C46.4261 31.7424 46.3212 31.9522 46.2164 32.0571C45.6919 32.5815 44.5382 33.001 44.6431 31.8473C44.748 30.5887 43.9089 30.5887 43.4894 30.4838C43.0698 30.3789 42.965 31.4278 42.6503 31.5327C42.4405 31.5327 42.2308 30.9033 41.8112 31.1131C41.4966 31.218 41.4966 31.8473 41.3917 32.3717C41.3917 32.4766 41.3917 32.4766 41.3917 32.3717C41.2868 31.8473 40.9722 31.5327 40.7624 31.7424C40.3429 31.9522 40.3429 32.8961 40.3429 32.8961C40.3429 32.7913 40.1331 32.4766 40.0282 32.5815C39.8185 32.6864 39.5038 33.8401 39.5038 33.8401C39.5038 33.7352 39.0843 32.6864 38.5599 33.001C38.2452 33.2108 38.5599 33.945 38.6647 34.5743C38.6647 34.6792 38.7696 34.8889 38.7696 35.0987C38.6647 35.5182 38.5599 35.9378 38.455 36.2524C38.455 36.3573 38.3501 36.3573 38.2452 36.2524C38.0354 35.8329 37.4061 34.8889 36.8817 34.9938C35.9378 35.2036 36.2524 36.7768 36.3573 37.3012C36.4622 37.511 36.3573 37.511 36.2524 37.4061C35.9378 37.1964 35.4133 36.8817 34.9938 37.3012C34.6792 37.7208 35.4133 38.5599 35.728 38.9794C35.8329 39.0843 35.8329 39.0843 35.728 38.9794C35.4133 38.7696 34.784 38.3501 34.5743 38.6647C34.3645 39.0843 34.784 39.6087 34.9938 39.9233C35.0987 40.0282 34.9938 40.1331 34.8889 40.0282C34.5743 39.9233 34.1547 39.7136 34.0499 40.238C34.0499 40.6575 34.784 41.0771 35.2036 41.2868C35.3085 41.3917 35.3085 41.3917 35.2036 41.3917C34.8889 41.2868 34.3645 41.2868 34.3645 41.4966C34.3645 41.9161 35.3085 42.2308 35.9378 42.5454C36.6719 42.7552 37.1964 43.2796 37.1964 43.804C37.1964 44.3285 35.4133 44.2236 34.3645 45.2724C34.1547 45.5871 33.2108 46.0066 33.001 46.1115C32.6864 46.3212 32.6864 41.6015 32.6864 37.4061C32.6864 33.2108 32.6864 32.4766 32.7913 32.3717C32.7913 32.162 33.3157 31.3229 33.4206 31.3229C33.5254 31.218 33.6303 31.218 33.7352 31.218C34.784 30.6936 36.4622 31.6375 37.7208 32.2668C37.7208 32.3717 37.8257 32.3717 37.9306 32.4766C38.1403 32.4766 38.3501 32.4766 38.3501 32.4766C38.455 32.4766 38.455 32.4766 38.5599 32.4766C38.5599 32.4766 38.5599 32.3717 38.6647 32.3717C38.7696 32.3717 38.8745 32.4766 38.8745 32.4766C39.0843 32.5815 39.1892 32.6864 39.294 32.6864C39.294 32.6864 39.3989 32.4766 39.5038 32.3717C39.5038 32.2668 39.6087 32.162 39.7136 32.162C39.7136 32.0571 39.8185 32.0571 39.8185 32.0571C39.9233 32.0571 40.0282 31.8473 40.1331 31.6375C40.238 31.5327 40.3429 31.4278 40.4478 31.3229C40.5526 31.218 40.7624 31.1131 40.8673 31.1131C40.9722 31.1131 40.9722 31.1131 40.9722 31.1131C41.0771 31.218 41.0771 31.1131 41.1819 31.0082C41.1819 30.9033 41.1819 30.6936 41.0771 30.5887C40.9722 30.4838 41.0771 30.4838 41.2868 30.4838C41.3917 30.5887 41.6015 30.5887 41.6015 30.5887C41.7064 30.5887 41.8112 30.4838 41.9161 30.4838C42.021 30.4838 42.1259 30.5887 42.2308 30.5887C42.4405 30.6936 42.6503 30.4838 42.8601 30.1692C42.965 30.0643 43.1747 29.9594 43.4894 29.9594C43.4894 29.9594 43.5943 29.9594 43.6992 29.9594C43.6992 29.9594 43.804 29.9594 43.804 30.0643C44.0138 30.0643 44.4333 30.1692 44.748 30.4838C44.9578 30.6936 45.1675 31.0082 45.3773 31.218C45.4822 31.3229 45.6919 31.218 45.7968 31.218C46.0066 31.1131 46.1115 30.9033 46.1115 30.7985C46.1115 30.6936 46.1115 30.5887 46.2164 30.4838C46.2164 30.4838 46.2164 30.3789 46.2164 30.274C46.2164 30.1692 46.2164 29.9594 46.2164 29.7496C46.1115 29.5399 46.1115 29.435 46.2164 29.435C46.531 29.3301 46.2164 28.7008 46.3212 28.1764C46.4261 27.5471 47.7896 27.5471 47.7896 26.708C47.7896 26.0787 46.7408 25.9738 46.2164 25.9738C46.1115 25.9738 46.1115 25.9738 46.2164 25.9738C46.531 25.7641 46.9505 25.5543 46.8457 25.3445C46.8457 25.0299 46.3212 25.1347 44.6431 25.1347C43.1747 25.1347 40.6575 26.3934 39.9233 26.708C39.7136 26.8129 39.7136 26.8129 39.8185 26.708C41.4966 25.4494 44.3285 24.4006 45.2724 24.0859C46.3212 23.6664 47.0554 23.0371 47.0554 22.6175C47.0554 22.0931 46.0066 22.9322 46.2164 22.198C46.4261 21.4638 47.7896 20.6248 47.0554 19.6808C46.4261 18.9466 44.8529 19.8906 44.3285 20.3101C44.2236 20.415 44.1187 20.415 44.2236 20.2052C44.748 19.2613 46.1115 17.5831 45.9017 17.1636C45.7968 16.7441 45.2724 16.9538 44.9578 17.0587C44.8529 17.1636 44.748 17.0587 44.8529 16.9538C45.0626 16.4294 45.3773 15.2757 45.0626 14.8562C44.6431 14.6464 44.0138 15.0659 43.6992 15.3806C43.4894 15.4855 43.4894 15.4855 43.4894 15.2757C43.5943 14.961 43.6992 14.5415 43.5943 14.3317C43.4894 14.2269 43.1747 14.2269 43.0698 14.3317C42.6503 14.6464 42.1259 15.5903 41.9161 16.0099C41.9161 16.2196 41.8112 16.2196 41.8112 16.0099C41.8112 15.2757 41.6015 14.2269 41.1819 14.2269C40.6575 14.122 40.3429 14.8562 39.9233 15.905C39.5038 16.6392 39.1892 16.5343 38.7696 16.8489C38.6647 16.9538 38.5599 16.8489 38.5599 16.7441C38.6647 16.0099 39.1892 15.5903 38.9794 15.0659C38.9794 14.961 38.7696 14.7513 38.6647 14.7513C38.1403 14.6464 37.511 16.2196 36.7768 17.4782C35.9378 18.9466 35.4133 23.142 35.3085 25.0299C35.2036 26.2885 34.4694 27.7568 33.8401 28.7008C33.7352 28.9106 33.7352 28.8057 33.7352 28.7008C33.7352 27.652 33.6303 25.6592 34.1547 23.4566C34.4694 21.8834 34.8889 21.2541 35.5182 20.3101C35.6231 20.1003 35.728 19.8906 35.728 19.7857C36.0426 18.7368 36.2524 17.7929 36.5671 17.2685C36.7768 17.0587 36.8817 16.7441 37.0915 16.4294C37.8257 15.0659 38.0354 14.3317 38.6647 14.3317C38.7696 14.3317 38.8745 14.122 38.8745 13.8073C38.8745 13.5975 39.1892 13.2829 38.7696 13.2829C38.455 13.2829 37.511 14.2269 37.0915 14.7513C37.0915 14.8562 36.9866 14.8562 37.0915 14.6464C37.7208 13.5975 38.3501 11.6048 37.7208 11.1852C37.0915 10.8706 35.8329 12.4438 35.4133 13.178C35.3085 13.2829 35.3085 13.2829 35.4133 13.0731C35.8329 11.8145 36.4622 11.0803 36.2524 10.7657C35.8329 10.2413 34.9938 10.9755 34.6792 11.2901C34.6792 11.395 34.5743 11.395 34.6792 11.2901C34.784 10.7657 35.2036 9.82174 34.8889 9.50709C34.5743 9.08755 33.8401 9.92662 33.5254 10.6608C33.4206 10.7657 33.4206 10.7657 33.5254 10.6608C33.7352 10.1364 33.945 9.4022 33.6303 9.08755C33.3157 8.87779 33.001 9.4022 32.8961 9.71685C32.7913 9.92662 32.7913 9.92662 32.7913 9.71685C32.8961 8.66802 32.5815 7.72407 32.0571 7.82895C31.6375 7.93383 31.218 8.66802 31.218 9.71685C31.3229 9.92662 31.218 9.92662 31.218 9.71685C31.0082 9.4022 30.6936 8.87779 30.3789 9.08755C30.1692 9.4022 30.3789 10.1364 30.4838 10.6608C30.5887 10.7657 30.5887 10.7657 30.4838 10.6608C30.1692 9.92662 29.6447 8.87779 29.2252 9.29732C28.9106 9.61197 29.2252 10.7657 29.435 11.2901C29.435 11.395 29.435 11.395 29.3301 11.2901C29.0154 10.9755 28.3861 10.3462 27.9666 10.7657C27.7568 11.1852 28.1764 11.8145 28.7008 13.0731C28.7008 13.2829 28.7008 13.2829 28.5959 13.178C28.1764 12.4438 26.9178 10.451 26.3934 10.9755C25.7641 11.4999 26.3934 13.5975 26.9178 14.6464C27.0227 14.8562 27.0227 14.8562 26.9178 14.6464C26.6031 14.122 25.6592 12.8634 25.3445 13.0731C25.0299 13.2829 25.1347 13.5975 25.1347 13.8073C25.1347 14.122 25.2396 14.3317 25.3445 14.3317C25.3445 14.3317 25.3445 14.3317 25.4494 14.3317C25.9738 14.3317 26.1836 15.0659 26.9178 16.4294C27.1275 16.7441 27.2324 17.0587 27.4422 17.2685C27.7568 17.7929 28.0715 18.7368 28.2813 19.7857C28.2813 19.8906 28.3861 20.1003 28.491 20.3101C29.1203 21.2541 29.5399 21.8834 29.8545 23.4566C30.3789 25.6592 30.274 27.652 30.3789 28.7008C30.3789 28.8057 30.274 28.9106 30.1692 28.7008C29.6447 27.7568 28.8057 26.2885 28.7008 25.0299C28.7008 23.142 28.0715 18.9466 27.3373 17.4782C26.6031 16.2196 25.8689 14.6464 25.3445 14.7513C25.2396 14.7513 25.0299 14.961 25.0299 15.0659C24.8201 15.5903 25.3445 16.0099 25.4494 16.7441C25.4494 16.8489 25.3445 16.9538 25.2396 16.8489C24.925 16.5343 24.1908 15.905 23.7713 15.1708C23.3517 14.122 23.3517 14.0171 22.9322 14.2269C22.5127 14.3317 22.198 15.2757 22.198 16.0099C22.198 16.2196 22.198 16.2196 22.0931 16.0099C21.7785 15.4855 21.0443 14.0171 20.7296 14.2269C20.3101 14.3317 20.415 14.961 20.5199 15.2757C20.5199 15.4855 20.5199 15.4855 20.415 15.3806C20.1003 15.0659 19.3661 14.6464 19.0515 14.8562C18.632 15.2757 19.0515 16.4294 19.1564 16.9538C19.2613 17.0587 19.1564 17.0587 19.0515 17.0587C18.8417 16.8489 18.4222 16.6392 18.2124 16.8489C18.1075 16.9538 18.1075 17.2685 18.1075 17.3734C18.3173 18.1075 19.3661 19.3661 19.7857 20.2052C19.8906 20.415 19.7857 20.415 19.6808 20.3101C19.1564 19.8906 17.5831 18.9466 16.9538 19.6808C16.2196 20.6248 17.688 21.4638 17.7929 22.198C18.0027 22.7224 17.3734 22.198 17.0587 22.3029C16.9538 22.4078 16.9538 22.7224 16.9538 22.8273C17.0587 23.4566 17.8978 23.7713 18.7368 24.0859C19.6808 24.4006 22.5127 25.4494 24.1908 26.708C24.2957 26.8129 24.2957 26.8129 24.1908 26.708C23.3517 26.3934 20.9394 25.1347 19.471 25.1347C17.688 25.1347 17.2685 24.8201 17.1636 25.3445C17.0587 25.6592 17.4782 25.8689 17.7929 25.9738C17.8978 25.9738 17.8978 25.9738 17.7929 25.9738C17.2685 25.9738 16.2196 26.0787 16.2196 26.708C16.2196 27.5471 17.5831 27.5471 17.688 28.1764C17.7929 28.7008 17.4782 29.3301 17.7929 29.435C17.8978 29.435 17.8978 29.5399 17.8978 29.7496C17.7929 29.9594 17.7929 30.1692 17.7929 30.274C17.7929 30.3789 17.7929 30.4838 17.8978 30.4838C17.8978 30.5887 17.8978 30.6936 17.8978 30.7985C17.8978 30.9033 18.0027 31.1131 18.2124 31.218C18.3173 31.218 18.5271 31.3229 18.632 31.218C18.8417 31.0082 19.0515 30.6936 19.3661 30.4838C19.5759 30.1692 19.9955 30.0643 20.2052 30.0643C20.2052 29.9594 20.3101 29.9594 20.3101 29.9594C20.415 29.9594 20.5199 29.9594 20.6248 29.9594C20.8345 29.9594 21.0443 30.0643 21.1492 30.1692C21.3589 30.4838 21.5687 30.6936 21.7785 30.5887C21.8834 30.5887 21.9882 30.4838 22.0931 30.4838C22.198 30.4838 22.3029 30.5887 22.4078 30.5887C22.4078 30.5887 22.6175 30.5887 22.8273 30.4838C22.9322 30.4838 23.0371 30.4838 22.9322 30.5887C22.8273 30.6936 22.8273 30.9033 22.8273 31.0082C22.9322 31.1131 23.0371 31.218 23.0371 31.1131H23.142C23.3517 31.1131 23.4566 31.218 23.5615 31.3229C23.7713 31.4278 23.8761 31.5327 23.8761 31.6375C23.981 31.8473 24.1908 32.0571 24.1908 32.0571C24.2957 32.0571 24.2957 32.0571 24.4006 32.162C24.4006 32.162 24.5054 32.2668 24.6103 32.3717C24.6103 32.4766 24.7152 32.6864 24.8201 32.6864C24.8201 32.6864 24.925 32.5815 25.1347 32.4766C25.2396 32.4766 25.3445 32.3717 25.4494 32.3717C25.4494 32.3717 25.4494 32.4766 25.5543 32.4766H25.6592C25.7641 32.4766 25.8689 32.4766 26.0787 32.4766C26.1836 32.3717 26.2885 32.3717 26.3934 32.2668C27.5471 31.6375 29.2252 30.6936 30.274 31.218C30.3789 31.218 30.4838 31.218 30.5887 31.3229C30.7985 31.3229 31.218 32.162 31.3229 32.3717C31.3229 32.4766 31.3229 33.7352 31.3229 37.4061C31.3229 41.0771 31.4278 46.3212 31.0082 46.1115C30.7985 46.0066 29.8545 45.5871 29.6447 45.2724C28.5959 44.2236 26.8129 44.3285 26.8129 43.804C26.8129 43.2796 27.3373 42.7552 28.0715 42.5454C28.8057 42.2308 29.6447 42.1259 29.6447 41.4966C29.6447 41.1819 29.2252 41.2868 28.9106 41.3917C28.7008 41.3917 28.7008 41.3917 28.9106 41.2868C29.2252 41.1819 30.0643 40.7624 30.0643 40.3429C29.9594 39.9233 29.435 39.9233 29.1203 40.0282C29.0154 40.1331 29.0154 40.1331 29.1203 40.0282C29.3301 39.7136 29.7496 39.1892 29.435 38.6647C29.2252 38.3501 28.5959 38.7696 28.2813 38.9794C28.1764 39.0843 28.1764 39.0843 28.2813 38.9794C28.5959 38.5599 29.1203 37.7208 28.8057 37.1964C28.491 36.7768 27.9666 37.1964 27.7568 37.4061C27.652 37.511 27.5471 37.511 27.652 37.3012C27.652 36.7768 27.8617 35.3085 27.1275 34.9938C26.1836 34.6792 25.9738 35.9378 25.9738 36.5671C25.9738 36.6719 25.8689 36.6719 25.7641 36.5671C25.6592 36.2524 25.3445 35.5182 25.3445 35.0987C25.3445 34.8889 25.3445 34.6792 25.3445 34.5743C25.5543 33.945 26.0787 33.001 25.4494 33.001C24.8201 32.8961 24.6103 33.7352 24.5054 33.8401C24.5054 33.8401 24.1908 32.6864 24.0859 32.5815C23.8761 32.4766 23.6664 32.7913 23.6664 32.8961C23.6664 32.8961 23.6664 31.9522 23.3517 31.7424C23.0371 31.5327 22.7224 31.8473 22.6175 32.3717C22.6175 32.4766 22.6175 32.4766 22.6175 32.3717C22.6175 31.8473 22.5127 31.218 22.198 31.1131C21.8834 30.9033 21.5687 31.5327 21.3589 31.5327C21.0443 31.4278 20.9394 30.3789 20.5199 30.4838C20.1003 30.5887 19.3661 30.5887 19.3661 31.8473C19.471 33.001 18.3173 32.5815 17.7929 32.0571C17.688 31.9522 17.5831 31.7424 17.5831 31.5327C17.2685 30.6936 17.0587 28.491 16.4294 28.5959C15.905 28.7008 15.8001 29.435 15.8001 29.9594C15.8001 30.0643 15.8001 30.0643 15.8001 29.9594C15.6952 29.3301 15.2757 27.7568 14.5415 27.9666C13.7024 28.1764 13.5975 29.5399 13.5975 30.1692C13.5975 30.274 13.5975 30.3789 13.4927 30.1692C13.178 29.7496 12.6536 28.8057 12.1292 28.3861C12.0243 28.3861 11.8145 28.2813 11.7096 28.3861C11.6048 28.5959 11.6048 28.9106 11.6048 29.1203C11.7096 29.3301 11.6048 29.3301 11.4999 29.2252C11.2901 28.9106 10.7657 28.5959 10.3462 29.1203C9.92662 29.7496 10.2413 30.4838 10.451 30.7985C10.5559 30.9033 10.5559 30.9033 10.3462 30.9033C10.0315 30.6936 9.4022 30.3789 9.19244 31.0082C8.98267 31.6375 10.5559 33.001 11.0803 33.4206C11.1852 33.5254 11.1852 33.5254 11.0803 33.5254C10.6608 33.2108 9.61197 32.6864 9.29732 33.4206C8.87779 34.4694 9.92662 35.3085 10.2413 35.5182C10.451 35.8329 9.61197 35.728 9.29732 36.2524C9.29732 36.3573 9.19244 36.5671 9.29732 36.7768C9.4022 37.3012 10.1364 37.1964 10.451 37.4061C10.8706 37.7208 9.61197 37.8257 10.3462 38.455C10.9755 38.9794 9.29732 38.1403 8.56313 38.6647C8.45825 38.7696 8.35337 38.9794 8.35337 39.0843C8.24848 39.5038 8.35337 39.8185 8.45825 40.0282C8.56313 40.238 8.56313 40.3429 8.35337 40.3429C8.1436 40.4478 7.72407 40.6575 7.93383 41.0771C8.1436 41.4966 8.56313 41.7064 8.7729 41.8112C8.87779 41.9161 8.87779 41.9161 8.7729 42.021C8.45825 42.021 8.24848 42.2308 8.35337 42.3357C8.56313 42.6503 9.50709 42.7552 9.92662 42.7552C10.2413 42.6503 10.6608 42.6503 10.9755 42.7552C11.0803 42.7552 11.0803 42.7552 10.9755 42.7552C10.3462 42.7552 8.98267 42.965 8.98267 43.4894C8.98267 44.1187 10.5559 44.1187 10.6608 44.0138C10.8706 44.0138 10.0315 44.4333 10.451 44.8529C10.8706 45.1675 12.0243 44.3285 12.2341 44.3285C12.4438 44.2236 11.7096 44.6431 12.0243 44.9578C12.3389 45.2724 11.2901 45.7968 11.7096 46.3212C12.1292 46.9505 13.9122 47.0554 14.7513 46.7408C15.5903 46.531 18.3173 46.2164 18.5271 46.1115C18.8417 46.0066 17.2685 47.475 16.1148 47.8945C14.7513 48.314 14.961 49.1531 15.4855 49.3629C16.1148 49.4678 14.5415 49.6775 14.7513 50.0971C14.8562 50.5166 15.5903 50.7264 15.905 50.8312C16.1148 50.8312 16.1148 50.9361 15.905 50.9361C15.3806 51.041 14.3317 51.2508 14.7513 51.8801C15.2757 52.7191 16.2196 52.4045 16.8489 52.4045C17.4782 52.2996 15.8001 52.824 16.6392 53.1387C17.4782 53.4533 18.7368 52.824 19.0515 52.6143C19.471 52.4045 19.5759 52.4045 19.5759 52.6143C19.5759 52.7191 18.632 53.1387 19.3661 53.5582C19.8906 53.9777 20.5199 53.3484 20.8345 52.9289C20.9394 52.824 20.9394 52.824 20.8345 52.9289C20.5199 53.3484 19.8906 54.2924 20.415 54.607C21.0443 54.9217 22.9322 54.3973 23.142 53.6631C23.2468 53.0338 23.3517 52.9289 23.5615 52.7191C23.6664 52.6143 23.7713 52.2996 23.8761 52.4045C24.0859 52.5094 24.1908 53.1387 24.5054 53.2436C24.925 53.4533 25.5543 53.3484 25.7641 52.5094C25.8689 51.6703 26.1836 51.6703 26.3934 52.0898C26.6031 52.4045 26.9178 52.7191 27.2324 52.2996C27.652 51.8801 27.7568 51.1459 27.652 50.7264C27.652 50.4117 27.652 49.7824 27.652 49.7824C27.7568 49.7824 28.2813 51.3557 28.5959 51.1459C29.0154 50.9361 30.3789 50.8312 29.6447 49.258C29.5399 49.0482 29.6447 48.9433 29.7496 48.9433C30.0643 48.8384 30.5887 48.8384 30.7985 49.4678C31.1131 50.0971 31.1131 51.985 31.0082 53.4533V56.7047C31.0082 58.4877 28.491 59.8512 25.5543 59.117C13.2829 56.2852 4.15802 45.1675 4.15802 32.0571C4.15802 16.6392 16.6392 4.15802 32.0571 4.15802C47.3701 4.15802 59.9561 16.6392 59.9561 32.0571C59.9561 45.1675 50.7264 56.2852 38.455 59.117Z" fill="#21A73F"/>
<path d="M63.4677 30.2171C64.3174 29.2662 64.105 27.8927 63.1491 27.1531C62.1933 26.4135 61.8746 24.8287 62.4057 23.7722C63.0429 22.7156 62.6181 21.3421 61.4498 20.8139C60.3878 20.2856 59.7505 18.8064 60.0692 17.6442C60.3878 16.482 59.6443 15.2142 58.4761 15.0029C57.3078 14.6859 56.352 13.4181 56.4582 12.1502C56.5644 10.988 55.6085 9.93149 54.3341 9.82584C53.1658 9.82584 51.9975 8.76929 51.7851 7.50144C51.5727 6.33925 50.4045 5.49402 49.2362 5.70532C48.0679 5.91663 46.6873 5.17705 46.2624 4.01486C45.8376 2.85266 44.5632 2.21874 43.3949 2.74701C42.2266 3.16962 40.7398 2.64135 40.1025 1.69047C39.4653 0.633925 38.0846 0.316962 37.0226 0.950887C35.9605 1.69047 34.4736 1.47916 33.5178 0.633925C32.6681 -0.211308 31.2875 -0.211308 30.4378 0.633925C29.5882 1.47916 27.9951 1.69047 26.933 0.950887C25.9772 0.316962 24.5965 0.633925 23.8531 1.69047C23.2159 2.64135 21.729 3.16962 20.6669 2.74701C19.4987 2.21874 18.2242 2.85266 17.6932 4.01486C17.2683 5.17705 15.9939 5.91663 14.7194 5.70532C13.5512 5.49402 12.3829 6.33925 12.1705 7.50144C12.0643 8.76929 10.896 9.82584 9.62155 9.82584C8.45329 9.93149 7.49744 10.988 7.49744 12.1502C7.60365 13.4181 6.6478 14.6859 5.47954 15.0029C4.31128 15.2142 3.56784 16.482 3.88646 17.6442C4.20507 18.8064 3.56784 20.2856 2.50579 20.8139C1.44373 21.3421 1.01891 22.7156 1.54994 23.7722C2.08096 24.8287 1.76235 26.4135 0.806498 27.1531C-0.149351 27.8927 -0.255557 29.2662 0.487881 30.2171C1.23132 31.168 1.23132 32.7528 0.487881 33.7037C-0.255557 34.6546 -0.149351 36.0281 0.806498 36.7676C1.76235 37.6129 2.08096 39.092 1.54994 40.1486C1.01891 41.3108 1.44373 42.5786 2.50579 43.1069C3.56784 43.7408 4.20507 45.1143 3.88646 46.2765C3.56784 47.4387 4.31128 48.7066 5.47954 49.0235C6.6478 49.3405 7.60365 50.6083 7.49744 51.7705C7.49744 53.0384 8.45329 54.0949 9.62155 54.0949C10.896 54.2006 12.0643 55.1515 12.1705 56.4193C12.3829 57.5815 13.5512 58.4267 14.7194 58.2154C15.9939 58.0041 17.2683 58.8494 17.6932 60.0116C18.2242 61.0681 19.4987 61.702 20.6669 61.2794C21.729 60.7511 23.2159 61.2794 23.8531 62.3359C24.5965 63.2868 25.9772 63.6038 26.933 62.9699C27.9951 62.2303 29.5882 62.4416 30.4378 63.2868C31.2875 64.2377 32.6681 64.2377 33.5178 63.2868C34.4736 62.4416 35.9605 62.2303 37.0226 62.9699C38.0846 63.6038 39.4653 63.2868 40.1025 62.3359C40.7398 61.2794 42.2266 60.7511 43.3949 61.2794C44.5632 61.702 45.8376 61.0681 46.2624 60.0116C46.6873 58.8494 48.0679 58.0041 49.2362 58.2154C50.4045 58.4267 51.5727 57.5815 51.7851 56.4193C51.9975 55.1515 53.1658 54.2006 54.3341 54.0949C55.6085 54.0949 56.5644 53.0384 56.4582 51.7705C56.352 50.6083 57.3078 49.3405 58.4761 49.0235C59.6443 48.7066 60.3878 47.4387 60.0692 46.2765C59.7505 45.1143 60.3878 43.7408 61.4498 43.1069C62.6181 42.5786 63.0429 41.3108 62.4057 40.1486C61.8746 39.092 62.1933 37.6129 63.1491 36.7676C64.105 36.0281 64.3174 34.6546 63.4677 33.7037C62.7243 32.7528 62.7243 31.168 63.4677 30.2171ZM32.0309 62.4416C15.1442 62.4416 1.44373 48.8122 1.44373 32.0132C1.44373 15.2142 15.1442 1.58481 32.0309 1.58481C48.9176 1.58481 62.6181 15.2142 62.6181 32.0132C62.6181 48.8122 48.9176 62.4416 32.0309 62.4416Z" fill="#E85222"/>
</svg>
