<svg width="100" height="100" viewBox="0 0 100 100" fill="none" xmlns="http://www.w3.org/2000/svg">
<path d="M50.0892 3.71094C24.5238 3.71094 3.71094 24.5238 3.71094 50.0892C3.71094 75.6546 24.5238 96.3035 50.0892 96.3035C75.6546 96.3035 96.3035 75.6546 96.3035 50.0892C96.3035 24.5238 75.6546 3.71094 50.0892 3.71094ZM48.7781 76.3101H48.6142C47.7948 74.8352 46.156 73.688 44.845 72.8686C44.6811 72.5408 44.3533 72.5408 44.0256 72.3769C43.8617 72.2131 43.3701 72.2131 43.2062 72.2131C42.059 72.2131 40.748 72.5408 39.7647 73.0325C39.1092 73.3602 38.4536 73.8519 37.962 74.1796C37.6342 74.5074 37.3065 74.6713 37.1426 74.999C36.8148 75.3268 36.4871 75.4907 36.1593 75.8184C35.0121 76.6378 33.5372 77.2934 32.2262 77.785C30.7512 78.2766 30.0957 78.4405 28.6208 78.7683L27.6375 78.9322C27.6375 78.7683 27.6375 78.6044 27.8014 78.6044C29.2763 78.2766 30.7512 77.9489 32.0623 77.4572C33.5372 76.9656 34.8483 76.3101 35.9954 75.3268C36.3232 75.1629 36.4871 74.999 36.8148 74.6713C36.9787 74.5074 37.3065 74.1796 37.6342 73.8519C38.1259 73.3602 38.7814 72.8686 39.4369 72.5408C40.0924 72.2131 40.9119 71.8853 41.5674 71.7214H41.7313C41.7313 71.7214 41.5674 71.5575 41.4035 71.5575C41.0757 71.5575 40.748 71.3937 40.4202 71.2298C39.1092 70.902 37.7981 70.4104 36.651 69.7548C36.3232 69.7548 35.9954 69.591 35.8316 69.591C35.176 69.7548 34.5205 69.591 33.865 69.591C32.8817 69.591 32.0623 69.4271 31.2429 69.2632C30.4235 68.9354 29.6041 68.7716 28.7847 68.4438C27.9653 68.2799 27.1459 67.9522 26.3265 67.6244C23.2127 66.4772 20.5906 65.6578 17.313 64.8384C17.1492 64.8384 16.3297 64.6745 16.4936 64.5107C16.4936 64.3468 16.4936 64.3468 16.6575 64.3468C18.2963 64.8384 19.9351 65.3301 21.5739 65.8217C23.2127 66.3134 24.8515 66.805 26.4904 67.2966C27.3098 67.6244 28.1292 67.9522 28.9486 68.116C29.768 68.4438 30.5874 68.6077 31.4068 68.7716C32.2262 68.9354 33.0456 69.0993 33.865 69.0993C34.1927 69.0993 34.5205 69.0993 34.8483 69.0993C35.0121 69.0993 35.0121 68.9354 34.8483 68.9354C33.7011 68.116 32.7178 67.4605 31.7345 66.4772C31.5707 66.3134 31.5707 66.1495 31.4068 66.1495C31.2429 65.9856 30.9151 65.6578 30.7512 65.494C29.9318 64.8384 29.1124 64.3468 28.293 63.8551C27.3098 63.3635 26.1626 62.8719 25.0154 62.5441C24.3599 62.3802 23.8683 62.2163 23.2127 62.0525C22.7211 61.8886 22.0656 61.7247 21.4101 61.3969C20.4268 61.0692 19.7712 60.7414 18.788 60.0859C18.6241 59.922 18.1324 59.5942 18.1324 59.4304C18.1324 59.4304 18.2963 59.4304 18.4602 59.4304C19.4435 60.0859 20.5906 60.5775 21.5739 61.0692C22.2295 61.2331 22.7211 61.3969 23.3766 61.5608C23.8683 61.8886 24.5238 61.8886 25.1793 62.0525C26.3265 62.3802 27.4736 62.8719 28.4569 63.5274C28.7847 63.6913 29.1124 63.8551 29.4402 64.019C29.6041 64.1829 29.768 64.1829 29.6041 64.019L28.6208 62.708C27.6375 61.3969 26.4904 60.0859 25.5071 58.7748L25.3432 58.611C25.1793 58.4471 25.0154 58.2832 25.0154 58.2832C24.5238 58.1193 23.8683 57.9554 23.3766 57.7916C22.7211 57.6277 22.2295 57.2999 21.7378 57.136C20.5906 56.6444 19.9351 56.4805 18.9518 55.9889C18.788 55.9889 18.2963 55.4972 18.4602 55.4972C18.4602 55.3334 18.6241 55.3334 18.6241 55.3334C19.6074 55.9889 20.7545 56.4805 21.7378 56.8083C22.5572 57.136 23.3766 57.4638 24.196 57.6277C24.5238 57.6277 24.5238 57.6277 24.3599 57.4638C22.7211 55.3334 21.4101 53.5307 19.7712 51.4002C19.6074 51.4002 19.2796 50.9086 19.2796 50.9086C19.4435 50.7447 19.6074 50.9086 19.6074 50.9086L25.8348 58.611C26.8181 59.922 27.9653 61.0692 28.9486 62.3802C29.4402 63.0357 29.9318 63.6913 30.4235 64.3468C30.4235 64.3468 30.4235 64.3468 30.5874 64.5107C30.5874 64.5107 30.5874 64.3468 30.7512 64.1829C30.7512 63.8551 30.7512 63.3635 30.5874 63.0357C30.5874 62.3802 30.4235 61.7247 30.2596 61.0692C29.768 59.7581 29.1124 58.611 28.4569 57.4638C27.6375 56.3166 26.982 55.0056 26.6542 53.6945C26.1626 52.3835 25.9987 51.0725 26.1626 49.5975C26.3265 49.5975 26.3265 49.5975 26.3265 49.5975C26.3265 51.0725 26.4904 52.3835 26.8181 53.6945C27.3098 55.0056 27.8014 56.1528 28.6208 57.2999C29.4402 58.4471 30.0957 59.5942 30.5874 60.9053C30.7512 61.5608 30.9151 62.3802 31.079 63.0357C31.079 63.5274 31.079 64.019 31.079 64.5107C31.079 64.6745 31.079 65.0023 31.2429 65.1662C31.5707 65.494 31.8984 65.8217 32.0623 66.1495C33.3733 67.1328 34.6844 68.116 36.1593 68.7716C36.8148 69.0993 37.4704 69.4271 38.1259 69.591C38.4536 69.7548 38.4536 69.591 38.2898 69.4271C37.7981 68.6077 37.1426 67.7883 36.651 66.9689C35.8316 65.494 35.176 64.1829 34.6844 62.708C34.0289 61.2331 33.5372 59.7581 33.0456 58.2832C32.7178 56.8083 32.7178 55.6611 32.7178 54.1862C32.7178 54.0223 32.7178 53.3668 32.8817 53.5307C32.8817 53.5307 33.0456 53.5307 33.0456 53.6945C32.8817 55.1695 33.0456 56.6444 33.5372 58.1193C33.865 59.7581 34.3566 61.0692 35.0121 62.5441C35.6677 64.019 36.3232 65.3301 37.1426 66.6411C37.7981 67.7883 38.6175 68.7716 39.4369 69.7548C39.4369 69.9187 39.7647 70.2465 40.0924 70.2465C40.2563 70.2465 40.4202 70.4104 40.5841 70.4104C41.4035 70.5743 42.2229 71.0659 43.0423 71.2298C43.8617 71.3937 44.6811 71.7214 45.3366 72.2131C46.8116 73.3602 48.2865 74.5074 48.942 76.1462C48.942 76.1462 48.942 76.3101 48.7781 76.3101ZM50.4169 39.6008C50.4169 39.7647 50.4169 43.0423 50.4169 43.0423C50.4169 44.3533 50.5808 45.6644 50.253 47.1393C50.253 47.1393 50.253 47.1393 50.0892 47.1393C50.0892 47.3032 50.0892 47.3032 50.0892 47.3032H49.9253C49.9253 47.1393 49.7614 47.1393 49.7614 47.1393C49.5975 45.6644 49.5975 44.3533 49.5975 43.0423C49.5975 43.0423 49.5975 39.7647 49.5975 39.6008C49.7614 38.4536 49.5975 36.9787 49.1059 35.9954C48.6142 34.8483 48.1226 33.5372 47.4671 32.5539C46.8116 31.4068 46.156 30.2596 45.6644 29.1124C45.3366 28.6208 45.0089 27.9653 44.845 27.3098C44.6811 26.8181 44.5172 26.3265 44.5172 25.6709C44.3533 25.6709 44.3533 25.3432 44.5172 25.1793L44.6811 25.3432C44.845 26.6542 45.5005 27.8014 45.9922 28.9486C46.4838 30.0957 47.1393 31.2429 47.9587 32.2262C48.6142 33.2095 49.1059 34.1927 49.5975 35.3399C49.5975 35.5038 49.5975 35.5038 49.5975 35.3399L49.7614 31.7345C49.7614 31.5707 49.7614 31.079 49.7614 30.9151C49.5975 30.2596 49.2698 29.6041 49.1059 28.9486C48.6142 27.9653 47.9587 27.1459 47.1393 26.3265C46.4838 25.5071 45.6644 24.8515 45.0089 23.8683C44.3533 23.0489 43.8617 22.3933 43.5339 21.2462C43.3701 21.2462 43.3701 20.9184 43.5339 20.9184H43.6978C44.0256 21.9017 44.6811 22.885 45.3366 23.7044C45.9922 24.5238 46.6477 25.3432 47.4671 26.1626C48.1226 26.982 48.942 27.8014 49.4336 28.7847C49.4336 28.9486 49.5975 29.1124 49.5975 29.4402C49.7614 29.6041 49.7614 29.6041 49.7614 29.2763C49.7614 28.1292 49.7614 26.8181 49.7614 25.6709C49.9253 25.3432 49.7614 25.1793 49.7614 25.1793C49.7614 25.1793 49.7614 25.0154 49.7614 24.6877C49.5975 24.196 49.4336 23.7044 49.2698 23.2127C48.942 22.885 48.7781 22.5572 48.6142 22.3933C48.2865 22.0656 47.9587 22.0656 47.631 21.9017C46.9754 21.4101 46.4838 20.9184 46.156 20.2629C45.6644 19.7712 45.5005 19.2796 45.1727 18.6241V18.2963H45.3366C45.5005 18.9518 45.8283 19.6074 46.3199 20.2629C46.6477 20.5906 46.9754 21.0823 47.4671 21.4101C47.631 21.5739 47.9587 21.7378 48.1226 21.9017C48.6142 22.0656 49.1059 22.5572 49.4336 23.0489C49.5975 23.2127 49.5975 23.2127 49.5975 23.3766C49.7614 23.7044 49.9253 23.5405 49.9253 23.3766C49.9253 23.0489 49.9253 22.7211 49.9253 22.3933C49.9253 21.7378 49.9253 20.9184 49.9253 20.2629C49.9253 20.099 49.7614 19.9351 49.5975 19.9351C49.4336 19.9351 49.4336 19.7712 49.2698 19.7712C48.942 19.7712 48.7781 19.7712 48.4504 19.6074C47.9587 19.2796 47.7948 19.1157 47.631 18.6241C47.631 18.4602 47.4671 18.2963 47.631 18.2963H47.7948C47.7948 18.4602 47.9587 18.788 48.1226 18.9518C48.2865 19.1157 48.4504 19.2796 48.6142 19.4435C48.942 19.4435 49.1059 19.6074 49.4336 19.6074C49.5975 19.6074 49.9253 19.4435 49.9253 19.2796C49.9253 17.4769 49.9253 16.1659 49.9253 14.5271C49.9253 14.3632 49.9253 13.8715 50.0892 13.8715C50.253 13.8715 50.253 14.0354 50.253 14.1993C50.253 15.8381 50.253 17.4769 50.253 19.2796C50.253 19.4435 50.4169 19.6074 50.5808 19.6074C50.9086 19.6074 51.2363 19.4435 51.4002 19.4435C51.5641 19.2796 51.8919 19.1157 52.0557 18.9518C52.0557 18.788 52.2196 18.4602 52.3835 18.2963C52.3835 18.2963 52.3835 18.2963 52.5474 18.2963V18.6241C52.2196 19.1157 52.0557 19.2796 51.5641 19.6074C51.4002 19.7712 51.0725 19.7712 50.7447 19.7712L50.5808 19.9351C50.4169 19.9351 50.253 20.099 50.253 20.2629C50.253 20.9184 50.253 21.7378 50.253 22.3933C50.253 22.7211 50.253 23.0489 50.253 23.3766C50.253 23.5405 50.253 23.7044 50.4169 23.3766C50.4169 23.2127 50.5808 23.2127 50.5808 23.0489C50.9086 22.5572 51.4002 22.0656 51.8919 21.9017C52.0557 21.7378 52.5474 21.5739 52.7113 21.4101C53.039 21.0823 53.5307 20.5906 53.8584 20.2629C54.1862 19.6074 54.5139 18.9518 54.8417 18.2963C55.0056 18.2963 54.8417 18.4602 54.8417 18.6241C54.5139 19.2796 54.3501 19.7712 54.0223 20.2629C53.5307 20.9184 53.039 21.4101 52.3835 21.9017C52.0557 22.0656 51.728 22.0656 51.5641 22.3933C51.2363 22.5572 51.0725 22.885 50.9086 23.2127C50.5808 23.7044 50.253 24.5238 50.253 25.1793C50.253 25.1793 50.253 25.3432 50.253 25.6709C50.253 26.8181 50.253 28.1292 50.253 29.2763C50.253 29.6041 50.4169 29.6041 50.4169 29.4402C50.5808 29.1124 50.5808 28.9486 50.7447 28.7847C51.2363 27.8014 51.8919 26.982 52.7113 26.1626C53.3668 25.3432 54.1862 24.5238 54.8417 23.7044C55.4972 22.885 55.9889 21.9017 56.4805 20.9184C56.4805 20.9184 56.4805 20.9184 56.6444 20.9184C56.6444 20.9184 56.4805 21.2462 56.4805 21.4101C56.1528 22.3933 55.6611 23.0489 55.0056 23.8683C54.3501 24.8515 53.6945 25.5071 52.8751 26.3265C52.2196 27.1459 51.5641 27.9653 51.0725 28.9486C50.7447 29.6041 50.5808 30.2596 50.4169 30.9151C50.4169 31.079 50.253 31.5707 50.253 31.7345L50.4169 35.3399C50.4169 35.5038 50.4169 35.5038 50.5808 35.3399C50.9086 34.1927 51.5641 33.2095 52.2196 32.2262C52.8751 31.2429 53.5307 30.0957 54.0223 28.9486C54.6778 27.8014 55.1695 26.6542 55.3334 25.3432C55.3334 25.3432 55.4972 25.1793 55.6611 25.1793C55.6611 25.3432 55.6611 25.6709 55.6611 25.8348C55.4972 26.4904 55.4972 26.8181 55.1695 27.3098C55.0056 27.9653 54.6778 28.6208 54.5139 29.1124C53.8584 30.2596 53.3668 31.4068 52.5474 32.5539C51.8919 33.5372 51.5641 34.6844 50.9086 35.8316C50.4169 36.9787 50.4169 38.4536 50.4169 39.6008ZM44.0256 44.1895C43.6978 43.8617 43.3701 43.3701 43.2062 43.0423C42.7145 42.2229 42.2229 41.4035 41.8951 40.4202C41.8951 40.2563 41.5674 40.0924 41.4035 39.9286C40.9119 39.9286 40.5841 39.7647 40.0924 39.6008C39.6008 39.273 39.1092 38.9453 38.6175 38.6175C38.1259 38.2898 37.6342 37.962 37.3065 37.4704C36.8148 37.1426 36.3232 36.8148 35.8316 36.4871C35.0121 35.8316 33.865 35.176 32.8817 34.6844C31.8984 34.0289 31.2429 33.5372 30.0957 33.2095C30.0957 33.2095 29.6041 33.0456 29.6041 32.8817C29.6041 32.8817 29.768 32.7178 29.768 32.8817H29.9318C30.9151 33.3733 31.8984 33.865 33.0456 34.5205C33.865 34.8483 34.6844 35.3399 35.5038 35.8316C35.8316 35.9954 35.9954 35.9954 35.8316 35.6677C35.8316 35.3399 35.6677 34.8483 35.5038 34.5205C35.3399 34.3566 35.176 34.0289 34.8483 33.865L34.3566 33.0456C33.5372 31.8984 32.7178 30.9151 32.0623 29.9318C31.8984 29.768 31.8984 29.768 32.0623 29.768C32.0623 29.6041 32.0623 29.6041 32.2262 29.768C32.8817 30.7512 33.7011 31.8984 34.5205 32.8817L35.176 33.7011C35.3399 33.865 35.5038 34.1927 35.6677 34.5205C35.9954 34.8483 36.1593 35.3399 36.1593 35.9954C36.1593 36.1593 36.3232 36.4871 36.4871 36.651C36.8148 36.8148 37.1426 36.9787 37.4704 37.3065C37.962 37.6342 38.2898 37.962 38.7814 38.2898C39.273 38.6175 39.7647 38.9453 40.2563 39.1092C40.5841 39.273 40.9119 39.4369 41.0757 39.4369C41.2396 39.4369 41.4035 39.4369 41.2396 39.1092C40.9119 38.4536 40.5841 37.7981 40.2563 36.9787C39.9286 36.651 39.7647 36.1593 39.4369 35.6677C39.4369 35.5038 39.273 35.3399 39.273 35.3399C39.273 35.3399 39.1092 35.176 38.9453 35.0121C38.2898 33.7011 37.4704 32.5539 36.651 31.4068C35.176 29.768 34.0289 28.293 32.2262 26.8181C32.2262 26.8181 31.8984 26.4904 32.0623 26.3265H32.2262C33.865 27.9653 35.5038 29.4402 36.8148 31.2429C37.6342 32.2262 38.2898 33.0456 38.9453 34.0289C39.1092 34.1927 39.273 34.1927 39.273 34.0289C39.273 33.5372 39.273 33.2095 39.4369 32.7178C39.6008 32.3901 39.7647 32.0623 39.9286 31.5707C40.0924 31.2429 40.2563 30.9151 40.4202 30.5874C40.748 29.9318 40.9119 29.1124 41.0757 28.293C41.0757 27.4736 41.0757 26.6542 40.748 25.9987C40.748 25.8348 40.748 25.8348 40.9119 25.8348C40.9119 25.8348 40.9119 25.8348 41.0757 25.8348C41.2396 26.6542 41.4035 27.4736 41.2396 28.293C41.2396 29.1124 41.0757 29.9318 40.5841 30.7512C40.4202 31.079 40.2563 31.4068 40.0924 31.7345C39.9286 32.0623 39.7647 32.5539 39.7647 32.8817C39.6008 33.3733 39.6008 34.0289 39.6008 34.6844C39.6008 34.8483 39.7647 35.176 39.7647 35.3399C40.0924 35.8316 40.4202 36.3232 40.748 36.8148C41.2396 37.7981 41.7313 38.7814 42.2229 39.7647C42.7145 40.748 43.2062 41.7313 43.6978 42.7145C44.845 44.6811 46.3199 46.3199 47.9587 47.631H48.1226C48.1226 47.631 48.1226 47.7948 48.1226 47.9587C47.9587 47.9587 47.9587 47.9587 47.7948 47.9587C46.8116 47.4671 45.9922 46.6477 45.1727 45.8283C45.1727 45.6644 45.0089 45.6644 45.0089 45.6644C44.845 45.5005 44.6811 45.3366 44.5172 45.1727C43.5339 44.6811 42.5507 44.3533 41.5674 44.3533C40.9119 44.1895 40.2563 44.3533 39.6008 44.3533C38.9453 44.5172 38.1259 44.6811 37.4704 44.6811C36.1593 44.5172 34.8483 44.1895 33.5372 43.8617C32.2262 43.5339 31.2429 43.0423 30.0957 42.5507C29.9318 42.3868 29.6041 42.2229 29.6041 42.059C29.6041 42.059 29.768 42.059 29.9318 42.059C31.079 42.7145 32.3901 43.2062 33.5372 43.5339C34.8483 44.0256 36.1593 44.3533 37.4704 44.3533C38.1259 44.3533 38.7814 44.3533 39.4369 44.1895C40.2563 44.0256 40.9119 44.0256 41.5674 44.0256C42.3868 44.0256 43.0423 44.1895 43.8617 44.3533C44.0256 44.5172 44.0256 44.3533 44.0256 44.1895ZM60.4137 32.8817C60.2498 32.5539 60.0859 32.0623 59.922 31.7345C59.7581 31.4068 59.5942 31.079 59.4304 30.7512C59.1026 29.9318 58.9387 29.1124 58.7748 28.293C58.7748 27.4736 58.7748 26.982 59.1026 26.3265C59.1026 26.1626 59.1026 25.8348 59.2665 25.8348C59.2665 25.8348 59.2665 25.8348 59.2665 25.9987C58.9387 26.6542 58.9387 27.4736 58.9387 28.293C59.1026 29.1124 59.2665 29.9318 59.5942 30.5874C59.7581 30.9151 59.922 31.2429 60.2498 31.5707C60.4137 32.0623 60.5775 32.3901 60.5775 32.7178C60.7414 33.2095 60.7414 33.5372 60.9053 34.0289C60.9053 34.1927 61.0692 34.1927 61.0692 34.0289C61.7247 33.0456 62.5441 32.2262 63.1996 31.2429C64.6745 29.4402 66.1495 27.9653 67.7883 26.3265C67.9522 26.3265 67.9522 26.3265 68.116 26.3265C68.116 26.4904 67.7883 26.8181 67.6244 26.8181C65.9856 28.293 64.8384 29.768 63.5274 31.4068C62.5441 32.5539 61.8886 33.7011 61.0692 35.0121C60.9053 35.176 60.9053 35.3399 60.9053 35.3399C60.7414 35.3399 60.7414 35.5038 60.5775 35.6677C60.4137 36.1593 60.0859 36.651 59.7581 36.9787C59.4304 37.7981 59.1026 38.4536 58.7748 39.1092C58.611 39.4369 58.7748 39.4369 58.9387 39.4369C59.2665 39.4369 59.4304 39.273 59.7581 39.1092C60.2498 38.9453 60.7414 38.6175 61.2331 38.2898C61.7247 37.962 62.2163 37.6342 62.5441 37.3065C62.8719 36.9787 63.1996 36.8148 63.5274 36.651C63.6913 36.4871 63.8551 36.1593 63.8551 35.9954C63.8551 35.3399 64.1829 34.8483 64.3468 34.5205C64.5107 34.1927 64.8384 33.865 65.0023 33.7011L65.494 32.8817C66.3134 31.8984 66.805 31.2429 67.6244 30.2596C67.6244 30.0957 67.9522 29.6041 68.116 29.768C68.116 29.768 68.116 29.768 68.116 29.9318C67.2966 30.9151 66.4772 31.8984 65.8217 33.0456L65.1662 33.865C65.0023 34.0289 64.6745 34.3566 64.5107 34.5205C64.3468 34.8483 64.1829 35.3399 64.1829 35.6677C64.1829 35.9954 64.3468 35.9954 64.5107 35.8316C65.3301 35.3399 66.1495 34.8483 67.1328 34.5205C68.116 33.865 69.0993 33.3733 70.2465 32.8817C70.4104 32.7178 70.4104 32.8817 70.5743 32.8817C70.5743 33.0456 70.0826 33.2095 69.9187 33.2095C68.7716 33.7011 68.2799 34.0289 67.1328 34.6844C66.1495 35.176 65.1662 35.8316 64.1829 36.4871C63.6913 36.8148 63.1996 37.1426 62.8719 37.4704C62.3802 37.962 61.8886 38.2898 61.3969 38.6175C60.9053 38.9453 60.4137 39.273 59.922 39.6008C59.5942 39.7647 59.1026 39.9286 58.7748 39.9286C58.4471 40.0924 58.2832 40.2563 58.1193 40.4202C57.7916 41.4035 57.2999 42.2229 56.8083 43.0423C56.6444 43.3701 56.3166 43.8617 56.1528 44.1895C55.9889 44.3533 55.9889 44.5172 56.3166 44.3533C56.9722 44.1895 57.7916 44.0256 58.4471 44.0256C59.2665 44.0256 59.922 44.0256 60.5775 44.1895C61.2331 44.3533 61.8886 44.3533 62.5441 44.3533C63.8551 44.3533 65.1662 44.0256 66.4772 43.5339C67.7883 43.2062 68.9354 42.7145 70.2465 42.059H70.4104C70.5743 42.2229 70.2465 42.3868 70.2465 42.3868C68.9354 43.0423 67.7883 43.5339 66.6411 43.8617C65.3301 44.1895 63.8551 44.5172 62.5441 44.6811C61.8886 44.6811 61.2331 44.5172 60.5775 44.3533C59.922 44.3533 59.2665 44.1895 58.611 44.3533C57.4638 44.3533 56.4805 44.6811 55.6611 45.1727C55.3334 45.3366 55.1695 45.5005 55.0056 45.6644C55.0056 45.6644 55.0056 45.6644 54.8417 45.8283C54.1862 46.6477 53.3668 47.4671 52.2196 47.9587H52.0557C51.8919 47.7948 51.8919 47.631 52.0557 47.631C53.6945 46.3199 55.1695 44.6811 56.3166 42.7145C56.9722 41.7313 57.2999 40.748 57.7916 39.7647C58.2832 38.7814 58.7748 37.7981 59.4304 36.8148C59.5942 36.3232 59.922 35.8316 60.2498 35.3399C60.4137 35.176 60.5775 34.8483 60.5775 34.6844C60.5775 34.0289 60.4137 33.3733 60.4137 32.8817ZM51.2363 76.3101L51.0725 76.1462C51.728 74.5074 53.2029 73.3602 54.6778 72.2131C55.3334 71.7214 56.1528 71.3937 56.9722 71.2298C57.7916 71.0659 58.611 70.5743 59.4304 70.4104C59.5942 70.4104 59.7581 70.2465 60.0859 70.2465C60.2498 70.2465 60.5775 69.9187 60.7414 69.7548C61.5608 68.7716 62.2163 67.7883 62.8719 66.6411C63.6913 65.3301 64.5107 64.019 65.0023 62.5441C65.6578 61.0692 66.1495 59.7581 66.6411 58.1193C66.9689 56.6444 67.2966 55.4972 67.1328 54.0223C67.1328 54.0223 67.1328 53.5307 67.2966 53.5307C67.2966 53.3668 67.4605 53.5307 67.4605 53.6945C67.4605 55.1695 67.2966 56.8083 66.9689 58.2832C66.6411 59.7581 66.1495 61.2331 65.494 62.708C64.8384 64.1829 64.1829 65.494 63.3635 66.9689C62.8719 67.7883 62.3802 68.6077 61.7247 69.4271C61.5608 69.591 61.7247 69.7548 61.8886 69.591C62.5441 69.4271 63.3635 69.0993 64.019 68.7716C65.3301 68.116 66.805 67.1328 67.9522 66.1495C68.2799 65.8217 68.6077 65.494 68.7716 65.1662C68.9354 65.0023 69.0993 64.6745 69.0993 64.5107C68.9354 64.019 68.9354 63.5274 69.0993 63.0357C69.0993 62.3802 69.2632 61.5608 69.591 60.9053C69.9187 59.5942 70.5743 58.4471 71.3937 57.2999C72.2131 56.1528 72.8686 55.0056 73.1963 53.6945C73.5241 52.3835 73.8519 51.0725 73.688 49.5975H73.8519H74.0157C74.0157 51.0725 73.8519 52.3835 73.5241 53.6945C73.0325 55.0056 72.5408 56.3166 71.7214 57.4638C70.902 58.611 70.2465 59.7581 69.9187 61.0692C69.591 61.7247 69.4271 62.3802 69.4271 63.0357C69.4271 63.3635 69.4271 63.8551 69.4271 64.1829C69.4271 64.3468 69.4271 64.5107 69.591 64.5107C69.591 64.3468 69.591 64.3468 69.591 64.3468C70.0826 63.6913 70.5743 63.0357 71.2298 62.3802C72.2131 61.0692 73.1963 59.922 74.1796 58.611L80.4071 50.9086C80.571 50.9086 80.571 50.7447 80.7349 50.9086C80.7349 50.9086 80.571 51.2363 80.4071 51.4002C78.7683 53.3668 77.2934 55.3334 75.6546 57.4638C75.4907 57.6277 75.4907 57.6277 75.8184 57.6277C76.6378 57.4638 77.4572 57.136 78.2766 56.8083C79.4238 56.4805 80.4071 55.9889 81.3904 55.3334C81.5543 55.3334 81.7181 55.3334 81.7181 55.4972C81.7181 55.4972 81.3904 55.825 81.2265 55.825C80.0793 56.3166 79.4238 56.6444 78.4405 57.136C77.785 57.2999 77.2934 57.6277 76.8017 57.7916C76.1462 57.9554 75.6546 58.1193 74.999 58.2832C74.999 58.2832 74.8352 58.4471 74.6713 58.611C74.6713 58.611 74.6713 58.7748 74.5074 58.7748C73.5241 60.0859 72.5408 61.3969 71.5575 62.708L70.5743 64.019C70.4104 64.1829 70.4104 64.1829 70.5743 64.019C70.902 63.8551 71.2298 63.6913 71.5575 63.5274C72.7047 62.8719 73.8519 62.3802 74.999 62.0525C75.6546 61.8886 76.1462 61.8886 76.8017 61.5608C77.2934 61.3969 77.9489 61.2331 78.4405 61.0692C79.5877 60.5775 80.7349 60.0859 81.5543 59.4304C81.7181 59.4304 81.882 59.4304 81.882 59.4304C82.0459 59.5942 81.5543 59.922 81.5543 59.922C80.4071 60.5775 79.7516 61.0692 78.6044 61.3969C77.9489 61.7247 77.4572 61.8886 76.8017 62.0525C76.3101 62.2163 75.6546 62.3802 75.1629 62.5441C74.0157 62.8719 72.8686 63.3635 71.7214 63.8551C70.902 64.3468 70.0826 64.8384 69.2632 65.494C69.0993 65.6578 68.9354 65.9856 68.7716 66.1495C68.6077 66.1495 68.4438 66.3134 68.2799 66.4772C67.2966 67.4605 66.3134 68.116 65.1662 68.9354C65.0023 68.9354 65.0023 69.0993 65.3301 69.0993C65.6578 69.0993 65.9856 69.0993 66.1495 69.0993C67.1328 69.0993 67.9522 68.9354 68.7716 68.7716C69.591 68.6077 70.4104 68.4438 71.2298 68.116C72.0492 67.9522 72.7047 67.6244 73.5241 67.2966C75.1629 66.805 76.8017 66.3134 78.4405 65.8217C80.0793 65.3301 81.7181 64.8384 83.3569 64.3468C83.5208 64.3468 83.6847 64.3468 83.6847 64.5107C83.6847 64.6745 83.1931 64.6745 83.0292 64.8384C79.7516 65.494 76.9656 66.4772 73.688 67.6244C72.8686 67.9522 72.0492 68.2799 71.2298 68.4438C70.4104 68.7716 69.591 68.9354 68.7716 69.2632C67.9522 69.4271 67.1328 69.591 66.3134 69.591C65.6578 69.591 65.0023 69.7548 64.3468 69.591C64.019 69.591 63.6913 69.7548 63.5274 69.7548C62.2163 70.4104 60.9053 70.902 59.5942 71.2298C59.2665 71.3937 58.9387 71.5575 58.611 71.5575C58.4471 71.5575 58.2832 71.7214 58.4471 71.7214C59.2665 71.8853 59.922 72.2131 60.5775 72.5408C61.2331 72.8686 61.8886 73.3602 62.5441 73.8519C62.8719 74.1796 63.0357 74.5074 63.3635 74.6713C63.5274 74.999 63.8551 75.1629 64.1829 75.3268C65.3301 76.3101 66.6411 76.9656 67.9522 77.4572C69.4271 77.9489 70.7381 78.2766 72.2131 78.6044C72.3769 78.6044 72.3769 78.7683 72.3769 78.9322L72.2131 79.096C70.7381 78.7683 69.2632 78.2766 67.7883 77.785C66.4772 77.2934 65.0023 76.6378 63.8551 75.8184C63.5274 75.4907 63.1996 75.3268 63.0357 74.999C62.708 74.6713 62.5441 74.5074 62.2163 74.1796C61.7247 73.8519 61.0692 73.3602 60.4137 73.0325C59.2665 72.5408 58.1193 72.2131 56.8083 72.2131C56.6444 72.2131 56.3166 72.2131 55.9889 72.3769C55.825 72.5408 55.4972 72.5408 55.1695 72.8686C53.8584 73.688 52.3835 74.8352 51.5641 76.3101C51.4002 76.3101 51.4002 76.3101 51.2363 76.3101ZM60.0859 92.3704C55.4972 93.5175 51.728 91.3871 51.5641 88.6011C51.5641 85.8152 51.5641 83.5208 51.5641 83.5208C51.5641 81.2265 51.5641 78.2766 51.8919 77.2934C52.3835 76.3101 53.039 76.3101 53.5307 76.474C53.8584 76.474 53.8584 76.6378 53.6945 76.9656C52.5474 79.4238 54.8417 79.5877 55.3334 79.9155C55.825 80.2432 56.8083 77.785 56.8083 77.785C56.9722 77.785 56.9722 78.7683 56.8083 79.2599C56.6444 79.9155 56.8083 81.0626 57.4638 81.7181C57.9554 82.3737 58.611 81.882 58.9387 81.3904C59.2665 80.7349 59.5942 80.7349 59.922 82.0459C60.0859 83.3569 61.2331 83.5208 61.7247 83.1931C62.2163 83.0292 62.3802 82.0459 62.708 81.882C62.8719 81.7181 63.1996 82.2098 63.3635 82.3737C63.6913 82.7014 63.6913 82.8653 63.8551 83.8486C64.1829 84.9958 67.1328 85.8152 68.116 85.3235C68.9354 84.8319 67.9522 83.3569 67.4605 82.7014C67.4605 82.5375 67.4605 82.5375 67.6244 82.7014C68.116 83.3569 69.0993 84.3402 69.7548 83.6847C70.902 83.0292 69.591 82.3737 69.4271 82.2098C69.4271 81.882 69.7548 81.882 70.2465 82.2098C70.902 82.5375 72.7047 83.5208 74.0157 83.0292C75.3268 82.5375 72.8686 81.7181 73.8519 81.882C74.6713 81.882 76.1462 82.3737 76.9656 81.0626C77.6211 80.0793 75.9823 79.7516 75.1629 79.5877C74.8352 79.5877 74.8352 79.4238 75.1629 79.4238C75.8184 79.2599 76.9656 78.9322 77.1295 78.2766C77.2934 77.6211 74.999 77.2934 75.8184 77.1295C76.6378 76.8017 76.3101 76.1462 74.8352 74.999C73.5241 73.8519 70.5743 71.8853 71.0659 72.0492C71.5575 72.2131 75.8184 73.0325 77.1295 73.3602C78.4405 73.688 81.2265 73.3602 81.7181 72.3769C82.3737 71.5575 80.8987 70.7381 81.2265 70.2465C81.7181 69.7548 80.571 69.0993 80.8987 69.2632C81.2265 69.2632 83.1931 70.5743 83.6847 70.0826C84.3402 69.4271 83.0292 68.7716 83.3569 68.7716C83.6847 68.9354 85.979 68.9354 85.979 67.9522C85.979 67.1328 83.8486 66.805 82.8653 66.805C82.7014 66.805 82.7014 66.805 82.8653 66.805C83.3569 66.6411 84.0125 66.6411 84.5041 66.805C85.1596 66.805 86.6346 66.6411 86.9623 66.1495C87.2901 65.9856 86.7984 65.6578 86.4707 65.6578C86.1429 65.494 86.1429 65.494 86.4707 65.3301C86.7984 65.1662 87.2901 64.8384 87.6178 64.1829C87.9456 63.5274 87.454 63.1996 86.9623 63.0357C86.6346 63.0357 86.6346 62.8719 86.7984 62.5441C86.9623 62.2163 87.1262 61.7247 86.9623 61.0692C86.9623 60.9053 86.7984 60.5775 86.6346 60.4137C85.6513 59.5942 82.8653 60.9053 83.8486 60.0859C84.9958 59.1026 83.1931 58.9387 83.6847 58.4471C84.1763 58.1193 85.3235 57.9554 85.6513 57.4638C85.6513 57.136 85.4874 56.8083 85.3235 56.6444C84.8319 56.1528 83.6847 55.9889 84.1763 55.4972C84.5041 55.1695 86.3068 53.5307 85.6513 52.2196C84.9958 51.4002 83.5208 52.0557 82.7014 52.3835C82.5375 52.3835 82.5375 52.3835 82.7014 52.2196C83.5208 51.4002 85.979 49.1059 85.6513 48.4504C85.3235 47.7948 84.3402 48.1226 83.8486 48.2865C83.6847 48.2865 83.5208 48.2865 83.6847 48.1226C84.0125 47.4671 84.5041 46.156 84.0125 45.5005C83.5208 45.0089 82.5375 45.5005 82.0459 45.6644C81.882 45.8283 81.7181 45.8283 81.882 45.5005C81.882 45.1727 81.7181 44.5172 81.3904 44.1895C80.8987 43.8617 79.5877 46.3199 78.9322 47.1393C78.7683 47.4671 78.7683 47.3032 78.6044 47.1393C78.6044 46.156 78.2766 44.0256 77.4572 43.6978C76.474 43.5339 75.6546 45.8283 75.4907 46.8116C75.3268 46.9754 75.3268 46.9754 75.3268 46.8116C75.3268 45.9922 75.3268 44.845 74.3435 44.6811C73.3602 44.5172 73.0325 47.9587 72.7047 49.2698C72.5408 49.5975 72.3769 49.9253 72.2131 50.0892C71.3937 50.9086 69.591 51.5641 69.7548 49.7614C69.9187 47.7948 68.6077 47.7948 67.9522 47.631C67.2966 47.4671 67.1328 49.1059 66.6411 49.2698C66.3134 49.2698 65.9856 48.2865 65.3301 48.6142C64.8384 48.7781 64.8384 49.7614 64.6745 50.5808C64.6745 50.7447 64.6745 50.7447 64.6745 50.5808C64.5107 49.7614 64.019 49.2698 63.6913 49.5975C63.0357 49.9253 63.0357 51.4002 63.0357 51.4002C63.0357 51.2363 62.708 50.7447 62.5441 50.9086C62.2163 51.0725 61.7247 52.8751 61.7247 52.8751C61.7247 52.7113 61.0692 51.0725 60.2498 51.5641C59.7581 51.8919 60.2498 53.039 60.4137 54.0223C60.4137 54.1862 60.5775 54.5139 60.5775 54.8417C60.4137 55.4972 60.2498 56.1528 60.0859 56.6444C60.0859 56.8083 59.922 56.8083 59.7581 56.6444C59.4304 55.9889 58.4471 54.5139 57.6277 54.6778C56.1528 55.0056 56.6444 57.4638 56.8083 58.2832C56.9722 58.611 56.8083 58.611 56.6444 58.4471C56.1528 58.1193 55.3334 57.6277 54.6778 58.2832C54.1862 58.9387 55.3334 60.2498 55.825 60.9053C55.9889 61.0692 55.9889 61.0692 55.825 60.9053C55.3334 60.5775 54.3501 59.922 54.0223 60.4137C53.6945 61.0692 54.3501 61.8886 54.6778 62.3802C54.8417 62.5441 54.6778 62.708 54.5139 62.5441C54.0223 62.3802 53.3668 62.0525 53.2029 62.8719C53.2029 63.5274 54.3501 64.1829 55.0056 64.5107C55.1695 64.6745 55.1695 64.6745 55.0056 64.6745C54.5139 64.5107 53.6945 64.5107 53.6945 64.8384C53.6945 65.494 55.1695 65.9856 56.1528 66.4772C57.2999 66.805 58.1193 67.6244 58.1193 68.4438C58.1193 69.2632 55.3334 69.0993 53.6945 70.7381C53.3668 71.2298 51.8919 71.8853 51.5641 72.0492C51.0725 72.3769 51.0725 65.0023 51.0725 58.4471C51.0725 51.8919 51.0725 50.7447 51.2363 50.5808C51.2363 50.253 52.0557 48.942 52.2196 48.942C52.3835 48.7781 52.5474 48.7781 52.7113 48.7781C54.3501 47.9587 56.9722 49.4336 58.9387 50.4169C58.9387 50.5808 59.1026 50.5808 59.2665 50.7447C59.5942 50.7447 59.922 50.7447 59.922 50.7447C60.0859 50.7447 60.0859 50.7447 60.2498 50.7447C60.2498 50.7447 60.2498 50.5808 60.4137 50.5808C60.5775 50.5808 60.7414 50.7447 60.7414 50.7447C61.0692 50.9086 61.2331 51.0725 61.3969 51.0725C61.3969 51.0725 61.5608 50.7447 61.7247 50.5808C61.7247 50.4169 61.8886 50.253 62.0525 50.253C62.0525 50.0892 62.2163 50.0892 62.2163 50.0892C62.3802 50.0892 62.5441 49.7614 62.708 49.4336C62.8719 49.2698 63.0357 49.1059 63.1996 48.942C63.3635 48.7781 63.6913 48.6142 63.8551 48.6142C64.019 48.6142 64.019 48.6142 64.019 48.6142C64.1829 48.7781 64.1829 48.6142 64.3468 48.4504C64.3468 48.2865 64.3468 47.9587 64.1829 47.7948C64.019 47.631 64.1829 47.631 64.5107 47.631C64.6745 47.7948 65.0023 47.7948 65.0023 47.7948C65.1662 47.7948 65.3301 47.631 65.494 47.631C65.6578 47.631 65.8217 47.7948 65.9856 47.7948C66.3134 47.9587 66.6411 47.631 66.9689 47.1393C67.1328 46.9754 67.4605 46.8116 67.9522 46.8116C67.9522 46.8116 68.116 46.8116 68.2799 46.8116C68.2799 46.8116 68.4438 46.8116 68.4438 46.9754C68.7716 46.9754 69.4271 47.1393 69.9187 47.631C70.2465 47.9587 70.5743 48.4504 70.902 48.7781C71.0659 48.942 71.3937 48.7781 71.5575 48.7781C71.8853 48.6142 72.0492 48.2865 72.0492 48.1226C72.0492 47.9587 72.0492 47.7948 72.2131 47.631C72.2131 47.631 72.2131 47.4671 72.2131 47.3032C72.2131 47.1393 72.2131 46.8116 72.2131 46.4838C72.0492 46.156 72.0492 45.9922 72.2131 45.9922C72.7047 45.8283 72.2131 44.845 72.3769 44.0256C72.5408 43.0423 74.6713 43.0423 74.6713 41.7313C74.6713 40.748 73.0325 40.5841 72.2131 40.5841C72.0492 40.5841 72.0492 40.5841 72.2131 40.5841C72.7047 40.2563 73.3602 39.9286 73.1963 39.6008C73.1963 39.1092 72.3769 39.273 69.7548 39.273C67.4605 39.273 63.5274 41.2396 62.3802 41.7313C62.0525 41.8951 62.0525 41.8951 62.2163 41.7313C64.8384 39.7647 69.2632 38.1259 70.7381 37.6342C72.3769 36.9787 73.5241 35.9954 73.5241 35.3399C73.5241 34.5205 71.8853 35.8316 72.2131 34.6844C72.5408 33.5372 74.6713 32.2262 73.5241 30.7512C72.5408 29.6041 70.0826 31.079 69.2632 31.7345C69.0993 31.8984 68.9354 31.8984 69.0993 31.5707C69.9187 30.0957 72.0492 27.4736 71.7214 26.8181C71.5575 26.1626 70.7381 26.4904 70.2465 26.6542C70.0826 26.8181 69.9187 26.6542 70.0826 26.4904C70.4104 25.6709 70.902 23.8683 70.4104 23.2127C69.7548 22.885 68.7716 23.5405 68.2799 24.0321C67.9522 24.196 67.9522 24.196 67.9522 23.8683C68.116 23.3766 68.2799 22.7211 68.116 22.3933C67.9522 22.2295 67.4605 22.2295 67.2966 22.3933C66.6411 22.885 65.8217 24.3599 65.494 25.0154C65.494 25.3432 65.3301 25.3432 65.3301 25.0154C65.3301 23.8683 65.0023 22.2295 64.3468 22.2295C63.5274 22.0656 63.0357 23.2127 62.3802 24.8515C61.7247 25.9987 61.2331 25.8348 60.5775 26.3265C60.4137 26.4904 60.2498 26.3265 60.2498 26.1626C60.4137 25.0154 61.2331 24.3599 60.9053 23.5405C60.9053 23.3766 60.5775 23.0489 60.4137 23.0489C59.5942 22.885 58.611 25.3432 57.4638 27.3098C56.1528 29.6041 55.3334 36.1593 55.1695 39.1092C55.0056 41.0757 53.8584 43.3701 52.8751 44.845C52.7113 45.1727 52.7113 45.0089 52.7113 44.845C52.7113 43.2062 52.5474 40.0924 53.3668 36.651C53.8584 34.1927 54.5139 33.2095 55.4972 31.7345C55.6611 31.4068 55.825 31.079 55.825 30.9151C56.3166 29.2763 56.6444 27.8014 57.136 26.982C57.4638 26.6542 57.6277 26.1626 57.9554 25.6709C59.1026 23.5405 59.4304 22.3933 60.4137 22.3933C60.5775 22.3933 60.7414 22.0656 60.7414 21.5739C60.7414 21.2462 61.2331 20.7545 60.5775 20.7545C60.0859 20.7545 58.611 22.2295 57.9554 23.0489C57.9554 23.2127 57.7916 23.2127 57.9554 22.885C58.9387 21.2462 59.922 18.1324 58.9387 17.4769C57.9554 16.9853 55.9889 19.4435 55.3334 20.5906C55.1695 20.7545 55.1695 20.7545 55.3334 20.4268C55.9889 18.4602 56.9722 17.313 56.6444 16.8214C55.9889 16.002 54.6778 17.1492 54.1862 17.6408C54.1862 17.8047 54.0223 17.8047 54.1862 17.6408C54.3501 16.8214 55.0056 15.3465 54.5139 14.8548C54.0223 14.1993 52.8751 15.5103 52.3835 16.6575C52.2196 16.8214 52.2196 16.8214 52.3835 16.6575C52.7113 15.8381 53.039 14.6909 52.5474 14.1993C52.0557 13.8715 51.5641 14.6909 51.4002 15.1826C51.2363 15.5103 51.2363 15.5103 51.2363 15.1826C51.4002 13.5438 50.9086 12.0689 50.0892 12.2327C49.4336 12.3966 48.7781 13.5438 48.7781 15.1826C48.942 15.5103 48.7781 15.5103 48.7781 15.1826C48.4504 14.6909 47.9587 13.8715 47.4671 14.1993C47.1393 14.6909 47.4671 15.8381 47.631 16.6575C47.7948 16.8214 47.7948 16.8214 47.631 16.6575C47.1393 15.5103 46.3199 13.8715 45.6644 14.5271C45.1727 15.0187 45.6644 16.8214 45.9922 17.6408C45.9922 17.8047 45.9922 17.8047 45.8283 17.6408C45.3366 17.1492 44.3533 16.1659 43.6978 16.8214C43.3701 17.4769 44.0256 18.4602 44.845 20.4268C44.845 20.7545 44.845 20.7545 44.6811 20.5906C44.0256 19.4435 42.059 16.3297 41.2396 17.1492C40.2563 17.9686 41.2396 21.2462 42.059 22.885C42.2229 23.2127 42.2229 23.2127 42.059 22.885C41.5674 22.0656 40.0924 20.099 39.6008 20.4268C39.1092 20.7545 39.273 21.2462 39.273 21.5739C39.273 22.0656 39.4369 22.3933 39.6008 22.3933C39.6008 22.3933 39.6008 22.3933 39.7647 22.3933C40.5841 22.3933 40.9119 23.5405 42.059 25.6709C42.3868 26.1626 42.5507 26.6542 42.8784 26.982C43.3701 27.8014 43.8617 29.2763 44.1895 30.9151C44.1895 31.079 44.3533 31.4068 44.5172 31.7345C45.5005 33.2095 46.156 34.1927 46.6477 36.651C47.4671 40.0924 47.3032 43.2062 47.4671 44.845C47.4671 45.0089 47.3032 45.1727 47.1393 44.845C46.3199 43.3701 45.0089 41.0757 44.845 39.1092C44.845 36.1593 43.8617 29.6041 42.7145 27.3098C41.5674 25.3432 40.4202 22.885 39.6008 23.0489C39.4369 23.0489 39.1092 23.3766 39.1092 23.5405C38.7814 24.3599 39.6008 25.0154 39.7647 26.1626C39.7647 26.3265 39.6008 26.4904 39.4369 26.3265C38.9453 25.8348 37.7981 24.8515 37.1426 23.7044C36.4871 22.0656 36.4871 21.9017 35.8316 22.2295C35.176 22.3933 34.6844 23.8683 34.6844 25.0154C34.6844 25.3432 34.6844 25.3432 34.5205 25.0154C34.0289 24.196 32.8817 21.9017 32.3901 22.2295C31.7345 22.3933 31.8984 23.3766 32.0623 23.8683C32.0623 24.196 32.0623 24.196 31.8984 24.0321C31.4068 23.5405 30.2596 22.885 29.768 23.2127C29.1124 23.8683 29.768 25.6709 29.9318 26.4904C30.0957 26.6542 29.9318 26.6542 29.768 26.6542C29.4402 26.3265 28.7847 25.9987 28.4569 26.3265C28.293 26.4904 28.293 26.982 28.293 27.1459C28.6208 28.293 30.2596 30.2596 30.9151 31.5707C31.079 31.8984 30.9151 31.8984 30.7512 31.7345C29.9318 31.079 27.4736 29.6041 26.4904 30.7512C25.3432 32.2262 27.6375 33.5372 27.8014 34.6844C28.1292 35.5038 27.1459 34.6844 26.6542 34.8483C26.4904 35.0121 26.4904 35.5038 26.4904 35.6677C26.6542 36.651 27.9653 37.1426 29.2763 37.6342C30.7512 38.1259 35.176 39.7647 37.7981 41.7313C37.962 41.8951 37.962 41.8951 37.7981 41.7313C36.4871 41.2396 32.7178 39.273 30.4235 39.273C27.6375 39.273 26.982 38.7814 26.8181 39.6008C26.6542 40.0924 27.3098 40.4202 27.8014 40.5841C27.9653 40.5841 27.9653 40.5841 27.8014 40.5841C26.982 40.5841 25.3432 40.748 25.3432 41.7313C25.3432 43.0423 27.4736 43.0423 27.6375 44.0256C27.8014 44.845 27.3098 45.8283 27.8014 45.9922C27.9653 45.9922 27.9653 46.156 27.9653 46.4838C27.8014 46.8116 27.8014 47.1393 27.8014 47.3032C27.8014 47.4671 27.8014 47.631 27.9653 47.631C27.9653 47.7948 27.9653 47.9587 27.9653 48.1226C27.9653 48.2865 28.1292 48.6142 28.4569 48.7781C28.6208 48.7781 28.9486 48.942 29.1124 48.7781C29.4402 48.4504 29.768 47.9587 30.2596 47.631C30.5874 47.1393 31.2429 46.9754 31.5707 46.9754C31.5707 46.8116 31.7345 46.8116 31.7345 46.8116C31.8984 46.8116 32.0623 46.8116 32.2262 46.8116C32.5539 46.8116 32.8817 46.9754 33.0456 47.1393C33.3733 47.631 33.7011 47.9587 34.0289 47.7948C34.1927 47.7948 34.3566 47.631 34.5205 47.631C34.6844 47.631 34.8483 47.7948 35.0121 47.7948C35.0121 47.7948 35.3399 47.7948 35.6677 47.631C35.8316 47.631 35.9954 47.631 35.8316 47.7948C35.6677 47.9587 35.6677 48.2865 35.6677 48.4504C35.8316 48.6142 35.9954 48.7781 35.9954 48.6142H36.1593C36.4871 48.6142 36.651 48.7781 36.8148 48.942C37.1426 49.1059 37.3065 49.2698 37.3065 49.4336C37.4704 49.7614 37.7981 50.0892 37.7981 50.0892C37.962 50.0892 37.962 50.0892 38.1259 50.253C38.1259 50.253 38.2898 50.4169 38.4536 50.5808C38.4536 50.7447 38.6175 51.0725 38.7814 51.0725C38.7814 51.0725 38.9453 50.9086 39.273 50.7447C39.4369 50.7447 39.6008 50.5808 39.7647 50.5808C39.7647 50.5808 39.7647 50.7447 39.9286 50.7447H40.0924C40.2563 50.7447 40.4202 50.7447 40.748 50.7447C40.9119 50.5808 41.0757 50.5808 41.2396 50.4169C43.0423 49.4336 45.6644 47.9587 47.3032 48.7781C47.4671 48.7781 47.631 48.7781 47.7948 48.942C48.1226 48.942 48.7781 50.253 48.942 50.5808C48.942 50.7447 48.942 52.7113 48.942 58.4471C48.942 64.1829 49.1059 72.3769 48.4504 72.0492C48.1226 71.8853 46.6477 71.2298 46.3199 70.7381C44.6811 69.0993 41.8951 69.2632 41.8951 68.4438C41.8951 67.6244 42.7145 66.805 43.8617 66.4772C45.0089 65.9856 46.3199 65.8217 46.3199 64.8384C46.3199 64.3468 45.6644 64.5107 45.1727 64.6745C44.845 64.6745 44.845 64.6745 45.1727 64.5107C45.6644 64.3468 46.9754 63.6913 46.9754 63.0357C46.8116 62.3802 45.9922 62.3802 45.5005 62.5441C45.3366 62.708 45.3366 62.708 45.5005 62.5441C45.8283 62.0525 46.4838 61.2331 45.9922 60.4137C45.6644 59.922 44.6811 60.5775 44.1895 60.9053C44.0256 61.0692 44.0256 61.0692 44.1895 60.9053C44.6811 60.2498 45.5005 58.9387 45.0089 58.1193C44.5172 57.4638 43.6978 58.1193 43.3701 58.4471C43.2062 58.611 43.0423 58.611 43.2062 58.2832C43.2062 57.4638 43.5339 55.1695 42.3868 54.6778C40.9119 54.1862 40.5841 56.1528 40.5841 57.136C40.5841 57.2999 40.4202 57.2999 40.2563 57.136C40.0924 56.6444 39.6008 55.4972 39.6008 54.8417C39.6008 54.5139 39.6008 54.1862 39.6008 54.0223C39.9286 53.039 40.748 51.5641 39.7647 51.5641C38.7814 51.4002 38.4536 52.7113 38.2898 52.8751C38.2898 52.8751 37.7981 51.0725 37.6342 50.9086C37.3065 50.7447 36.9787 51.2363 36.9787 51.4002C36.9787 51.4002 36.9787 49.9253 36.4871 49.5975C35.9954 49.2698 35.5038 49.7614 35.3399 50.5808C35.3399 50.7447 35.3399 50.7447 35.3399 50.5808C35.3399 49.7614 35.176 48.7781 34.6844 48.6142C34.1927 48.2865 33.7011 49.2698 33.3733 49.2698C32.8817 49.1059 32.7178 47.4671 32.0623 47.631C31.4068 47.7948 30.2596 47.7948 30.2596 49.7614C30.4235 51.5641 28.6208 50.9086 27.8014 50.0892C27.6375 49.9253 27.4736 49.5975 27.4736 49.2698C26.982 47.9587 26.6542 44.5172 25.6709 44.6811C24.8515 44.845 24.6877 45.9922 24.6877 46.8116C24.6877 46.9754 24.6877 46.9754 24.6877 46.8116C24.5238 45.8283 23.8683 43.3701 22.7211 43.6978C21.4101 44.0256 21.2462 46.156 21.2462 47.1393C21.2462 47.3032 21.2462 47.4671 21.0823 47.1393C20.5906 46.4838 19.7712 45.0089 18.9518 44.3533C18.788 44.3533 18.4602 44.1895 18.2963 44.3533C18.1324 44.6811 18.1324 45.1727 18.1324 45.5005C18.2963 45.8283 18.1324 45.8283 17.9686 45.6644C17.6408 45.1727 16.8214 44.6811 16.1659 45.5005C15.5103 46.4838 16.002 47.631 16.3297 48.1226C16.4936 48.2865 16.4936 48.2865 16.1659 48.2865C15.6742 47.9587 14.6909 47.4671 14.3632 48.4504C14.0354 49.4336 16.4936 51.5641 17.313 52.2196C17.4769 52.3835 17.4769 52.3835 17.313 52.3835C16.6575 51.8919 15.0187 51.0725 14.5271 52.2196C13.8715 53.8584 15.5103 55.1695 16.002 55.4972C16.3297 55.9889 15.0187 55.825 14.5271 56.6444C14.5271 56.8083 14.3632 57.136 14.5271 57.4638C14.6909 58.2832 15.8381 58.1193 16.3297 58.4471C16.9853 58.9387 15.0187 59.1026 16.1659 60.0859C17.1492 60.9053 14.5271 59.5942 13.3799 60.4137C13.216 60.5775 13.0521 60.9053 13.0521 61.0692C12.8883 61.7247 13.0521 62.2163 13.216 62.5441C13.3799 62.8719 13.3799 63.0357 13.0521 63.0357C12.7244 63.1996 12.0689 63.5274 12.3966 64.1829C12.7244 64.8384 13.3799 65.1662 13.7077 65.3301C13.8715 65.494 13.8715 65.494 13.7077 65.6578C13.216 65.6578 12.8883 65.9856 13.0521 66.1495C13.3799 66.6411 14.8548 66.805 15.5103 66.805C16.002 66.6411 16.6575 66.6411 17.1492 66.805C17.313 66.805 17.313 66.805 17.1492 66.805C16.1659 66.805 14.0354 67.1328 14.0354 67.9522C14.0354 68.9354 16.4936 68.9354 16.6575 68.7716C16.9853 68.7716 15.6742 69.4271 16.3297 70.0826C16.9853 70.5743 18.788 69.2632 19.1157 69.2632C19.4435 69.0993 18.2963 69.7548 18.788 70.2465C19.2796 70.7381 17.6408 71.5575 18.2963 72.3769C18.9518 73.3602 21.7378 73.5241 23.0489 73.0325C24.3599 72.7047 28.6208 72.2131 28.9486 72.0492C29.4402 71.8853 26.982 74.1796 25.1793 74.8352C23.0489 75.4907 23.3766 76.8017 24.196 77.1295C25.1793 77.2934 22.7211 77.6211 23.0489 78.2766C23.2127 78.9322 24.3599 79.2599 24.8515 79.4238C25.1793 79.4238 25.1793 79.5877 24.8515 79.5877C24.0321 79.7516 22.3933 80.0793 23.0489 81.0626C23.8683 82.3737 25.3432 81.882 26.3265 81.882C27.3098 81.7181 24.6877 82.5375 25.9987 83.0292C27.3098 83.5208 29.2763 82.5375 29.768 82.2098C30.4235 81.882 30.5874 81.882 30.5874 82.2098C30.5874 82.3737 29.1124 83.0292 30.2596 83.6847C31.079 84.3402 32.0623 83.3569 32.5539 82.7014C32.7178 82.5375 32.7178 82.5375 32.5539 82.7014C32.0623 83.3569 31.079 84.8319 31.8984 85.3235C32.8817 85.8152 35.8316 84.9958 36.1593 83.8486C36.3232 82.8653 36.4871 82.7014 36.8148 82.3737C36.9787 82.2098 37.1426 81.7181 37.3065 81.882C37.6342 82.0459 37.7981 83.0292 38.2898 83.1931C38.9453 83.5208 39.9286 83.3569 40.2563 82.0459C40.4202 80.7349 40.9119 80.7349 41.2396 81.3904C41.5674 81.882 42.059 82.3737 42.5507 81.7181C43.2062 81.0626 43.3701 79.9155 43.2062 79.2599C43.2062 78.7683 43.2062 77.785 43.2062 77.785C43.3701 77.785 44.1895 80.2432 44.6811 79.9155C45.3366 79.5877 47.4671 79.4238 46.3199 76.9656C46.156 76.6378 46.3199 76.474 46.4838 76.474C46.9754 76.3101 47.7948 76.3101 48.1226 77.2934C48.6142 78.2766 48.6142 81.2265 48.4504 83.5208V88.6011C48.4504 91.3871 44.5172 93.5175 39.9286 92.3704C20.7545 87.9456 6.49691 70.5743 6.49691 50.0892C6.49691 25.9987 25.9987 6.49691 50.0892 6.49691C74.0157 6.49691 93.6814 25.9987 93.6814 50.0892C93.6814 70.5743 79.2599 87.9456 60.0859 92.3704Z" fill="#21A73F"/>
<path d="M99.1683 47.2142C100.496 45.7284 100.164 43.5823 98.6705 42.4267C97.177 41.2712 96.6791 38.7949 97.5089 37.144C98.5045 35.4932 97.8408 33.3471 96.0153 32.5217C94.3559 31.6962 93.3602 29.3851 93.858 27.5691C94.3559 25.7532 93.1943 23.7722 91.3689 23.442C89.5435 22.9468 88.0499 20.9657 88.2159 18.9847C88.3818 17.1688 86.8883 15.518 84.897 15.3529C83.0716 15.3529 81.2461 13.702 80.9143 11.721C80.5824 9.90508 78.757 8.5844 76.9316 8.91457C75.1061 9.24474 72.9488 8.08915 72.2851 6.27321C71.6213 4.45728 69.6299 3.46678 67.8045 4.2922C65.9791 4.95254 63.6559 4.12712 62.6602 2.64135C61.6645 0.990508 59.5072 0.495254 57.8478 1.48576C56.1883 2.64135 53.8651 2.31118 52.3715 0.990508C51.044 -0.330169 48.8867 -0.330169 47.5591 0.990508C46.2315 2.31118 43.7423 2.64135 42.0829 1.48576C40.5894 0.495254 38.4321 0.990508 37.2704 2.64135C36.2748 4.12712 33.9515 4.95254 32.2921 4.2922C30.4667 3.46678 28.4753 4.45728 27.6456 6.27321C26.9818 8.08915 24.9904 9.24474 22.9991 8.91457C21.1737 8.5844 19.3483 9.90508 19.0164 11.721C18.8504 13.702 17.025 15.3529 15.0337 15.3529C13.2083 15.518 11.7148 17.1688 11.7148 18.9847C11.8807 20.9657 10.3872 22.9468 8.56178 23.442C6.73637 23.7722 5.57475 25.7532 6.07259 27.5691C6.57043 29.3851 5.57475 31.6962 3.91529 32.5217C2.25583 33.3471 1.59204 35.4932 2.42178 37.144C3.25151 38.7949 2.75367 41.2712 1.26015 42.4267C-0.233362 43.5823 -0.399308 45.7284 0.762315 47.2142C1.92394 48.7 1.92394 51.1762 0.762315 52.662C-0.399308 54.1477 -0.233362 56.2938 1.26015 57.4494C2.75367 58.7701 3.25151 61.0813 2.42178 62.7321C1.59204 64.5481 2.25583 66.5291 3.91529 67.3545C5.57475 68.345 6.57043 70.4911 6.07259 72.3071C5.57475 74.123 6.73637 76.104 8.56178 76.5993C10.3872 77.0945 11.8807 79.0755 11.7148 80.8915C11.7148 82.8725 13.2083 84.5233 15.0337 84.5233C17.025 84.6884 18.8504 86.1742 19.0164 88.1552C19.3483 89.9711 21.1737 91.2918 22.9991 90.9616C24.9904 90.6314 26.9818 91.9521 27.6456 93.7681C28.4753 95.4189 30.4667 96.4094 32.2921 95.7491C33.9515 94.9236 36.2748 95.7491 37.2704 97.3999C38.4321 98.8857 40.5894 99.3809 42.0829 98.3904C43.7423 97.2348 46.2315 97.565 47.5591 98.8857C48.8867 100.371 51.044 100.371 52.3715 98.8857C53.8651 97.565 56.1883 97.2348 57.8478 98.3904C59.5072 99.3809 61.6645 98.8857 62.6602 97.3999C63.6559 95.7491 65.9791 94.9236 67.8045 95.7491C69.6299 96.4094 71.6213 95.4189 72.2851 93.7681C72.9488 91.9521 75.1061 90.6314 76.9316 90.9616C78.757 91.2918 80.5824 89.9711 80.9143 88.1552C81.2461 86.1742 83.0716 84.6884 84.897 84.5233C86.8883 84.5233 88.3818 82.8725 88.2159 80.8915C88.0499 79.0755 89.5435 77.0945 91.3689 76.5993C93.1943 76.104 94.3559 74.123 93.858 72.3071C93.3602 70.4911 94.3559 68.345 96.0153 67.3545C97.8408 66.5291 98.5045 64.5481 97.5089 62.7321C96.6791 61.0813 97.177 58.7701 98.6705 57.4494C100.164 56.2938 100.496 54.1477 99.1683 52.662C98.0067 51.1762 98.0067 48.7 99.1683 47.2142ZM50.0483 97.565C23.6629 97.565 2.25583 76.2691 2.25583 50.0206C2.25583 23.7722 23.6629 2.47627 50.0483 2.47627C76.4337 2.47627 97.8408 23.7722 97.8408 50.0206C97.8408 76.2691 76.4337 97.565 50.0483 97.565Z" fill="#E85222"/>
</svg>
