<svg width="108" height="108" viewBox="0 0 108 108" fill="none" xmlns="http://www.w3.org/2000/svg">
<path d="M107.102 50.9913C108.536 49.3867 108.177 47.0689 106.564 45.8209C104.951 44.5728 104.413 41.8985 105.31 40.1156C106.385 38.3326 105.668 36.0149 103.697 35.1234C101.904 34.2319 100.829 31.7359 101.367 29.7747C101.904 27.8135 100.65 25.674 98.6784 25.3174C96.7069 24.7825 95.0939 22.643 95.2732 20.5035C95.4524 18.5423 93.8394 16.7594 91.6887 16.5811C89.7173 16.5811 87.7458 14.7982 87.3874 12.6587C87.029 10.6975 85.0575 9.27115 83.0861 9.62773C81.1146 9.98432 78.7848 8.73628 78.0679 6.77507C77.351 4.81387 75.2003 3.74412 73.2289 4.63558C71.2574 5.34874 68.7483 4.45728 67.673 2.85266C66.5977 1.06975 64.2678 0.534874 62.4756 1.60462C60.6834 2.85266 58.1743 2.49608 56.5613 1.06975C55.1275 -0.356583 52.7976 -0.356583 51.3638 1.06975C49.9301 2.49608 47.2417 2.85266 45.4495 1.60462C43.8365 0.534874 41.5066 1.06975 40.2521 2.85266C39.1768 4.45728 36.6676 5.34874 34.8754 4.63558C32.904 3.74412 30.7533 4.81387 29.8572 6.77507C29.1403 8.73628 26.9897 9.98432 24.839 9.62773C22.8676 9.27115 20.8961 10.6975 20.5377 12.6587C20.3585 14.7982 18.387 16.5811 16.2364 16.5811C14.2649 16.7594 12.6519 18.5423 12.6519 20.5035C12.8312 22.643 11.2182 24.7825 9.24672 25.3174C7.27528 25.674 6.02073 27.8135 6.5584 29.7747C7.09606 31.7359 6.02073 34.2319 4.22851 35.1234C2.4363 36.0149 1.71941 38.3326 2.61552 40.1156C3.51163 41.8985 2.97396 44.5728 1.36097 45.8209C-0.252031 47.0689 -0.431252 49.3867 0.8233 50.9913C2.07785 52.596 2.07785 55.2703 0.8233 56.875C-0.431252 58.4796 -0.252031 60.7974 1.36097 62.0454C2.97396 63.4717 3.51163 65.9678 2.61552 67.7507C1.71941 69.7119 2.4363 71.8514 4.22851 72.7429C6.02073 73.8126 7.09606 76.1304 6.5584 78.0916C6.02073 80.0528 7.27528 82.1923 9.24672 82.7272C11.2182 83.2621 12.8312 85.4016 12.6519 87.3628C12.6519 89.5023 14.2649 91.2852 16.2364 91.2852C18.387 91.4635 20.3585 93.0681 20.5377 95.2076C20.8961 97.1688 22.8676 98.5951 24.839 98.2386C26.9897 97.882 29.1403 99.3083 29.8572 101.27C30.7533 103.052 32.904 104.122 34.8754 103.409C36.6676 102.518 39.1768 103.409 40.2521 105.192C41.5066 106.797 43.8365 107.331 45.4495 106.262C47.2417 105.014 49.9301 105.37 51.3638 106.797C52.7976 108.401 55.1275 108.401 56.5613 106.797C58.1743 105.37 60.6834 105.014 62.4756 106.262C64.2678 107.331 66.5977 106.797 67.673 105.192C68.7483 103.409 71.2574 102.518 73.2289 103.409C75.2003 104.122 77.351 103.052 78.0679 101.27C78.7848 99.3083 81.1146 97.882 83.0861 98.2386C85.0575 98.5951 87.029 97.1688 87.3874 95.2076C87.7458 93.0681 89.7173 91.4635 91.6887 91.2852C93.8394 91.2852 95.4524 89.5023 95.2732 87.3628C95.0939 85.4016 96.7069 83.2621 98.6784 82.7272C100.65 82.1923 101.904 80.0528 101.367 78.0916C100.829 76.1304 101.904 73.8126 103.697 72.7429C105.668 71.8514 106.385 69.7119 105.31 67.7507C104.413 65.9678 104.951 63.4717 106.564 62.0454C108.177 60.7974 108.536 58.4796 107.102 56.875C105.847 55.2703 105.847 52.596 107.102 50.9913ZM54.0522 105.37C25.5559 105.37 2.4363 82.3706 2.4363 54.0223C2.4363 25.674 25.5559 2.67437 54.0522 2.67437C82.5484 2.67437 105.668 25.674 105.668 54.0223C105.668 82.3706 82.5484 105.37 54.0522 105.37Z" fill="#E85222"/>
</svg>
