<svg width="100" height="100" viewBox="0 0 100 100" fill="none" xmlns="http://www.w3.org/2000/svg">
<path d="M50.0885 0C22.4779 0 0 22.4779 0 50.0885C0 77.6991 22.4779 100 50.0885 100C77.6991 100 100 77.6991 100 50.0885C100 22.4779 77.6991 0 50.0885 0ZM48.6726 78.4071H48.4956C47.6106 76.8142 45.8407 75.5752 44.4248 74.6903C44.2478 74.3363 43.8938 74.3363 43.5398 74.1593C43.3628 73.9823 42.8319 73.9823 42.6549 73.9823C41.4159 73.9823 40 74.3363 38.9381 74.8673C38.2301 75.2212 37.5221 75.7522 36.9912 76.1062C36.6372 76.4602 36.2832 76.6372 36.1062 76.9912C35.7522 77.3451 35.3982 77.5221 35.0442 77.8761C33.8053 78.7611 32.2124 79.469 30.7965 80C29.2035 80.531 28.4956 80.708 26.9027 81.0619L25.8407 81.2389C25.8407 81.0619 25.8407 80.885 26.0177 80.885C27.6106 80.531 29.2035 80.177 30.6195 79.646C32.2124 79.115 33.6283 78.4071 34.8673 77.3451C35.2212 77.1681 35.3982 76.9912 35.7522 76.6372C35.9292 76.4602 36.2832 76.1062 36.6372 75.7522C37.1681 75.2212 37.8761 74.6903 38.5841 74.3363C39.292 73.9823 40.177 73.6283 40.885 73.4513H41.0619C41.0619 73.4513 40.885 73.2743 40.708 73.2743C40.354 73.2743 40 73.0973 39.646 72.9204C38.2301 72.5664 36.8142 72.0354 35.5752 71.3274C35.2212 71.3274 34.8673 71.1504 34.6903 71.1504C33.9823 71.3274 33.2743 71.1504 32.5664 71.1504C31.5044 71.1504 30.6195 70.9735 29.7345 70.7965C28.8496 70.4425 27.9646 70.2655 27.0796 69.9115C26.1947 69.7345 25.3097 69.3805 24.4248 69.0265C21.0619 67.7876 18.2301 66.9027 14.6903 66.0177C14.5133 66.0177 13.6283 65.8407 13.8053 65.6637C13.8053 65.4867 13.8053 65.4867 13.9823 65.4867C15.7522 66.0177 17.5221 66.5487 19.292 67.0796C21.0619 67.6106 22.8319 68.1416 24.6018 68.6726C25.4867 69.0265 26.3717 69.3805 27.2566 69.5575C28.1416 69.9115 29.0265 70.0885 29.9115 70.2655C30.7965 70.4425 31.6814 70.6195 32.5664 70.6195C32.9204 70.6195 33.2743 70.6195 33.6283 70.6195C33.8053 70.6195 33.8053 70.4425 33.6283 70.4425C32.3894 69.5575 31.3274 68.8496 30.2655 67.7876C30.0885 67.6106 30.0885 67.4336 29.9115 67.4336C29.7345 67.2566 29.3805 66.9027 29.2035 66.7257C28.3186 66.0177 27.4336 65.4867 26.5487 64.9558C25.4867 64.4248 24.2478 63.8938 23.0088 63.5398C22.3009 63.3628 21.7699 63.1858 21.0619 63.0088C20.531 62.8319 19.823 62.6549 19.115 62.3009C18.0531 61.9469 17.3451 61.5929 16.2832 60.885C16.1062 60.708 15.5752 60.354 15.5752 60.177C15.5752 60.177 15.7522 60.177 15.9292 60.177C16.9912 60.885 18.2301 61.4159 19.292 61.9469C20 62.1239 20.531 62.3009 21.2389 62.4779C21.7699 62.8319 22.4779 62.8319 23.1858 63.0088C24.4248 63.3628 25.6637 63.8938 26.7257 64.6018C27.0796 64.7788 27.4336 64.9558 27.7876 65.1327C27.9646 65.3097 28.1416 65.3097 27.9646 65.1327L26.9027 63.7168C25.8407 62.3009 24.6018 60.885 23.5398 59.469L23.3628 59.292C23.1858 59.115 23.0088 58.9381 23.0088 58.9381C22.4779 58.7611 21.7699 58.5841 21.2389 58.4071C20.531 58.2301 20 57.8761 19.469 57.6991C18.2301 57.1681 17.5221 56.9912 16.4602 56.4602C16.2832 56.4602 15.7522 55.9292 15.9292 55.9292C15.9292 55.7522 16.1062 55.7522 16.1062 55.7522C17.1681 56.4602 18.4071 56.9912 19.469 57.3451C20.354 57.6991 21.2389 58.0531 22.1239 58.2301C22.4779 58.2301 22.4779 58.2301 22.3009 58.0531C20.531 55.7522 19.115 53.8053 17.3451 51.5044C17.1681 51.5044 16.8142 50.9735 16.8142 50.9735C16.9912 50.7965 17.1681 50.9735 17.1681 50.9735L23.8938 59.292C24.9558 60.708 26.1947 61.9469 27.2566 63.3628C27.7876 64.0708 28.3186 64.7788 28.8496 65.4867C28.8496 65.4867 28.8496 65.4867 29.0265 65.6637C29.0265 65.6637 29.0265 65.4867 29.2035 65.3097C29.2035 64.9558 29.2035 64.4248 29.0265 64.0708C29.0265 63.3628 28.8496 62.6549 28.6726 61.9469C28.1416 60.531 27.4336 59.292 26.7257 58.0531C25.8407 56.8142 25.1327 55.3982 24.7788 53.9823C24.2478 52.5664 24.0708 51.1504 24.2478 49.5575C24.4248 49.5575 24.4248 49.5575 24.4248 49.5575C24.4248 51.1504 24.6018 52.5664 24.9558 53.9823C25.4867 55.3982 26.0177 56.6372 26.9027 57.8761C27.7876 59.115 28.4956 60.354 29.0265 61.7699C29.2035 62.4779 29.3805 63.3628 29.5575 64.0708C29.5575 64.6018 29.5575 65.1327 29.5575 65.6637C29.5575 65.8407 29.5575 66.1947 29.7345 66.3717C30.0885 66.7257 30.4425 67.0796 30.6195 67.4336C32.0354 68.4956 33.4513 69.5575 35.0442 70.2655C35.7522 70.6195 36.4602 70.9735 37.1681 71.1504C37.5221 71.3274 37.5221 71.1504 37.3451 70.9735C36.8142 70.0885 36.1062 69.2035 35.5752 68.3186C34.6903 66.7257 33.9823 65.3097 33.4513 63.7168C32.7434 62.1239 32.2124 60.531 31.6814 58.9381C31.3274 57.3451 31.3274 56.1062 31.3274 54.5133C31.3274 54.3363 31.3274 53.6283 31.5044 53.8053C31.5044 53.8053 31.6814 53.8053 31.6814 53.9823C31.5044 55.5752 31.6814 57.1681 32.2124 58.7611C32.5664 60.531 33.0973 61.9469 33.8053 63.5398C34.5133 65.1327 35.2212 66.5487 36.1062 67.9646C36.8142 69.2035 37.6991 70.2655 38.5841 71.3274C38.5841 71.5044 38.9381 71.8584 39.292 71.8584C39.469 71.8584 39.646 72.0354 39.823 72.0354C40.708 72.2124 41.5929 72.7434 42.4779 72.9204C43.3628 73.0973 44.2478 73.4513 44.9558 73.9823C46.5487 75.2212 48.1416 76.4602 48.8496 78.2301C48.8496 78.2301 48.8496 78.4071 48.6726 78.4071ZM50.4425 38.7611C50.4425 38.9381 50.4425 42.4779 50.4425 42.4779C50.4425 43.8938 50.6195 45.3097 50.2655 46.9027C50.2655 46.9027 50.2655 46.9027 50.0885 46.9027C50.0885 47.0796 50.0885 47.0796 50.0885 47.0796H49.9115C49.9115 46.9027 49.7345 46.9027 49.7345 46.9027C49.5575 45.3097 49.5575 43.8938 49.5575 42.4779C49.5575 42.4779 49.5575 38.9381 49.5575 38.7611C49.7345 37.5221 49.5575 35.9292 49.0265 34.8673C48.4956 33.6283 47.9646 32.2124 47.2566 31.1504C46.5487 29.9115 45.8407 28.6726 45.3097 27.4336C44.9558 26.9027 44.6018 26.1947 44.4248 25.4867C44.2478 24.9558 44.0708 24.4248 44.0708 23.7168C43.8938 23.7168 43.8938 23.3628 44.0708 23.1858L44.2478 23.3628C44.4248 24.7788 45.1327 26.0177 45.6637 27.2566C46.1947 28.4956 46.9027 29.7345 47.7876 30.7965C48.4956 31.8584 49.0265 32.9204 49.5575 34.1593C49.5575 34.3363 49.5575 34.3363 49.5575 34.1593L49.7345 30.2655C49.7345 30.0885 49.7345 29.5575 49.7345 29.3805C49.5575 28.6726 49.2035 27.9646 49.0265 27.2566C48.4956 26.1947 47.7876 25.3097 46.9027 24.4248C46.1947 23.5398 45.3097 22.8319 44.6018 21.7699C43.8938 20.885 43.3628 20.177 43.0088 18.9381C42.8319 18.9381 42.8319 18.5841 43.0088 18.5841H43.1858C43.5398 19.646 44.2478 20.708 44.9558 21.5929C45.6637 22.4779 46.3717 23.3628 47.2566 24.2478C47.9646 25.1327 48.8496 26.0177 49.3805 27.0796C49.3805 27.2566 49.5575 27.4336 49.5575 27.7876C49.7345 27.9646 49.7345 27.9646 49.7345 27.6106C49.7345 26.3717 49.7345 24.9558 49.7345 23.7168C49.9115 23.3628 49.7345 23.1858 49.7345 23.1858C49.7345 23.1858 49.7345 23.0088 49.7345 22.6549C49.5575 22.1239 49.3805 21.5929 49.2035 21.0619C48.8496 20.708 48.6726 20.354 48.4956 20.177C48.1416 19.823 47.7876 19.823 47.4336 19.646C46.7257 19.115 46.1947 18.5841 45.8407 17.8761C45.3097 17.3451 45.1327 16.8142 44.7788 16.1062V15.7522H44.9558C45.1327 16.4602 45.4867 17.1681 46.0177 17.8761C46.3717 18.2301 46.7257 18.7611 47.2566 19.115C47.4336 19.292 47.7876 19.469 47.9646 19.646C48.4956 19.823 49.0265 20.354 49.3805 20.885C49.5575 21.0619 49.5575 21.0619 49.5575 21.2389C49.7345 21.5929 49.9115 21.4159 49.9115 21.2389C49.9115 20.885 49.9115 20.531 49.9115 20.177C49.9115 19.469 49.9115 18.5841 49.9115 17.8761C49.9115 17.6991 49.7345 17.5221 49.5575 17.5221C49.3805 17.5221 49.3805 17.3451 49.2035 17.3451C48.8496 17.3451 48.6726 17.3451 48.3186 17.1681C47.7876 16.8142 47.6106 16.6372 47.4336 16.1062C47.4336 15.9292 47.2566 15.7522 47.4336 15.7522H47.6106C47.6106 15.9292 47.7876 16.2832 47.9646 16.4602C48.1416 16.6372 48.3186 16.8142 48.4956 16.9912C48.8496 16.9912 49.0265 17.1681 49.3805 17.1681C49.5575 17.1681 49.9115 16.9912 49.9115 16.8142C49.9115 14.8673 49.9115 13.4513 49.9115 11.6814C49.9115 11.5044 49.9115 10.9735 50.0885 10.9735C50.2655 10.9735 50.2655 11.1504 50.2655 11.3274C50.2655 13.0973 50.2655 14.8673 50.2655 16.8142C50.2655 16.9912 50.4425 17.1681 50.6195 17.1681C50.9735 17.1681 51.3274 16.9912 51.5044 16.9912C51.6814 16.8142 52.0354 16.6372 52.2124 16.4602C52.2124 16.2832 52.3894 15.9292 52.5664 15.7522C52.5664 15.7522 52.5664 15.7522 52.7434 15.7522V16.1062C52.3894 16.6372 52.2124 16.8142 51.6814 17.1681C51.5044 17.3451 51.1504 17.3451 50.7965 17.3451L50.6195 17.5221C50.4425 17.5221 50.2655 17.6991 50.2655 17.8761C50.2655 18.5841 50.2655 19.469 50.2655 20.177C50.2655 20.531 50.2655 20.885 50.2655 21.2389C50.2655 21.4159 50.2655 21.5929 50.4425 21.2389C50.4425 21.0619 50.6195 21.0619 50.6195 20.885C50.9735 20.354 51.5044 19.823 52.0354 19.646C52.2124 19.469 52.7434 19.292 52.9204 19.115C53.2743 18.7611 53.8053 18.2301 54.1593 17.8761C54.5133 17.1681 54.8673 16.4602 55.2212 15.7522C55.3982 15.7522 55.2212 15.9292 55.2212 16.1062C54.8673 16.8142 54.6903 17.3451 54.3363 17.8761C53.8053 18.5841 53.2743 19.115 52.5664 19.646C52.2124 19.823 51.8584 19.823 51.6814 20.177C51.3274 20.354 51.1504 20.708 50.9735 21.0619C50.6195 21.5929 50.2655 22.4779 50.2655 23.1858C50.2655 23.1858 50.2655 23.3628 50.2655 23.7168C50.2655 24.9558 50.2655 26.3717 50.2655 27.6106C50.2655 27.9646 50.4425 27.9646 50.4425 27.7876C50.6195 27.4336 50.6195 27.2566 50.7965 27.0796C51.3274 26.0177 52.0354 25.1327 52.9204 24.2478C53.6283 23.3628 54.5133 22.4779 55.2212 21.5929C55.9292 20.708 56.4602 19.646 56.9912 18.5841C56.9912 18.5841 56.9912 18.5841 57.1681 18.5841C57.1681 18.5841 56.9912 18.9381 56.9912 19.115C56.6372 20.177 56.1062 20.885 55.3982 21.7699C54.6903 22.8319 53.9823 23.5398 53.0973 24.4248C52.3894 25.3097 51.6814 26.1947 51.1504 27.2566C50.7965 27.9646 50.6195 28.6726 50.4425 29.3805C50.4425 29.5575 50.2655 30.0885 50.2655 30.2655L50.4425 34.1593C50.4425 34.3363 50.4425 34.3363 50.6195 34.1593C50.9735 32.9204 51.6814 31.8584 52.3894 30.7965C53.0973 29.7345 53.8053 28.4956 54.3363 27.2566C55.0442 26.0177 55.5752 24.7788 55.7522 23.3628C55.7522 23.3628 55.9292 23.1858 56.1062 23.1858C56.1062 23.3628 56.1062 23.7168 56.1062 23.8938C55.9292 24.6018 55.9292 24.9558 55.5752 25.4867C55.3982 26.1947 55.0442 26.9027 54.8673 27.4336C54.1593 28.6726 53.6283 29.9115 52.7434 31.1504C52.0354 32.2124 51.6814 33.4513 50.9735 34.6903C50.4425 35.9292 50.4425 37.5221 50.4425 38.7611ZM43.5398 43.7168C43.1858 43.3628 42.8319 42.8319 42.6549 42.4779C42.1239 41.5929 41.5929 40.708 41.2389 39.646C41.2389 39.469 40.885 39.292 40.708 39.115C40.177 39.115 39.823 38.9381 39.292 38.7611C38.7611 38.4071 38.2301 38.0531 37.6991 37.6991C37.1681 37.3451 36.6372 36.9912 36.2832 36.4602C35.7522 36.1062 35.2212 35.7522 34.6903 35.3982C33.8053 34.6903 32.5664 33.9823 31.5044 33.4513C30.4425 32.7434 29.7345 32.2124 28.4956 31.8584C28.4956 31.8584 27.9646 31.6814 27.9646 31.5044C27.9646 31.5044 28.1416 31.3274 28.1416 31.5044H28.3186C29.3805 32.0354 30.4425 32.5664 31.6814 33.2743C32.5664 33.6283 33.4513 34.1593 34.3363 34.6903C34.6903 34.8673 34.8673 34.8673 34.6903 34.5133C34.6903 34.1593 34.5133 33.6283 34.3363 33.2743C34.1593 33.0973 33.9823 32.7434 33.6283 32.5664L33.0973 31.6814C32.2124 30.4425 31.3274 29.3805 30.6195 28.3186C30.4425 28.1416 30.4425 28.1416 30.6195 28.1416C30.6195 27.9646 30.6195 27.9646 30.7965 28.1416C31.5044 29.2035 32.3894 30.4425 33.2743 31.5044L33.9823 32.3894C34.1593 32.5664 34.3363 32.9204 34.5133 33.2743C34.8673 33.6283 35.0442 34.1593 35.0442 34.8673C35.0442 35.0442 35.2212 35.3982 35.3982 35.5752C35.7522 35.7522 36.1062 35.9292 36.4602 36.2832C36.9912 36.6372 37.3451 36.9912 37.8761 37.3451C38.4071 37.6991 38.9381 38.0531 39.469 38.2301C39.823 38.4071 40.177 38.5841 40.354 38.5841C40.531 38.5841 40.708 38.5841 40.531 38.2301C40.177 37.5221 39.823 36.8142 39.469 35.9292C39.115 35.5752 38.9381 35.0442 38.5841 34.5133C38.5841 34.3363 38.4071 34.1593 38.4071 34.1593C38.4071 34.1593 38.2301 33.9823 38.0531 33.8053C37.3451 32.3894 36.4602 31.1504 35.5752 29.9115C33.9823 28.1416 32.7434 26.5487 30.7965 24.9558C30.7965 24.9558 30.4425 24.6018 30.6195 24.4248H30.7965C32.5664 26.1947 34.3363 27.7876 35.7522 29.7345C36.6372 30.7965 37.3451 31.6814 38.0531 32.7434C38.2301 32.9204 38.4071 32.9204 38.4071 32.7434C38.4071 32.2124 38.4071 31.8584 38.5841 31.3274C38.7611 30.9735 38.9381 30.6195 39.115 30.0885C39.292 29.7345 39.469 29.3805 39.646 29.0265C40 28.3186 40.177 27.4336 40.354 26.5487C40.354 25.6637 40.354 24.7788 40 24.0708C40 23.8938 40 23.8938 40.177 23.8938C40.177 23.8938 40.177 23.8938 40.354 23.8938C40.531 24.7788 40.708 25.6637 40.531 26.5487C40.531 27.4336 40.354 28.3186 39.823 29.2035C39.646 29.5575 39.469 29.9115 39.292 30.2655C39.115 30.6195 38.9381 31.1504 38.9381 31.5044C38.7611 32.0354 38.7611 32.7434 38.7611 33.4513C38.7611 33.6283 38.9381 33.9823 38.9381 34.1593C39.292 34.6903 39.646 35.2212 40 35.7522C40.531 36.8142 41.0619 37.8761 41.5929 38.9381C42.1239 40 42.6549 41.0619 43.1858 42.1239C44.4248 44.2478 46.0177 46.0177 47.7876 47.4336H47.9646C47.9646 47.4336 47.9646 47.6106 47.9646 47.7876C47.7876 47.7876 47.7876 47.7876 47.6106 47.7876C46.5487 47.2566 45.6637 46.3717 44.7788 45.4867C44.7788 45.3097 44.6018 45.3097 44.6018 45.3097C44.4248 45.1327 44.2478 44.9558 44.0708 44.7788C43.0088 44.2478 41.9469 43.8938 40.885 43.8938C40.177 43.7168 39.469 43.8938 38.7611 43.8938C38.0531 44.0708 37.1681 44.2478 36.4602 44.2478C35.0442 44.0708 33.6283 43.7168 32.2124 43.3628C30.7965 43.0088 29.7345 42.4779 28.4956 41.9469C28.3186 41.7699 27.9646 41.5929 27.9646 41.4159C27.9646 41.4159 28.1416 41.4159 28.3186 41.4159C29.5575 42.1239 30.9735 42.6549 32.2124 43.0088C33.6283 43.5398 35.0442 43.8938 36.4602 43.8938C37.1681 43.8938 37.8761 43.8938 38.5841 43.7168C39.469 43.5398 40.177 43.5398 40.885 43.5398C41.7699 43.5398 42.4779 43.7168 43.3628 43.8938C43.5398 44.0708 43.5398 43.8938 43.5398 43.7168ZM61.2389 31.5044C61.0619 31.1504 60.885 30.6195 60.708 30.2655C60.531 29.9115 60.354 29.5575 60.177 29.2035C59.823 28.3186 59.646 27.4336 59.469 26.5487C59.469 25.6637 59.469 25.1327 59.823 24.4248C59.823 24.2478 59.823 23.8938 60 23.8938C60 23.8938 60 23.8938 60 24.0708C59.646 24.7788 59.646 25.6637 59.646 26.5487C59.823 27.4336 60 28.3186 60.354 29.0265C60.531 29.3805 60.708 29.7345 61.0619 30.0885C61.2389 30.6195 61.4159 30.9735 61.4159 31.3274C61.5929 31.8584 61.5929 32.2124 61.7699 32.7434C61.7699 32.9204 61.9469 32.9204 61.9469 32.7434C62.6549 31.6814 63.5398 30.7965 64.2478 29.7345C65.8407 27.7876 67.4336 26.1947 69.2035 24.4248C69.3805 24.4248 69.3805 24.4248 69.5575 24.4248C69.5575 24.6018 69.2035 24.9558 69.0265 24.9558C67.2566 26.5487 66.0177 28.1416 64.6018 29.9115C63.5398 31.1504 62.8319 32.3894 61.9469 33.8053C61.7699 33.9823 61.7699 34.1593 61.7699 34.1593C61.5929 34.1593 61.5929 34.3363 61.4159 34.5133C61.2389 35.0442 60.885 35.5752 60.531 35.9292C60.177 36.8142 59.823 37.5221 59.469 38.2301C59.292 38.5841 59.469 38.5841 59.646 38.5841C60 38.5841 60.177 38.4071 60.531 38.2301C61.0619 38.0531 61.5929 37.6991 62.1239 37.3451C62.6549 36.9912 63.1858 36.6372 63.5398 36.2832C63.8938 35.9292 64.2478 35.7522 64.6018 35.5752C64.7788 35.3982 64.9558 35.0442 64.9558 34.8673C64.9558 34.1593 65.3097 33.6283 65.4867 33.2743C65.6637 32.9204 66.0177 32.5664 66.1947 32.3894L66.7257 31.5044C67.6106 30.4425 68.1416 29.7345 69.0265 28.6726C69.0265 28.4956 69.3805 27.9646 69.5575 28.1416C69.5575 28.1416 69.5575 28.1416 69.5575 28.3186C68.6726 29.3805 67.7876 30.4425 67.0796 31.6814L66.3717 32.5664C66.1947 32.7434 65.8407 33.0973 65.6637 33.2743C65.4867 33.6283 65.3097 34.1593 65.3097 34.5133C65.3097 34.8673 65.4867 34.8673 65.6637 34.6903C66.5487 34.1593 67.4336 33.6283 68.4956 33.2743C69.5575 32.5664 70.6195 32.0354 71.8584 31.5044C72.0354 31.3274 72.0354 31.5044 72.2124 31.5044C72.2124 31.6814 71.6814 31.8584 71.5044 31.8584C70.2655 32.3894 69.7345 32.7434 68.4956 33.4513C67.4336 33.9823 66.3717 34.6903 65.3097 35.3982C64.7788 35.7522 64.2478 36.1062 63.8938 36.4602C63.3628 36.9912 62.8319 37.3451 62.3009 37.6991C61.7699 38.0531 61.2389 38.4071 60.708 38.7611C60.354 38.9381 59.823 39.115 59.469 39.115C59.115 39.292 58.9381 39.469 58.7611 39.646C58.4071 40.708 57.8761 41.5929 57.3451 42.4779C57.1681 42.8319 56.8142 43.3628 56.6372 43.7168C56.4602 43.8938 56.4602 44.0708 56.8142 43.8938C57.5221 43.7168 58.4071 43.5398 59.115 43.5398C60 43.5398 60.708 43.5398 61.4159 43.7168C62.1239 43.8938 62.8319 43.8938 63.5398 43.8938C64.9558 43.8938 66.3717 43.5398 67.7876 43.0088C69.2035 42.6549 70.4425 42.1239 71.8584 41.4159H72.0354C72.2124 41.5929 71.8584 41.7699 71.8584 41.7699C70.4425 42.4779 69.2035 43.0088 67.9646 43.3628C66.5487 43.7168 64.9558 44.0708 63.5398 44.2478C62.8319 44.2478 62.1239 44.0708 61.4159 43.8938C60.708 43.8938 60 43.7168 59.292 43.8938C58.0531 43.8938 56.9912 44.2478 56.1062 44.7788C55.7522 44.9558 55.5752 45.1327 55.3982 45.3097C55.3982 45.3097 55.3982 45.3097 55.2212 45.4867C54.5133 46.3717 53.6283 47.2566 52.3894 47.7876H52.2124C52.0354 47.6106 52.0354 47.4336 52.2124 47.4336C53.9823 46.0177 55.5752 44.2478 56.8142 42.1239C57.5221 41.0619 57.8761 40 58.4071 38.9381C58.9381 37.8761 59.469 36.8142 60.177 35.7522C60.354 35.2212 60.708 34.6903 61.0619 34.1593C61.2389 33.9823 61.4159 33.6283 61.4159 33.4513C61.4159 32.7434 61.2389 32.0354 61.2389 31.5044ZM51.3274 78.4071L51.1504 78.2301C51.8584 76.4602 53.4513 75.2212 55.0442 73.9823C55.7522 73.4513 56.6372 73.0973 57.5221 72.9204C58.4071 72.7434 59.292 72.2124 60.177 72.0354C60.354 72.0354 60.531 71.8584 60.885 71.8584C61.0619 71.8584 61.4159 71.5044 61.5929 71.3274C62.4779 70.2655 63.1858 69.2035 63.8938 67.9646C64.7788 66.5487 65.6637 65.1327 66.1947 63.5398C66.9027 61.9469 67.4336 60.531 67.9646 58.7611C68.3186 57.1681 68.6726 55.9292 68.4956 54.3363C68.4956 54.3363 68.4956 53.8053 68.6726 53.8053C68.6726 53.6283 68.8496 53.8053 68.8496 53.9823C68.8496 55.5752 68.6726 57.3451 68.3186 58.9381C67.9646 60.531 67.4336 62.1239 66.7257 63.7168C66.0177 65.3097 65.3097 66.7257 64.4248 68.3186C63.8938 69.2035 63.3628 70.0885 62.6549 70.9735C62.4779 71.1504 62.6549 71.3274 62.8319 71.1504C63.5398 70.9735 64.4248 70.6195 65.1327 70.2655C66.5487 69.5575 68.1416 68.4956 69.3805 67.4336C69.7345 67.0796 70.0885 66.7257 70.2655 66.3717C70.4425 66.1947 70.6195 65.8407 70.6195 65.6637C70.4425 65.1327 70.4425 64.6018 70.6195 64.0708C70.6195 63.3628 70.7965 62.4779 71.1504 61.7699C71.5044 60.354 72.2124 59.115 73.0973 57.8761C73.9823 56.6372 74.6903 55.3982 75.0442 53.9823C75.3982 52.5664 75.7522 51.1504 75.5752 49.5575H75.7522H75.9292C75.9292 51.1504 75.7522 52.5664 75.3982 53.9823C74.8673 55.3982 74.3363 56.8142 73.4513 58.0531C72.5664 59.292 71.8584 60.531 71.5044 61.9469C71.1504 62.6549 70.9735 63.3628 70.9735 64.0708C70.9735 64.4248 70.9735 64.9558 70.9735 65.3097C70.9735 65.4867 70.9735 65.6637 71.1504 65.6637C71.1504 65.4867 71.1504 65.4867 71.1504 65.4867C71.6814 64.7788 72.2124 64.0708 72.9204 63.3628C73.9823 61.9469 75.0442 60.708 76.1062 59.292L82.8319 50.9735C83.0088 50.9735 83.0088 50.7965 83.1858 50.9735C83.1858 50.9735 83.0088 51.3274 82.8319 51.5044C81.0619 53.6283 79.469 55.7522 77.6991 58.0531C77.5221 58.2301 77.5221 58.2301 77.8761 58.2301C78.7611 58.0531 79.646 57.6991 80.531 57.3451C81.7699 56.9912 82.8319 56.4602 83.8938 55.7522C84.0708 55.7522 84.2478 55.7522 84.2478 55.9292C84.2478 55.9292 83.8938 56.2832 83.7168 56.2832C82.4779 56.8142 81.7699 57.1681 80.708 57.6991C80 57.8761 79.469 58.2301 78.9381 58.4071C78.2301 58.5841 77.6991 58.7611 76.9912 58.9381C76.9912 58.9381 76.8142 59.115 76.6372 59.292C76.6372 59.292 76.6372 59.469 76.4602 59.469C75.3982 60.885 74.3363 62.3009 73.2743 63.7168L72.2124 65.1327C72.0354 65.3097 72.0354 65.3097 72.2124 65.1327C72.5664 64.9558 72.9204 64.7788 73.2743 64.6018C74.5133 63.8938 75.7522 63.3628 76.9912 63.0088C77.6991 62.8319 78.2301 62.8319 78.9381 62.4779C79.469 62.3009 80.177 62.1239 80.708 61.9469C81.9469 61.4159 83.1858 60.885 84.0708 60.177C84.2478 60.177 84.4248 60.177 84.4248 60.177C84.6018 60.354 84.0708 60.708 84.0708 60.708C82.8319 61.4159 82.1239 61.9469 80.885 62.3009C80.177 62.6549 79.646 62.8319 78.9381 63.0088C78.4071 63.1858 77.6991 63.3628 77.1681 63.5398C75.9292 63.8938 74.6903 64.4248 73.4513 64.9558C72.5664 65.4867 71.6814 66.0177 70.7965 66.7257C70.6195 66.9027 70.4425 67.2566 70.2655 67.4336C70.0885 67.4336 69.9115 67.6106 69.7345 67.7876C68.6726 68.8496 67.6106 69.5575 66.3717 70.4425C66.1947 70.4425 66.1947 70.6195 66.5487 70.6195C66.9027 70.6195 67.2566 70.6195 67.4336 70.6195C68.4956 70.6195 69.3805 70.4425 70.2655 70.2655C71.1504 70.0885 72.0354 69.9115 72.9204 69.5575C73.8053 69.3805 74.5133 69.0265 75.3982 68.6726C77.1681 68.1416 78.9381 67.6106 80.708 67.0796C82.4779 66.5487 84.2478 66.0177 86.0177 65.4867C86.1947 65.4867 86.3717 65.4867 86.3717 65.6637C86.3717 65.8407 85.8407 65.8407 85.6637 66.0177C82.1239 66.7257 79.115 67.7876 75.5752 69.0265C74.6903 69.3805 73.8053 69.7345 72.9204 69.9115C72.0354 70.2655 71.1504 70.4425 70.2655 70.7965C69.3805 70.9735 68.4956 71.1504 67.6106 71.1504C66.9027 71.1504 66.1947 71.3274 65.4867 71.1504C65.1327 71.1504 64.7788 71.3274 64.6018 71.3274C63.1858 72.0354 61.7699 72.5664 60.354 72.9204C60 73.0973 59.646 73.2743 59.292 73.2743C59.115 73.2743 58.9381 73.4513 59.115 73.4513C60 73.6283 60.708 73.9823 61.4159 74.3363C62.1239 74.6903 62.8319 75.2212 63.5398 75.7522C63.8938 76.1062 64.0708 76.4602 64.4248 76.6372C64.6018 76.9912 64.9558 77.1681 65.3097 77.3451C66.5487 78.4071 67.9646 79.115 69.3805 79.646C70.9735 80.177 72.3894 80.531 73.9823 80.885C74.1593 80.885 74.1593 81.0619 74.1593 81.2389L73.9823 81.4159C72.3894 81.0619 70.7965 80.531 69.2035 80C67.7876 79.469 66.1947 78.7611 64.9558 77.8761C64.6018 77.5221 64.2478 77.3451 64.0708 76.9912C63.7168 76.6372 63.5398 76.4602 63.1858 76.1062C62.6549 75.7522 61.9469 75.2212 61.2389 74.8673C60 74.3363 58.7611 73.9823 57.3451 73.9823C57.1681 73.9823 56.8142 73.9823 56.4602 74.1593C56.2832 74.3363 55.9292 74.3363 55.5752 74.6903C54.1593 75.5752 52.5664 76.8142 51.6814 78.4071C51.5044 78.4071 51.5044 78.4071 51.3274 78.4071ZM60.885 95.7522C55.9292 96.9912 51.8584 94.6903 51.6814 91.6814C51.6814 88.6726 51.6814 86.1947 51.6814 86.1947C51.6814 83.7168 51.6814 80.531 52.0354 79.469C52.5664 78.4071 53.2743 78.4071 53.8053 78.5841C54.1593 78.5841 54.1593 78.7611 53.9823 79.115C52.7434 81.7699 55.2212 81.9469 55.7522 82.3009C56.2832 82.6549 57.3451 80 57.3451 80C57.5221 80 57.5221 81.0619 57.3451 81.5929C57.1681 82.3009 57.3451 83.5398 58.0531 84.2478C58.5841 84.9558 59.292 84.4248 59.646 83.8938C60 83.1858 60.354 83.1858 60.708 84.6018C60.885 86.0177 62.1239 86.1947 62.6549 85.8407C63.1858 85.6637 63.3628 84.6018 63.7168 84.4248C63.8938 84.2478 64.2478 84.7788 64.4248 84.9558C64.7788 85.3097 64.7788 85.4867 64.9558 86.5487C65.3097 87.7876 68.4956 88.6726 69.5575 88.1416C70.4425 87.6106 69.3805 86.0177 68.8496 85.3097C68.8496 85.1327 68.8496 85.1327 69.0265 85.3097C69.5575 86.0177 70.6195 87.0796 71.3274 86.3717C72.5664 85.6637 71.1504 84.9558 70.9735 84.7788C70.9735 84.4248 71.3274 84.4248 71.8584 84.7788C72.5664 85.1327 74.5133 86.1947 75.9292 85.6637C77.3451 85.1327 74.6903 84.2478 75.7522 84.4248C76.6372 84.4248 78.2301 84.9558 79.115 83.5398C79.823 82.4779 78.0531 82.1239 77.1681 81.9469C76.8142 81.9469 76.8142 81.7699 77.1681 81.7699C77.8761 81.5929 79.115 81.2389 79.292 80.531C79.469 79.823 76.9912 79.469 77.8761 79.292C78.7611 78.9381 78.4071 78.2301 76.8142 76.9912C75.3982 75.7522 72.2124 73.6283 72.7434 73.8053C73.2743 73.9823 77.8761 74.8673 79.292 75.2212C80.708 75.5752 83.7168 75.2212 84.2478 74.1593C84.9558 73.2743 83.3628 72.3894 83.7168 71.8584C84.2478 71.3274 83.0088 70.6195 83.3628 70.7965C83.7168 70.7965 85.8407 72.2124 86.3717 71.6814C87.0796 70.9735 85.6637 70.2655 86.0177 70.2655C86.3717 70.4425 88.8496 70.4425 88.8496 69.3805C88.8496 68.4956 86.5487 68.1416 85.4867 68.1416C85.3097 68.1416 85.3097 68.1416 85.4867 68.1416C86.0177 67.9646 86.7257 67.9646 87.2566 68.1416C87.9646 68.1416 89.5575 67.9646 89.9115 67.4336C90.2655 67.2566 89.7345 66.9027 89.3805 66.9027C89.0265 66.7257 89.0265 66.7257 89.3805 66.5487C89.7345 66.3717 90.2655 66.0177 90.6195 65.3097C90.9735 64.6018 90.4425 64.2478 89.9115 64.0708C89.5575 64.0708 89.5575 63.8938 89.7345 63.5398C89.9115 63.1858 90.0885 62.6549 89.9115 61.9469C89.9115 61.7699 89.7345 61.4159 89.5575 61.2389C88.4956 60.354 85.4867 61.7699 86.5487 60.885C87.7876 59.823 85.8407 59.646 86.3717 59.115C86.9027 58.7611 88.1416 58.5841 88.4956 58.0531C88.4956 57.6991 88.3186 57.3451 88.1416 57.1681C87.6106 56.6372 86.3717 56.4602 86.9027 55.9292C87.2566 55.5752 89.2035 53.8053 88.4956 52.3894C87.7876 51.5044 86.1947 52.2124 85.3097 52.5664C85.1327 52.5664 85.1327 52.5664 85.3097 52.3894C86.1947 51.5044 88.8496 49.0265 88.4956 48.3186C88.1416 47.6106 87.0796 47.9646 86.5487 48.1416C86.3717 48.1416 86.1947 48.1416 86.3717 47.9646C86.7257 47.2566 87.2566 45.8407 86.7257 45.1327C86.1947 44.6018 85.1327 45.1327 84.6018 45.3097C84.4248 45.4867 84.2478 45.4867 84.4248 45.1327C84.4248 44.7788 84.2478 44.0708 83.8938 43.7168C83.3628 43.3628 81.9469 46.0177 81.2389 46.9027C81.0619 47.2566 81.0619 47.0796 80.885 46.9027C80.885 45.8407 80.531 43.5398 79.646 43.1858C78.5841 43.0088 77.6991 45.4867 77.5221 46.5487C77.3451 46.7257 77.3451 46.7257 77.3451 46.5487C77.3451 45.6637 77.3451 44.4248 76.2832 44.2478C75.2212 44.0708 74.8673 47.7876 74.5133 49.2035C74.3363 49.5575 74.1593 49.9115 73.9823 50.0885C73.0973 50.9735 71.1504 51.6814 71.3274 49.7345C71.5044 47.6106 70.0885 47.6106 69.3805 47.4336C68.6726 47.2566 68.4956 49.0265 67.9646 49.2035C67.6106 49.2035 67.2566 48.1416 66.5487 48.4956C66.0177 48.6726 66.0177 49.7345 65.8407 50.6195C65.8407 50.7965 65.8407 50.7965 65.8407 50.6195C65.6637 49.7345 65.1327 49.2035 64.7788 49.5575C64.0708 49.9115 64.0708 51.5044 64.0708 51.5044C64.0708 51.3274 63.7168 50.7965 63.5398 50.9735C63.1858 51.1504 62.6549 53.0973 62.6549 53.0973C62.6549 52.9204 61.9469 51.1504 61.0619 51.6814C60.531 52.0354 61.0619 53.2743 61.2389 54.3363C61.2389 54.5133 61.4159 54.8673 61.4159 55.2212C61.2389 55.9292 61.0619 56.6372 60.885 57.1681C60.885 57.3451 60.708 57.3451 60.531 57.1681C60.177 56.4602 59.115 54.8673 58.2301 55.0442C56.6372 55.3982 57.1681 58.0531 57.3451 58.9381C57.5221 59.292 57.3451 59.292 57.1681 59.115C56.6372 58.7611 55.7522 58.2301 55.0442 58.9381C54.5133 59.646 55.7522 61.0619 56.2832 61.7699C56.4602 61.9469 56.4602 61.9469 56.2832 61.7699C55.7522 61.4159 54.6903 60.708 54.3363 61.2389C53.9823 61.9469 54.6903 62.8319 55.0442 63.3628C55.2212 63.5398 55.0442 63.7168 54.8673 63.5398C54.3363 63.3628 53.6283 63.0088 53.4513 63.8938C53.4513 64.6018 54.6903 65.3097 55.3982 65.6637C55.5752 65.8407 55.5752 65.8407 55.3982 65.8407C54.8673 65.6637 53.9823 65.6637 53.9823 66.0177C53.9823 66.7257 55.5752 67.2566 56.6372 67.7876C57.8761 68.1416 58.7611 69.0265 58.7611 69.9115C58.7611 70.7965 55.7522 70.6195 53.9823 72.3894C53.6283 72.9204 52.0354 73.6283 51.6814 73.8053C51.1504 74.1593 51.1504 66.1947 51.1504 59.115C51.1504 52.0354 51.1504 50.7965 51.3274 50.6195C51.3274 50.2655 52.2124 48.8496 52.3894 48.8496C52.5664 48.6726 52.7434 48.6726 52.9204 48.6726C54.6903 47.7876 57.5221 49.3805 59.646 50.4425C59.646 50.6195 59.823 50.6195 60 50.7965C60.354 50.7965 60.708 50.7965 60.708 50.7965C60.885 50.7965 60.885 50.7965 61.0619 50.7965C61.0619 50.7965 61.0619 50.6195 61.2389 50.6195C61.4159 50.6195 61.5929 50.7965 61.5929 50.7965C61.9469 50.9735 62.1239 51.1504 62.3009 51.1504C62.3009 51.1504 62.4779 50.7965 62.6549 50.6195C62.6549 50.4425 62.8319 50.2655 63.0088 50.2655C63.0088 50.0885 63.1858 50.0885 63.1858 50.0885C63.3628 50.0885 63.5398 49.7345 63.7168 49.3805C63.8938 49.2035 64.0708 49.0265 64.2478 48.8496C64.4248 48.6726 64.7788 48.4956 64.9558 48.4956C65.1327 48.4956 65.1327 48.4956 65.1327 48.4956C65.3097 48.6726 65.3097 48.4956 65.4867 48.3186C65.4867 48.1416 65.4867 47.7876 65.3097 47.6106C65.1327 47.4336 65.3097 47.4336 65.6637 47.4336C65.8407 47.6106 66.1947 47.6106 66.1947 47.6106C66.3717 47.6106 66.5487 47.4336 66.7257 47.4336C66.9027 47.4336 67.0796 47.6106 67.2566 47.6106C67.6106 47.7876 67.9646 47.4336 68.3186 46.9027C68.4956 46.7257 68.8496 46.5487 69.3805 46.5487C69.3805 46.5487 69.5575 46.5487 69.7345 46.5487C69.7345 46.5487 69.9115 46.5487 69.9115 46.7257C70.2655 46.7257 70.9735 46.9027 71.5044 47.4336C71.8584 47.7876 72.2124 48.3186 72.5664 48.6726C72.7434 48.8496 73.0973 48.6726 73.2743 48.6726C73.6283 48.4956 73.8053 48.1416 73.8053 47.9646C73.8053 47.7876 73.8053 47.6106 73.9823 47.4336C73.9823 47.4336 73.9823 47.2566 73.9823 47.0796C73.9823 46.9027 73.9823 46.5487 73.9823 46.1947C73.8053 45.8407 73.8053 45.6637 73.9823 45.6637C74.5133 45.4867 73.9823 44.4248 74.1593 43.5398C74.3363 42.4779 76.6372 42.4779 76.6372 41.0619C76.6372 40 74.8673 39.823 73.9823 39.823C73.8053 39.823 73.8053 39.823 73.9823 39.823C74.5133 39.469 75.2212 39.115 75.0442 38.7611C75.0442 38.2301 74.1593 38.4071 71.3274 38.4071C68.8496 38.4071 64.6018 40.531 63.3628 41.0619C63.0088 41.2389 63.0088 41.2389 63.1858 41.0619C66.0177 38.9381 70.7965 37.1681 72.3894 36.6372C74.1593 35.9292 75.3982 34.8673 75.3982 34.1593C75.3982 33.2743 73.6283 34.6903 73.9823 33.4513C74.3363 32.2124 76.6372 30.7965 75.3982 29.2035C74.3363 27.9646 71.6814 29.5575 70.7965 30.2655C70.6195 30.4425 70.4425 30.4425 70.6195 30.0885C71.5044 28.4956 73.8053 25.6637 73.4513 24.9558C73.2743 24.2478 72.3894 24.6018 71.8584 24.7788C71.6814 24.9558 71.5044 24.7788 71.6814 24.6018C72.0354 23.7168 72.5664 21.7699 72.0354 21.0619C71.3274 20.708 70.2655 21.4159 69.7345 21.9469C69.3805 22.1239 69.3805 22.1239 69.3805 21.7699C69.5575 21.2389 69.7345 20.531 69.5575 20.177C69.3805 20 68.8496 20 68.6726 20.177C67.9646 20.708 67.0796 22.3009 66.7257 23.0088C66.7257 23.3628 66.5487 23.3628 66.5487 23.0088C66.5487 21.7699 66.1947 20 65.4867 20C64.6018 19.823 64.0708 21.0619 63.3628 22.8319C62.6549 24.0708 62.1239 23.8938 61.4159 24.4248C61.2389 24.6018 61.0619 24.4248 61.0619 24.2478C61.2389 23.0088 62.1239 22.3009 61.7699 21.4159C61.7699 21.2389 61.4159 20.885 61.2389 20.885C60.354 20.708 59.292 23.3628 58.0531 25.4867C56.6372 27.9646 55.7522 35.0442 55.5752 38.2301C55.3982 40.354 54.1593 42.8319 53.0973 44.4248C52.9204 44.7788 52.9204 44.6018 52.9204 44.4248C52.9204 42.6549 52.7434 39.292 53.6283 35.5752C54.1593 32.9204 54.8673 31.8584 55.9292 30.2655C56.1062 29.9115 56.2832 29.5575 56.2832 29.3805C56.8142 27.6106 57.1681 26.0177 57.6991 25.1327C58.0531 24.7788 58.2301 24.2478 58.5841 23.7168C59.823 21.4159 60.177 20.177 61.2389 20.177C61.4159 20.177 61.5929 19.823 61.5929 19.292C61.5929 18.9381 62.1239 18.4071 61.4159 18.4071C60.885 18.4071 59.292 20 58.5841 20.885C58.5841 21.0619 58.4071 21.0619 58.5841 20.708C59.646 18.9381 60.708 15.5752 59.646 14.8673C58.5841 14.3363 56.4602 16.9912 55.7522 18.2301C55.5752 18.4071 55.5752 18.4071 55.7522 18.0531C56.4602 15.9292 57.5221 14.6903 57.1681 14.1593C56.4602 13.2743 55.0442 14.5133 54.5133 15.0442C54.5133 15.2212 54.3363 15.2212 54.5133 15.0442C54.6903 14.1593 55.3982 12.5664 54.8673 12.0354C54.3363 11.3274 53.0973 12.7434 52.5664 13.9823C52.3894 14.1593 52.3894 14.1593 52.5664 13.9823C52.9204 13.0973 53.2743 11.8584 52.7434 11.3274C52.2124 10.9735 51.6814 11.8584 51.5044 12.3894C51.3274 12.7434 51.3274 12.7434 51.3274 12.3894C51.5044 10.6195 50.9735 9.02655 50.0885 9.20354C49.3805 9.38053 48.6726 10.6195 48.6726 12.3894C48.8496 12.7434 48.6726 12.7434 48.6726 12.3894C48.3186 11.8584 47.7876 10.9735 47.2566 11.3274C46.9027 11.8584 47.2566 13.0973 47.4336 13.9823C47.6106 14.1593 47.6106 14.1593 47.4336 13.9823C46.9027 12.7434 46.0177 10.9735 45.3097 11.6814C44.7788 12.2124 45.3097 14.1593 45.6637 15.0442C45.6637 15.2212 45.6637 15.2212 45.4867 15.0442C44.9558 14.5133 43.8938 13.4513 43.1858 14.1593C42.8319 14.8673 43.5398 15.9292 44.4248 18.0531C44.4248 18.4071 44.4248 18.4071 44.2478 18.2301C43.5398 16.9912 41.4159 13.6283 40.531 14.5133C39.469 15.3982 40.531 18.9381 41.4159 20.708C41.5929 21.0619 41.5929 21.0619 41.4159 20.708C40.885 19.823 39.292 17.6991 38.7611 18.0531C38.2301 18.4071 38.4071 18.9381 38.4071 19.292C38.4071 19.823 38.5841 20.177 38.7611 20.177C38.7611 20.177 38.7611 20.177 38.9381 20.177C39.823 20.177 40.177 21.4159 41.4159 23.7168C41.7699 24.2478 41.9469 24.7788 42.3009 25.1327C42.8319 26.0177 43.3628 27.6106 43.7168 29.3805C43.7168 29.5575 43.8938 29.9115 44.0708 30.2655C45.1327 31.8584 45.8407 32.9204 46.3717 35.5752C47.2566 39.292 47.0796 42.6549 47.2566 44.4248C47.2566 44.6018 47.0796 44.7788 46.9027 44.4248C46.0177 42.8319 44.6018 40.354 44.4248 38.2301C44.4248 35.0442 43.3628 27.9646 42.1239 25.4867C40.885 23.3628 39.646 20.708 38.7611 20.885C38.5841 20.885 38.2301 21.2389 38.2301 21.4159C37.8761 22.3009 38.7611 23.0088 38.9381 24.2478C38.9381 24.4248 38.7611 24.6018 38.5841 24.4248C38.0531 23.8938 36.8142 22.8319 36.1062 21.5929C35.3982 19.823 35.3982 19.646 34.6903 20C33.9823 20.177 33.4513 21.7699 33.4513 23.0088C33.4513 23.3628 33.4513 23.3628 33.2743 23.0088C32.7434 22.1239 31.5044 19.646 30.9735 20C30.2655 20.177 30.4425 21.2389 30.6195 21.7699C30.6195 22.1239 30.6195 22.1239 30.4425 21.9469C29.9115 21.4159 28.6726 20.708 28.1416 21.0619C27.4336 21.7699 28.1416 23.7168 28.3186 24.6018C28.4956 24.7788 28.3186 24.7788 28.1416 24.7788C27.7876 24.4248 27.0796 24.0708 26.7257 24.4248C26.5487 24.6018 26.5487 25.1327 26.5487 25.3097C26.9027 26.5487 28.6726 28.6726 29.3805 30.0885C29.5575 30.4425 29.3805 30.4425 29.2035 30.2655C28.3186 29.5575 25.6637 27.9646 24.6018 29.2035C23.3628 30.7965 25.8407 32.2124 26.0177 33.4513C26.3717 34.3363 25.3097 33.4513 24.7788 33.6283C24.6018 33.8053 24.6018 34.3363 24.6018 34.5133C24.7788 35.5752 26.1947 36.1062 27.6106 36.6372C29.2035 37.1681 33.9823 38.9381 36.8142 41.0619C36.9912 41.2389 36.9912 41.2389 36.8142 41.0619C35.3982 40.531 31.3274 38.4071 28.8496 38.4071C25.8407 38.4071 25.1327 37.8761 24.9558 38.7611C24.7788 39.292 25.4867 39.646 26.0177 39.823C26.1947 39.823 26.1947 39.823 26.0177 39.823C25.1327 39.823 23.3628 40 23.3628 41.0619C23.3628 42.4779 25.6637 42.4779 25.8407 43.5398C26.0177 44.4248 25.4867 45.4867 26.0177 45.6637C26.1947 45.6637 26.1947 45.8407 26.1947 46.1947C26.0177 46.5487 26.0177 46.9027 26.0177 47.0796C26.0177 47.2566 26.0177 47.4336 26.1947 47.4336C26.1947 47.6106 26.1947 47.7876 26.1947 47.9646C26.1947 48.1416 26.3717 48.4956 26.7257 48.6726C26.9027 48.6726 27.2566 48.8496 27.4336 48.6726C27.7876 48.3186 28.1416 47.7876 28.6726 47.4336C29.0265 46.9027 29.7345 46.7257 30.0885 46.7257C30.0885 46.5487 30.2655 46.5487 30.2655 46.5487C30.4425 46.5487 30.6195 46.5487 30.7965 46.5487C31.1504 46.5487 31.5044 46.7257 31.6814 46.9027C32.0354 47.4336 32.3894 47.7876 32.7434 47.6106C32.9204 47.6106 33.0973 47.4336 33.2743 47.4336C33.4513 47.4336 33.6283 47.6106 33.8053 47.6106C33.8053 47.6106 34.1593 47.6106 34.5133 47.4336C34.6903 47.4336 34.8673 47.4336 34.6903 47.6106C34.5133 47.7876 34.5133 48.1416 34.5133 48.3186C34.6903 48.4956 34.8673 48.6726 34.8673 48.4956H35.0442C35.3982 48.4956 35.5752 48.6726 35.7522 48.8496C36.1062 49.0265 36.2832 49.2035 36.2832 49.3805C36.4602 49.7345 36.8142 50.0885 36.8142 50.0885C36.9912 50.0885 36.9912 50.0885 37.1681 50.2655C37.1681 50.2655 37.3451 50.4425 37.5221 50.6195C37.5221 50.7965 37.6991 51.1504 37.8761 51.1504C37.8761 51.1504 38.0531 50.9735 38.4071 50.7965C38.5841 50.7965 38.7611 50.6195 38.9381 50.6195C38.9381 50.6195 38.9381 50.7965 39.115 50.7965H39.292C39.469 50.7965 39.646 50.7965 40 50.7965C40.177 50.6195 40.354 50.6195 40.531 50.4425C42.4779 49.3805 45.3097 47.7876 47.0796 48.6726C47.2566 48.6726 47.4336 48.6726 47.6106 48.8496C47.9646 48.8496 48.6726 50.2655 48.8496 50.6195C48.8496 50.7965 48.8496 52.9204 48.8496 59.115C48.8496 65.3097 49.0265 74.1593 48.3186 73.8053C47.9646 73.6283 46.3717 72.9204 46.0177 72.3894C44.2478 70.6195 41.2389 70.7965 41.2389 69.9115C41.2389 69.0265 42.1239 68.1416 43.3628 67.7876C44.6018 67.2566 46.0177 67.0796 46.0177 66.0177C46.0177 65.4867 45.3097 65.6637 44.7788 65.8407C44.4248 65.8407 44.4248 65.8407 44.7788 65.6637C45.3097 65.4867 46.7257 64.7788 46.7257 64.0708C46.5487 63.3628 45.6637 63.3628 45.1327 63.5398C44.9558 63.7168 44.9558 63.7168 45.1327 63.5398C45.4867 63.0088 46.1947 62.1239 45.6637 61.2389C45.3097 60.708 44.2478 61.4159 43.7168 61.7699C43.5398 61.9469 43.5398 61.9469 43.7168 61.7699C44.2478 61.0619 45.1327 59.646 44.6018 58.7611C44.0708 58.0531 43.1858 58.7611 42.8319 59.115C42.6549 59.292 42.4779 59.292 42.6549 58.9381C42.6549 58.0531 43.0088 55.5752 41.7699 55.0442C40.177 54.5133 39.823 56.6372 39.823 57.6991C39.823 57.8761 39.646 57.8761 39.469 57.6991C39.292 57.1681 38.7611 55.9292 38.7611 55.2212C38.7611 54.8673 38.7611 54.5133 38.7611 54.3363C39.115 53.2743 40 51.6814 38.9381 51.6814C37.8761 51.5044 37.5221 52.9204 37.3451 53.0973C37.3451 53.0973 36.8142 51.1504 36.6372 50.9735C36.2832 50.7965 35.9292 51.3274 35.9292 51.5044C35.9292 51.5044 35.9292 49.9115 35.3982 49.5575C34.8673 49.2035 34.3363 49.7345 34.1593 50.6195C34.1593 50.7965 34.1593 50.7965 34.1593 50.6195C34.1593 49.7345 33.9823 48.6726 33.4513 48.4956C32.9204 48.1416 32.3894 49.2035 32.0354 49.2035C31.5044 49.0265 31.3274 47.2566 30.6195 47.4336C29.9115 47.6106 28.6726 47.6106 28.6726 49.7345C28.8496 51.6814 26.9027 50.9735 26.0177 50.0885C25.8407 49.9115 25.6637 49.5575 25.6637 49.2035C25.1327 47.7876 24.7788 44.0708 23.7168 44.2478C22.8319 44.4248 22.6549 45.6637 22.6549 46.5487C22.6549 46.7257 22.6549 46.7257 22.6549 46.5487C22.4779 45.4867 21.7699 42.8319 20.531 43.1858C19.115 43.5398 18.9381 45.8407 18.9381 46.9027C18.9381 47.0796 18.9381 47.2566 18.7611 46.9027C18.2301 46.1947 17.3451 44.6018 16.4602 43.8938C16.2832 43.8938 15.9292 43.7168 15.7522 43.8938C15.5752 44.2478 15.5752 44.7788 15.5752 45.1327C15.7522 45.4867 15.5752 45.4867 15.3982 45.3097C15.0442 44.7788 14.1593 44.2478 13.4513 45.1327C12.7434 46.1947 13.2743 47.4336 13.6283 47.9646C13.8053 48.1416 13.8053 48.1416 13.4513 48.1416C12.9204 47.7876 11.8584 47.2566 11.5044 48.3186C11.1504 49.3805 13.8053 51.6814 14.6903 52.3894C14.8673 52.5664 14.8673 52.5664 14.6903 52.5664C13.9823 52.0354 12.2124 51.1504 11.6814 52.3894C10.9735 54.1593 12.7434 55.5752 13.2743 55.9292C13.6283 56.4602 12.2124 56.2832 11.6814 57.1681C11.6814 57.3451 11.5044 57.6991 11.6814 58.0531C11.8584 58.9381 13.0973 58.7611 13.6283 59.115C14.3363 59.646 12.2124 59.823 13.4513 60.885C14.5133 61.7699 11.6814 60.354 10.4425 61.2389C10.2655 61.4159 10.0885 61.7699 10.0885 61.9469C9.9115 62.6549 10.0885 63.1858 10.2655 63.5398C10.4425 63.8938 10.4425 64.0708 10.0885 64.0708C9.73451 64.2478 9.02655 64.6018 9.38053 65.3097C9.73451 66.0177 10.4425 66.3717 10.7965 66.5487C10.9735 66.7257 10.9735 66.7257 10.7965 66.9027C10.2655 66.9027 9.9115 67.2566 10.0885 67.4336C10.4425 67.9646 12.0354 68.1416 12.7434 68.1416C13.2743 67.9646 13.9823 67.9646 14.5133 68.1416C14.6903 68.1416 14.6903 68.1416 14.5133 68.1416C13.4513 68.1416 11.1504 68.4956 11.1504 69.3805C11.1504 70.4425 13.8053 70.4425 13.9823 70.2655C14.3363 70.2655 12.9204 70.9735 13.6283 71.6814C14.3363 72.2124 16.2832 70.7965 16.6372 70.7965C16.9912 70.6195 15.7522 71.3274 16.2832 71.8584C16.8142 72.3894 15.0442 73.2743 15.7522 74.1593C16.4602 75.2212 19.469 75.3982 20.885 74.8673C22.3009 74.5133 26.9027 73.9823 27.2566 73.8053C27.7876 73.6283 25.1327 76.1062 23.1858 76.8142C20.885 77.5221 21.2389 78.9381 22.1239 79.292C23.1858 79.469 20.531 79.823 20.885 80.531C21.0619 81.2389 22.3009 81.5929 22.8319 81.7699C23.1858 81.7699 23.1858 81.9469 22.8319 81.9469C21.9469 82.1239 20.177 82.4779 20.885 83.5398C21.7699 84.9558 23.3628 84.4248 24.4248 84.4248C25.4867 84.2478 22.6549 85.1327 24.0708 85.6637C25.4867 86.1947 27.6106 85.1327 28.1416 84.7788C28.8496 84.4248 29.0265 84.4248 29.0265 84.7788C29.0265 84.9558 27.4336 85.6637 28.6726 86.3717C29.5575 87.0796 30.6195 86.0177 31.1504 85.3097C31.3274 85.1327 31.3274 85.1327 31.1504 85.3097C30.6195 86.0177 29.5575 87.6106 30.4425 88.1416C31.5044 88.6726 34.6903 87.7876 35.0442 86.5487C35.2212 85.4867 35.3982 85.3097 35.7522 84.9558C35.9292 84.7788 36.1062 84.2478 36.2832 84.4248C36.6372 84.6018 36.8142 85.6637 37.3451 85.8407C38.0531 86.1947 39.115 86.0177 39.469 84.6018C39.646 83.1858 40.177 83.1858 40.531 83.8938C40.885 84.4248 41.4159 84.9558 41.9469 84.2478C42.6549 83.5398 42.8319 82.3009 42.6549 81.5929C42.6549 81.0619 42.6549 80 42.6549 80C42.8319 80 43.7168 82.6549 44.2478 82.3009C44.9558 81.9469 47.2566 81.7699 46.0177 79.115C45.8407 78.7611 46.0177 78.5841 46.1947 78.5841C46.7257 78.4071 47.6106 78.4071 47.9646 79.469C48.4956 80.531 48.4956 83.7168 48.3186 86.1947V91.6814C48.3186 94.6903 44.0708 96.9912 39.115 95.7522C18.4071 90.9735 3.00885 72.2124 3.00885 50.0885C3.00885 24.0708 24.0708 3.00885 50.0885 3.00885C75.9292 3.00885 97.1681 24.0708 97.1681 50.0885C97.1681 72.2124 81.5929 90.9735 60.885 95.7522Z" fill="#21A73F"/>
</svg>
